<?xml version="1.0" encoding="utf-8"?>
<!-- Generator: Adobe Illustrator 27.0.0, SVG Export Plug-In . SVG Version: 6.00 Build 0)  -->
<svg version="1.1" xmlns="http://www.w3.org/2000/svg" xmlns:xlink="http://www.w3.org/1999/xlink" x="0px" y="0px"
	 viewBox="0 0 228.8 129" style="enable-background:new 0 0 228.8 129;" xml:space="preserve">
<style type="text/css">
	.st0{clip-path:url(#XMLID_00000136380504586962813550000003117071651762293389_);}
	.st1{fill:#BB133E;}
	.st2{stroke:#FFFFFF;stroke-width:0.8435;}
	.st3{fill:#002664;}
	.st4{fill:#FFFFFF;}
	.st5{fill-rule:evenodd;clip-rule:evenodd;fill:#158864;fill-opacity:0;}
	.st6{fill-rule:evenodd;clip-rule:evenodd;fill:#158864;}
	.st7{fill-rule:evenodd;clip-rule:evenodd;fill:#FFFFFF;}
	.st8{fill:#0B151C;}
	.st9{fill:none;stroke:#158864;stroke-linecap:round;stroke-linejoin:round;stroke-miterlimit:10;}
	.st10{fill:none;stroke:#158864;stroke-linecap:round;stroke-miterlimit:10;}
	.st11{fill:#158864;}
	.st12{enable-background:new    ;}
	.st13{fill:#FFFFFF;stroke:#158864;stroke-linecap:round;stroke-miterlimit:10;}
	.st14{fill:none;stroke:#138864;stroke-width:0.75;stroke-linecap:round;stroke-linejoin:round;stroke-miterlimit:10;}
	
		.st15{fill:none;stroke:#138864;stroke-width:0.75;stroke-linecap:round;stroke-linejoin:round;stroke-miterlimit:10;stroke-dasharray:1,2;}
	.st16{fill:none;stroke:#158864;stroke-width:1.058;stroke-linecap:round;stroke-linejoin:round;stroke-miterlimit:10;}
	.st17{clip-path:url(#XMLID_00000142158220824484351500000015048335016215797433_);}
	.st18{fill:none;stroke:#158864;stroke-width:1.058;stroke-linecap:round;stroke-miterlimit:10;}
	.st19{fill:#158864;stroke:#158864;stroke-linecap:round;stroke-linejoin:round;stroke-miterlimit:10;}
	.st20{fill:#FFFFFF;stroke:#158864;stroke-linecap:round;stroke-linejoin:round;stroke-miterlimit:10;}
	.st21{fill:none;stroke:#158864;stroke-width:4;stroke-linecap:round;stroke-miterlimit:10;}
	.st22{clip-path:url(#SVGID_00000065061153057464851610000016934158928783275183_);fill:none;stroke:#158864;stroke-miterlimit:10;}
	.st23{fill:#222C33;}
	.st24{fill:none;stroke:#158864;stroke-linecap:round;stroke-linejoin:round;}
	.st25{fill:#158864;stroke:#158864;stroke-linecap:round;stroke-linejoin:round;}
	.st26{fill:#0B151C;stroke:#158864;stroke-linecap:round;stroke-linejoin:round;}
	.st27{fill:none;stroke:#158864;stroke-linecap:round;stroke-linejoin:round;stroke-miterlimit:10.0001;}
	.st28{fill:none;stroke:#158864;stroke-width:1.2;stroke-linecap:round;stroke-linejoin:round;stroke-miterlimit:10;}
	.st29{fill:#158864;stroke:#158864;stroke-linecap:round;stroke-miterlimit:10;}
	.st30{fill:none;stroke:#FFFFFF;stroke-linecap:round;stroke-miterlimit:10;}
	.st31{clip-path:url(#XMLID_00000036970038954153168760000011275901630301467522_);}
	.st32{fill:none;stroke:#158864;stroke-width:3;stroke-linecap:round;stroke-miterlimit:10;}
	.st33{fill:none;stroke:#158864;stroke-miterlimit:10;}
	.st34{fill:none;stroke:#158864;stroke-width:0.991;stroke-linecap:round;stroke-linejoin:round;stroke-miterlimit:10;}
	.st35{fill:none;stroke:#158864;stroke-width:0.9359;stroke-linecap:round;stroke-linejoin:round;stroke-miterlimit:10;}
	.st36{fill:none;stroke:#158864;stroke-width:1.3073;stroke-miterlimit:10;}
	.st37{fill:#FFFFFF;stroke:#158864;stroke-miterlimit:10;}
	.st38{fill:#FFFFFF;stroke:#158864;stroke-width:1.3073;stroke-linecap:round;stroke-linejoin:round;stroke-miterlimit:10;}
	.st39{fill:none;stroke:#158864;stroke-width:2.3863;stroke-linecap:round;stroke-linejoin:round;stroke-miterlimit:10;}
	.st40{fill:#FFFFFF;stroke:#158864;stroke-width:2.3863;stroke-linecap:round;stroke-linejoin:round;stroke-miterlimit:10;}
	.st41{fill:none;stroke:#158864;stroke-width:2.1073;stroke-linecap:round;stroke-linejoin:round;stroke-miterlimit:10;}
	.st42{fill:none;stroke:#158864;stroke-width:0.8761;stroke-linecap:round;stroke-linejoin:round;stroke-miterlimit:10;}
	.st43{fill:none;stroke:#158864;stroke-width:1.2291;stroke-linecap:round;stroke-linejoin:round;stroke-miterlimit:10;}
	.st44{fill:#158864;stroke:#158864;stroke-width:0.9504;stroke-linecap:round;stroke-linejoin:round;stroke-miterlimit:10;}
	.st45{fill:none;stroke:#158864;stroke-width:0.9783;stroke-linecap:round;stroke-linejoin:round;stroke-miterlimit:10;}
	.st46{fill:#FFFFFF;stroke:#158864;stroke-width:1.058;stroke-linecap:round;stroke-linejoin:round;stroke-miterlimit:10;}
	.st47{fill:#158864;stroke:#158864;stroke-width:1.058;stroke-linecap:round;stroke-linejoin:round;stroke-miterlimit:10;}
	.st48{fill:none;stroke:#FFFFFF;stroke-linecap:round;stroke-linejoin:round;stroke-miterlimit:10;}
	.st49{fill:none;stroke:#158864;stroke-width:1.0968;stroke-miterlimit:10;}
	.st50{fill:none;stroke:#158864;stroke-width:2.1888;stroke-miterlimit:10;}
	.st51{fill:none;stroke:#158864;stroke-width:0.5;stroke-miterlimit:10;}
	.st52{fill:none;stroke:#158864;stroke-width:1.7392;stroke-miterlimit:10;}
	.st53{clip-path:url(#SVGID_00000142169134580413544620000009392950736442632372_);}
	.st54{clip-path:url(#SVGID_00000148659000769132919930000006335697913248394681_);}
	.st55{clip-path:url(#SVGID_00000119109492378165583590000012954273035969348516_);}
	.st56{clip-path:url(#SVGID_00000111906586399016555730000008691558142425858959_);}
	.st57{fill:#158864;stroke:#158864;stroke-miterlimit:10;}
	.st58{clip-path:url(#SVGID_00000075146999032094132190000014836113843162967424_);}
	.st59{clip-path:url(#SVGID_00000107553363916230237810000011279998825317169538_);}
	.st60{clip-path:url(#SVGID_00000005224478835576583440000009759176835146933643_);}
	.st61{fill:none;stroke:#158864;stroke-width:0.8937;stroke-linecap:round;stroke-linejoin:round;stroke-miterlimit:10;}
	.st62{fill:#158864;stroke:#158864;stroke-width:0.8937;stroke-linecap:round;stroke-linejoin:round;stroke-miterlimit:10;}
	.st63{fill:none;stroke:#158864;stroke-width:1.1175;stroke-linecap:round;stroke-linejoin:round;stroke-miterlimit:10;}
	.st64{fill:#158864;stroke:#158864;stroke-width:1.1175;stroke-linecap:round;stroke-linejoin:round;stroke-miterlimit:10;}
	.st65{fill:none;stroke:#158864;stroke-width:0.882;stroke-linecap:round;stroke-miterlimit:10;}
	.st66{fill:none;stroke:#158864;stroke-width:0.811;stroke-linecap:round;stroke-miterlimit:10;}
	.st67{opacity:0.5;}
	.st68{fill-rule:evenodd;clip-rule:evenodd;fill:#D3D5D6;}
	.st69{fill:none;stroke:#222C33;stroke-width:0.5;stroke-miterlimit:10;stroke-dasharray:1,1;}
	.st70{display:none;}
	.st71{display:inline;}
	.st72{opacity:3.000000e-02;fill:#158864;}
	.st73{fill:none;stroke:#FFFFFF;stroke-width:0.75;stroke-miterlimit:10;}
	.st74{fill:#222C33;stroke:#FFFFFF;stroke-width:0.75;stroke-miterlimit:10;}
	.st75{fill:none;stroke:#FFFFFF;stroke-width:0.5;stroke-linecap:round;stroke-linejoin:round;stroke-miterlimit:10;}
	.st76{fill:none;stroke:#FFFFFF;stroke-width:0.5;stroke-miterlimit:10;}
	.st77{fill:#222C33;stroke:#FFFFFF;stroke-width:0.5;stroke-linecap:round;stroke-linejoin:round;stroke-miterlimit:10;}
	.st78{fill:#FF715B;}
	.st79{fill:#FDCA0B;}
	.st80{fill:#ED6B1D;}
	.st81{fill:none;stroke:#A7ABAD;stroke-width:0.5;stroke-miterlimit:10;}
	.st82{fill:none;stroke:#FFFFFF;stroke-width:0.75;stroke-linecap:round;stroke-linejoin:round;stroke-miterlimit:10;}
	.st83{fill:#222C33;stroke:#FFFFFF;stroke-width:0.5;stroke-miterlimit:10;}
	.st84{clip-path:url(#XMLID_00000153706075983755800580000016514984483079211958_);}
	.st85{clip-path:url(#SVGID_00000037657118106190966310000005129657388258775979_);}
	.st86{fill:#DE2910;}
	.st87{fill:#FFDE00;}
	.st88{clip-path:url(#XMLID_00000155132849726367454620000002176411229812145295_);}
	.st89{clip-path:url(#SVGID_00000093874006390064115060000002922378374587441837_);}
	.st90{clip-path:url(#XMLID_00000029018885426888050880000015925849533354903451_);}
	.st91{clip-path:url(#SVGID_00000039838902391819504040000001437732402466525350_);}
	.st92{clip-path:url(#XMLID_00000093135503521694122410000008413765389908063925_);}
	.st93{clip-path:url(#SVGID_00000098196597255599072040000009183917696728285366_);}
	.st94{clip-path:url(#XMLID_00000059286387565560102150000005275917794894494889_);}
	.st95{clip-path:url(#SVGID_00000106830244324260992290000002004892519684059009_);}
	.st96{fill:#158864;stroke:#FFFFFF;stroke-width:0.5;stroke-linecap:round;stroke-linejoin:round;stroke-miterlimit:10;}
	.st97{fill:none;stroke:#222C33;stroke-miterlimit:10;}
	.st98{fill:#222C33;stroke:#222C33;stroke-miterlimit:10;}
	.st99{fill:#F4F5F5;stroke:#222C33;stroke-miterlimit:10;}
	.st100{fill:#FF715B;stroke:#222C33;stroke-miterlimit:10;}
	.st101{fill:#158864;stroke:#FFFFFF;stroke-linecap:round;stroke-linejoin:round;stroke-miterlimit:10;}
	.st102{fill:#FDCA0B;stroke:#222C33;stroke-miterlimit:10;}
	.st103{opacity:0.75;fill:none;stroke:#A7ABAD;stroke-width:0.25;stroke-miterlimit:10;}
	.st104{fill:#C4C4C4;}
	.st105{fill:none;stroke:#C4C4C4;stroke-width:0.75;stroke-miterlimit:10;}
	.st106{fill:none;stroke:#158864;stroke-width:0.8304;stroke-miterlimit:10;}
	.st107{fill:#158864;stroke:#FFFFFF;stroke-width:0.7728;stroke-linecap:round;stroke-linejoin:round;stroke-miterlimit:10;}
</style>
<symbol  id="New_Symbol" viewBox="-8.9 -8.8 19 12">
	<g>
		<defs>
			<rect id="XMLID_00000133526552155048526820000016981714463332097702_" x="-8.9" y="-8.8" width="19" height="12"/>
		</defs>
		<use xlink:href="#XMLID_00000133526552155048526820000016981714463332097702_"  style="overflow:visible;fill:#158864;"/>
		<clipPath id="XMLID_00000176762530059941314110000012300060405255247774_">
			<use xlink:href="#XMLID_00000133526552155048526820000016981714463332097702_"  style="overflow:visible;"/>
		</clipPath>
		<g style="clip-path:url(#XMLID_00000176762530059941314110000012300060405255247774_);">
			<rect x="-8.9" y="-8.8" class="st1" width="19" height="12"/>
			<path class="st2" d="M-8.9,1.9h19 M-8.9,0h19 M-8.9-1.8h19 M-8.9-3.7h19 M-8.9-5.5h19 M-8.9-7.4h19"/>
			<rect x="-8.9" y="-3.2" class="st3" width="9.1" height="6.5"/>
			<g>
				<g id="u_00000059278840063135381170000002670301404769100732_">
					<g>
						<g id="s6_00000069373043394993242250000016745386058375100546_">
							<g>
								<path id="s_00000087411179397437888350000005290078932157912969_" class="st4" d="M-8,2.8l0.2-0.7l-0.6,0.4h0.7l-0.6-0.4
									L-8,2.8z"/>
							</g>
							<g>
								<path id="s_00000149371207985269047510000009018659084742318209_" class="st4" d="M-6.7,2.8l0.2-0.7l-0.6,0.4h0.7L-7,2.1
									L-6.7,2.8z"/>
							</g>
							<g>
								<path id="s_00000126290641861708726560000014276940858654613423_" class="st4" d="M-5.5,2.8l0.2-0.7l-0.6,0.4h0.7l-0.6-0.4
									L-5.5,2.8z"/>
							</g>
							<g>
								<path id="s_00000131344288155501552300000015412251346161515707_" class="st4" d="M-4.3,2.8l0.2-0.7l-0.6,0.4H-4l-0.6-0.4
									L-4.3,2.8z"/>
							</g>
							<g>
								<path id="s_00000013871303072233602920000008745589155423581061_" class="st4" d="M-3.1,2.8l0.2-0.7l-0.6,0.4h0.7l-0.6-0.4
									L-3.1,2.8z"/>
							</g>
							<g>
								<path id="s_00000099630721070968235740000014843710231924889477_" class="st4" d="M-1.9,2.8l0.2-0.7l-0.6,0.4h0.7l-0.6-0.4
									L-1.9,2.8z"/>
							</g>
							<g>
								<path id="s_00000066489797467650916570000007403162167286368901_" class="st4" d="M-0.6,2.8l0.2-0.7L-1,2.6h0.7l-0.6-0.4
									L-0.6,2.8z"/>
							</g>
						</g>
					</g>
					<g>
						<g id="s6_00000016782427172691299150000017505071428672168619_">
							<g>
								<path id="s_00000152951683404256113520000016751654739776463022_" class="st4" d="M-8,1.2l0.2-0.7l-0.6,0.4h0.7l-0.6-0.4
									L-8,1.2z"/>
							</g>
							<g>
								<path id="s_00000037652777772279927830000015836614655611855288_" class="st4" d="M-6.7,1.2l0.2-0.7l-0.6,0.4h0.7L-7,0.5
									L-6.7,1.2z"/>
							</g>
							<g>
								<path id="s_00000048472416182985560130000013459258992630798015_" class="st4" d="M-5.5,1.2l0.2-0.7l-0.6,0.4h0.7l-0.6-0.4
									L-5.5,1.2z"/>
							</g>
							<g>
								<path id="s_00000098909310432008287780000006045995441747987598_" class="st4" d="M-4.3,1.2l0.2-0.7l-0.6,0.4H-4l-0.6-0.4
									L-4.3,1.2z"/>
							</g>
							<g>
								<path id="s_00000129884227025445478800000011632962578708814527_" class="st4" d="M-3.1,1.2l0.2-0.7l-0.6,0.4h0.7l-0.6-0.4
									L-3.1,1.2z"/>
							</g>
							<g>
								<path id="s_00000084531032339218016390000011273387463375584659_" class="st4" d="M-1.9,1.2l0.2-0.7l-0.6,0.4h0.7l-0.6-0.4
									L-1.9,1.2z"/>
							</g>
							<g>
								<path id="s_00000085939105930574108470000017695917516836157840_" class="st4" d="M-0.6,1.2l0.2-0.7L-1,0.9h0.7l-0.6-0.4
									L-0.6,1.2z"/>
							</g>
						</g>
					</g>
					<g>
						<g id="s6_00000004520592526194844970000012537790150206798504_">
							<g>
								<path id="s_00000021100686259513907390000010518637383023419052_" class="st4" d="M-8-0.4l0.2-0.7l-0.6,0.4h0.7l-0.6-0.4
									L-8-0.4z"/>
							</g>
							<g>
								<path id="s_00000136372416213836961500000007749130035961734291_" class="st4" d="M-6.7-0.4l0.2-0.7l-0.6,0.4h0.7L-7-1.1
									L-6.7-0.4z"/>
							</g>
							<g>
								<path id="s_00000144301257854113303780000011075815554586001544_" class="st4" d="M-5.5-0.4l0.2-0.7l-0.6,0.4h0.7l-0.6-0.4
									L-5.5-0.4z"/>
							</g>
							<g>
								<path id="s_00000183232842878042599240000000454217873855118244_" class="st4" d="M-4.3-0.4l0.2-0.7l-0.6,0.4H-4l-0.6-0.4
									L-4.3-0.4z"/>
							</g>
							<g>
								<path id="s_00000004508906538387021980000012325836326501759908_" class="st4" d="M-3.1-0.4l0.2-0.7l-0.6,0.4h0.7l-0.6-0.4
									L-3.1-0.4z"/>
							</g>
							<g>
								<path id="s_00000016769024479760826380000013361393279995809684_" class="st4" d="M-1.9-0.4l0.2-0.7l-0.6,0.4h0.7l-0.6-0.4
									L-1.9-0.4z"/>
							</g>
							<g>
								<path id="s_00000057848492848884978300000003190298779585275827_" class="st4" d="M-0.6-0.4l0.2-0.7L-1-0.7h0.7l-0.6-0.4
									L-0.6-0.4z"/>
							</g>
						</g>
					</g>
					<g>
						<g id="s6_00000009554732340691468810000017732018012827297976_">
							<g>
								<path id="s_00000097465018113978177510000004949989579356334991_" class="st4" d="M-8-2l0.2-0.7l-0.6,0.4h0.7l-0.6-0.4L-8-2
									z"/>
							</g>
							<g>
								<path id="s_00000124860668657674552230000006314695046031163534_" class="st4" d="M-6.7-2l0.2-0.7l-0.6,0.4h0.7L-7-2.7
									L-6.7-2z"/>
							</g>
							<g>
								<path id="s_00000122700014052518666590000015015413629777502881_" class="st4" d="M-5.5-2l0.2-0.7l-0.6,0.4h0.7l-0.6-0.4
									L-5.5-2z"/>
							</g>
							<g>
								<path id="s_00000032611961477733883750000000891031633000179121_" class="st4" d="M-4.3-2l0.2-0.7l-0.6,0.4H-4l-0.6-0.4
									L-4.3-2z"/>
							</g>
							<g>
								<path id="s_00000065776842355972056890000009360060275495652535_" class="st4" d="M-3.1-2l0.2-0.7l-0.6,0.4h0.7l-0.6-0.4
									L-3.1-2z"/>
							</g>
							<g>
								<path id="s_00000156565496569449552940000010417525735855261627_" class="st4" d="M-1.9-2l0.2-0.7l-0.6,0.4h0.7l-0.6-0.4
									L-1.9-2z"/>
							</g>
							<g>
								<path id="s_00000083802035070540764930000016017462742452120497_" class="st4" d="M-0.6-2l0.2-0.7L-1-2.3h0.7l-0.6-0.4
									L-0.6-2z"/>
							</g>
						</g>
					</g>
				</g>
			</g>
		</g>
	</g>
</symbol>
<symbol  id="pop_4" viewBox="-3 -3.6 6 6.5">
	<g>
		<circle class="st5" cx="0" cy="-0.1" r="3"/>
		<path class="st6" d="M0,2.9c-1.7,0-3-1.3-3-3c0-1.7,1.5-2.6,2.4-3.3c0.4-0.3,0.9-0.3,1.3,0C1.5-2.7,3-1.8,3-0.1
			C3,1.5,1.7,2.9,0,2.9z"/>
		<circle class="st7" cx="0" cy="-0.1" r="1.8"/>
	</g>
</symbol>
<symbol  id="pop_6" viewBox="-4.2 -5 8.5 9.2">
	
		<use xlink:href="#pop_4"  width="6" height="6.5" id="XMLID_3_" x="-3" y="-3.6" transform="matrix(1.4159 0 0 1.4159 0 0.1636)" style="overflow:visible;"/>
</symbol>
<g id="Layer_4">
</g>
<g id="Layer_3">
</g>
<g id="Layer_5">
</g>
<g id="Layer_1">
</g>
<g id="Layer_15">
</g>
<g id="Layer_16">
</g>
<g id="Layer_2">
	<g>
		<path class="st9" d="M108.3,44.8c-0.8-2.1-3.1-3.2-5.4-2.5c-2.2,0.9-3.2,3.9-2.5,5.4c1.5,3.1,6.3,3.1,7.8,6.3
			c0.8,1.6-0.2,4.6-2.5,5.4c-1.9,0.7-4.4-0.3-5.4-2.5"/>
		<line class="st9" x1="104.4" y1="51.2" x2="104.4" y2="44.5"/>
		<line class="st9" x1="104.4" y1="62.2" x2="104.4" y2="59.5"/>
		<line class="st9" x1="104.4" y1="57" x2="104.4" y2="51.2"/>
		<line class="st9" x1="104.4" y1="42.1" x2="104.4" y2="39.3"/>
		<path class="st9" d="M121,41.6c-0.8-1.5-1.9-2.9-3.2-4.2c-7.3-7.3-19.3-7.4-26.7,0s-7.4,19.3,0,26.7c7.4,7.4,19.3,7.4,26.7,0
			c1.3-1.3,2.3-2.7,3.2-4.2"/>
		<path class="st9" d="M94.6,62.7c-0.4-0.3-0.8-0.6-1.1-1c-6.1-6.1-6.1-16,0-22.1s16-6.1,22.1,0c6.1,6.1,6.1,16,0,22.1
			c-0.4,0.4-0.7,0.7-1.1,1"/>
	</g>
</g>
<g id="Layer_6">
	<g>
		<g>
			<defs>
				<rect id="SVGID_00000145058360748018823750000010592407823924797827_" x="174.6" y="177.6" width="40.7" height="40.7"/>
			</defs>
			<clipPath id="SVGID_00000100360526681787414040000011117992463888318376_">
				<use xlink:href="#SVGID_00000145058360748018823750000010592407823924797827_"  style="overflow:visible;"/>
			</clipPath>
			<g style="clip-path:url(#SVGID_00000100360526681787414040000011117992463888318376_);">
				<path class="st19" d="M213.7,138.7c0-0.1-0.1-0.2-0.2-0.3c-0.6-0.5-1.2-1-1.9-1.3c0.4,0,0.9-0.1,1.3-0.3c0.4-0.2,0.7-0.6,0.6-1
					c-0.1-0.7-1.1-1.2-1-1.9c0-0.3,0.3-0.7,0.2-1c-0.1-0.2-0.4-0.3-0.6-0.3c-1.2-0.2-2.4-0.3-3.6-0.5c0.1,0.5-0.1,1-0.4,1.2
					c-0.4,0.3-1,0.2-1.2-0.2c-0.1-0.1-0.1-0.3-0.2-0.4c-0.2-0.3-0.6-0.1-1,0c-0.7,0.3-1.5,0.3-2.2,0c-0.1-0.1-0.3-0.1-0.3-0.3
					c-0.1-0.2,0.1-0.4,0.1-0.6c0-0.4-0.4-0.7-0.7-0.7c-0.4,0-0.7,0.1-1.1,0.2c-1,0.3-2.3,0.4-3.1-0.3c-0.3-0.2-0.5-0.5-0.7-0.6
					c-0.4-0.2-0.8-0.3-1.3-0.3c-1.2-0.1-2.3-0.2-3.5-0.4c-0.1,0-0.2,0-0.3,0c-0.1,0.1-0.1,0.3-0.2,0.5c-0.1,0.3-0.5,0.5-0.8,0.5
					c-0.4,0-0.7-0.1-1.1,0c-0.3,0-0.5,0.1-0.8,0.1c-0.3,0-0.6-0.2-0.5-0.5c-0.3,0.2-0.6,0.6-0.6,1c-0.7,0.1-1.5-0.4-1.4-1.1
					c0-0.2,0.1-0.3,0.2-0.5c0.1-1.1-2.6-1.3-3.2-0.9c-0.2,0.1-0.3,0.3-0.4,0.4c-0.7,0.6-1.8,0.3-2.2-0.4c-0.9-0.1-1.9-0.1-2.8,0
					c-0.4-0.7-1.4-0.3-2,0.1c-0.6,0.4-1.6,0.8-2.1,0.2c1.6-0.4,3.1-1.1,4.4-2.1c0.1-0.1,0.3-0.2,0.2-0.4c0-0.1-0.1-0.2-0.2-0.3
					c-0.6-0.4-1.3-0.6-2.1-0.6c-0.5,0-1.2,0.1-1.5-0.3c-0.2-0.3-0.2-0.6-0.5-0.8c-0.2-0.2-0.6-0.2-0.9-0.1c-0.7,0.1-1.4,0.2-2.1,0.4
					c-0.1,0-0.2,0-0.3,0.1c-0.1,0.1-0.1,0.3-0.1,0.4c-0.1,0.9-1.2,1.5-2,1.1c-0.3-0.1-0.5-0.3-0.7-0.4c-0.3-0.1-0.7,0-1.1,0.1
					c-1.4,0.5-2.8,1-4.3,1.5c0.4,0.3,0.9,0.3,1.3,0.2c0.1,0.2-0.2,0.4-0.5,0.5c-1.1,0.2-2.2,0.5-3.2,0.7c0.6,0.5,1.2,1,1.8,1.5
					c0.3-0.2,0.5,0.3,0.4,0.6c-0.1,0.3-0.3,0.7,0,1c-0.3-0.1-0.6-0.4-0.8-0.7c0.2-0.1,0.3-0.3,0.5-0.4c-0.4,0.1-0.8-0.2-0.9-0.5
					c-0.7-0.1-1.4-0.4-1.9-0.9c-0.1,0.3,0,0.6,0.3,0.7c-0.3,0-0.5,0.1-0.8,0.1c0.1,0.4,0.4,0.7,0.8,0.8c-0.5,0.1-1.1,0-1.5-0.3
					c0.4-0.6-0.2-1.5-0.9-1.4c0.4,0.1,0.5,0.6,0.3,1c-0.2,0.4-0.5,0.7-0.5,1.1c0,0.5,0.5,1.1,0.1,1.4c0.5,0.4,1.3-0.3,1.7,0.1
					c0.1,0.1,0.1,0.3,0.2,0.5c0.1,0.5,0.7,0.9,1.3,0.8c-0.3,0.5-1.1,0-1.4-0.5c-0.3-0.5-1.1-1-1.4-0.4c-0.1,0.2-0.1,0.4-0.1,0.6
					c0,1.4-1.6,2.5-2.9,2c0.5-0.6,1.6-0.4,2-1c0.2-0.3,0.1-0.6,0.1-0.9c-0.2-1-0.3-2-0.5-3.1c0.1-0.5,0.1-1,0.1-1.4
					c-0.5,0.2-1.4,0.2-1.4-0.4c-0.5,0.8-0.9,1.5-1.4,2.3c-0.3,0.5-0.5,1.2,0,1.4c0.3-0.1,0.7,0.1,0.8,0.5c0.1,0.3,0,0.7-0.2,1
					c-0.7-1.9-4.2-1-5.1-2.8c-0.4,0.2,0,0.8,0.4,1c0.4,0.2,1,0.4,0.8,0.8c-0.1,0.3-0.6,0.3-0.9,0.3c-1-0.1-2,0.2-2.9,0.7
					c-0.1-0.4-0.2-0.7-0.2-1.1c-0.7,0.5-1.5,1-2.2,1.6c-0.4,0.3-0.7,0.5-1.2,0.6c-0.4,0-0.9-0.2-1-0.6c-0.1-0.4,0.6-0.8,0.9-0.5
					c0.1-0.8-1-1.5-1.6-1c0.4,0.7,0.4,1.7,0,2.4c-0.2,0.3-0.4,0.5-0.7,0.6c-0.3,0-0.7-0.2-0.6-0.5c-0.4,0.4-0.6,0.9-0.6,1.4
					c-0.6,0.2-1.4,0-1.8-0.6c0,0.3,0.1,0.6,0.1,0.9c-0.5,0.5-1.5,0.1-1.5-0.5c0-0.2,0-0.4,0-0.6c0-0.7-0.6-1.2-1.2-1.6
					c0.8,0.3,1.7,0.6,2.5,0.9c0.5,0.2,1,0.4,1.4,0.3c0.7-0.1,1.2-1.1,0.5-1.6c-1.1-0.9-2.4-1.6-3.8-2c-0.4-0.1-0.8-0.2-1.2-0.1
					c-0.3,0.1-0.8,0.3-0.9,0c0.3,0,0.7-0.1,0.9-0.3c-0.7-0.1-1.4-0.2-2-0.3c-0.8,0.7-1.3,1.7-1.1,2.7c0.4,1.5,2.4,2.8,1.6,4.2
					c0.7-0.2,1.4-0.3,2.1-0.1c0.4,0.1,0.7,0.3,1,0.6c0,0,0,0,0,0c0.2-0.1,0.4-0.1,0.6-0.1c0.2,0.1,0.4,0.3,0.3,0.5
					c-0.1,0.1-0.3,0.2-0.2,0.4c0,0.1,0.2,0.1,0.2,0.1c0.3,0.1,0.4,0.4,0.3,0.6c-0.4,0-0.7,0-1.1-0.1c-0.1,0.3-0.3,0.5-0.4,0.8
					c-0.5,1.1-0.1,2.4-0.1,3.6c0,0.6-0.1,1.3-0.4,1.9c0.1,0,0.1,0,0.2,0c1.4-0.2,3,0.1,3.8,1.2c0.8,1.1,0.6,3-0.7,3.6
					c-0.5,0.2-1.1,0.2-1.5,0.5c-0.2,0.1-0.3,0.3-0.4,0.5c0.8-0.5,1.7-0.9,2.6-1.1c-0.2,0.4-0.6,0.8-1.1,0.9c0.2,0.1,0.1,0.4-0.1,0.5
					c-0.2,0.1-0.4,0.1-0.5,0c-0.2,0-0.4-0.1-0.6,0c-0.2,0-0.3,0.2-0.4,0.3c0,0.1,0,0.1,0,0.2c0,0.1,0,0.1,0,0.1
					c0.5-0.4,1.2-0.4,1.7,0c0.2,0.2,0.3,0.4,0.5,0.5c0.2,0.1,0.5,0.2,0.7,0.4c0.2,0.2,0,0.6-0.2,0.6c0,0.1,0.1,0.2,0.3,0.3
					s0.3,0,0.4,0.1c0.3,0.1,0.2,0.6,0,0.8c-0.2,0.2-0.6,0.2-0.9,0.2c-0.8,0-1.6,0-2.4-0.3c-0.3-0.2-0.7-0.4-1-0.5
					c-0.4-0.1-0.8-0.1-1.1,0.1c-0.1,0.1-0.2,0.3-0.4,0.4c-0.3,0.3-0.8,0.3-1.2,0.1c-0.3-0.2-0.4-0.6-0.4-1c-0.3,0.3-0.6,0.7-0.8,1.2
					c0.2,0.5,0.4,1,0.5,1.5c0.1,0.2,0.1,0.3,0.2,0.5c0.2,0.5,0.4,1.1,1,1.1c0.7,0,1.3-0.8,1.8,0c0.1,0.2,0.1,0.3,0.1,0.5
					c0,0.4,0.5,0.8,0.8,0.5c0-0.3-0.1-0.5,0.1-0.8c0.1-0.2,0.5-0.4,0.7-0.2c0.1,0.1,0.2,0.3,0.2,0.5c0,0.3,0,0.5,0,0.8
					c-0.1,0.6-0.3,1.3-0.9,1.6c-0.4,0.3-1,0.4-0.7,1c0.1,0.1,0.4,0,0.5,0.1c0.2,0.3,0.1,0.6,0.1,0.9c0.1,0.7,0.8,1,1.3,1.6
					c0.6,0.7,0.5,1.8,0.8,2.7c0.6,1.8,2.9,3,2.8,5c-0.1,0.8-0.4,1.7,0.2,2.1c0.4,0.3,1,0.1,1.4-0.1c0.9-0.4,1.7-0.8,2.6-1.2
					c0.4-0.2,0.7-0.3,0.9-0.7c0.1-0.2,0.1-0.4,0.3-0.5c0.2-0.2,0.5-0.3,0.8-0.4c0.6-0.2,1.1-0.8,1.4-1.4c0.3-0.6,0.6-1.3,0.8-2
					c0-0.2,0.1-0.4,0-0.6c-0.2-0.7-1.4-0.7-1.4-1.5c0-0.3,0.2-0.6,0.3-0.8c0.1-0.3,0-0.7-0.3-0.7c-0.2,0.5-0.4,1.1-0.8,1.4
					c-0.4,0.4-1.1,0.5-1.5,0.2c-0.3-0.2-0.4-0.7-0.6-1c-0.3-0.5-0.9-0.8-1.2-1.4c-0.3-0.6,0.1-1.5,0.7-1.2c0.3,1,1,2,1.9,2.5
					c0.6-0.2,1.1-0.5,1.7-0.8c0.3-0.2,0.6,0.2,0.6,0.5c0,0.3,0,0.7,0.2,0.9c0.1,0.1,0.3,0.1,0.5,0.1c1.4,0,2.8-0.2,4.2-0.5
					c-0.3,0.8,0.5,1.8,1.3,1.8c-0.1,0.3-0.4,0.6-0.8,0.6c0.2,0.3,0.4,0.7,0.7,0.9c0.3,0.2,0.8,0.3,1,0c0.3-0.2,0.3-0.7,0.6-0.8
					c0.4-0.2,0.8,0.3,0.7,0.7c0,0.4-0.3,0.8-0.4,1.1c-0.3,0.8,0,1.7,0.2,2.5c0.5,1.5,1,3.1,2,4.4c0.4-0.3,0.7-0.7,1.1-1
					c0.5,0.1,0.5,0.8,0.4,1.3c-0.2,0.5-0.3,1.1,0.1,1.4c0.4,0.2,0.9-0.1,1-0.6c0.1-0.4-0.1-0.9-0.3-1.3c-0.3-0.5-0.5-1-0.7-1.5
					c-0.1-0.2-0.2-0.4-0.2-0.6c0-0.2,0.1-0.3,0.2-0.5c0.2-0.5,0.3-1.1,0.2-1.6c1.3-0.7,2.4-1.8,3.1-3.1c0.1-0.2,0.2-0.4,0.4-0.5
					c0.5-0.4,1.5,0.2,1.9-0.3c0.7,0.3,1.2,0.8,1.6,1.4c0.2,0.5,0.4,1.1,1,1.1c-0.8,0.3-1.3,1.2-1.3,2.1c0.8,0.2,1.7-0.6,1.6-1.4
					c0.3-0.2,0.7,0,0.9,0.4c0.2,0.3,0.1,0.7,0.1,1.1c-0.1,1.1-0.1,2.2-0.2,3.3c0,0.3,0,0.7,0.1,0.9c0.2,0.3,0.5,0.4,0.6,0.7
					c0.2,0.4-0.2,0.9,0.1,1.3c0.1,0.2,0.4,0.3,0.6,0.4c0.4,0.3,0.5,0.9,0.8,1.3c0.3,0.4,1,0.7,1.3,0.3c-0.7-0.5-1.1-1.4-1.1-2.2
					c0-0.2,0-0.4-0.1-0.6c-0.1-0.2-0.3-0.4-0.5-0.5c-1.1-1-0.9-2.6-0.7-4c0.5,0.7,1.3,1.2,2.1,1.4c-0.3,0.6,0,1.3,0.5,1.6
					c0-0.6,0.5-1.1,1-1.2c0.2-0.1,0.5-0.1,0.7-0.2c0.7-0.3,0.7-1.2,0.7-1.9c0-0.3,0-0.6-0.2-0.8c-0.3-0.4-0.8-0.5-1.2-0.7
					c-0.7-0.4-1.1-1.4-0.8-2.2c0.3-0.8,1.2-1.3,2-1.1c0.3,0.1,0.1,0.5-0.1,0.7c-0.2,0.2-0.6,0.3-0.7,0.6c-0.2,0.4,0.3,0.8,0.7,0.7
					c0.4-0.1,0.7-0.5,0.7-0.9c0-0.4-0.1-0.8-0.3-1.2c0.9,0.2,1.8-0.1,2.4-0.8c0.2-0.2,0.3-0.4,0.5-0.5c0.4-0.2,1-0.1,1.4-0.5
					c0.3-0.3,0.2-0.7,0.3-1c0.2-0.7,0.7-1.2,1-1.8c0.3-0.6,0.6-1.6,0.4-2.2c-0.1-0.5-0.4-0.9-0.6-1.4c-0.1-0.3-0.2-0.7-0.3-1
					c0-0.1,0-0.3,0-0.4c0.1-0.2,0.4-0.3,0.6-0.4c0.3-0.2,0.5-0.6,0.4-1c-0.9,0.3-2,0.1-2.7-0.6c0.2-0.4,0.7-0.6,1.1-0.8
					c0.4-0.2,0.8-0.5,0.8-1c0.3,0,0.5,0,0.7,0c0,0.4-0.2,0.8-0.5,1.1c0.3,0.3,0.9,0,1.3-0.2c0.4-0.2,1.1-0.2,1.1,0.2
					c0,0.4-0.6,0.7-0.5,1.1c0.5-0.2,0.9,0.5,0.7,0.9c-0.1,0.1-0.2,0.2-0.2,0.4c0,0.2,0.2,0.2,0.3,0.3c0.4,0.2,0.6,0.7,0.4,1.1
					c0.3-0.2,0.5-0.4,0.8-0.6c0.1,0.2,0.3,0.4,0.6,0.4c0.2-0.1,0.4-0.3,0.4-0.6c-0.1-0.2-0.3-0.4-0.4-0.7c-0.1-0.4,0.1-0.8,0-1.1
					c-0.1-0.3-0.4-0.4-0.6-0.6c-0.2-0.2-0.5-0.5-0.3-0.7c0.1-0.2,0.3-0.2,0.4-0.3c0.8-0.5,0.9-1.8,1.8-1.8c0.2,0,0.4,0,0.5,0
					c0.5-0.1,0.7-0.7,0.9-1.1c0.5-1,1.8-1.5,2.3-2.5c0.4-0.8,0.4-1.7,0.6-2.6c0.2-0.6,0.5-1.3,0.3-1.9c-0.3-0.8-1.5-0.9-1.9-0.2
					c0.1-0.4,0.1-0.8,0.2-1.1c-0.3,0.9-2,0.1-0.5-0.8c1-0.6,1.9-1.3,2.7-2.2c0.3-0.3,0.5-0.6,0.8-0.9c1.2-0.8,2.9,0.2,4.3-0.2
					c0,0.1,0.1,0.3,0.1,0.4c-0.4,0.2-0.8,0.3-1.1,0.5c0.8,0.4,1.7-0.5,2.5-0.5c0.3,0,0.6,0,0.6-0.2c-0.2,0-0.5-0.2-0.5-0.4
					c0-0.1,0.1-0.2,0.1-0.2c0.2-0.2,0.5-0.5,0.7-0.7c0.4-0.4,1-0.8,1.5-0.5c0.3,0.3,0.2,0.9-0.2,1c0.3,0.3,0.7,0,1-0.3
					c0.3-0.3,0.6-0.6,1-0.5c0.1-0.2,0.1-0.5,0-0.7c0.3-0.2,0.7-0.2,1-0.1c-0.2,0.2-0.3,0.4-0.4,0.7c0,0.2,0,0.3-0.1,0.5
					c-0.2,0.6-1,0.7-1.5,0.9c-1,0.5-1.3,1.7-2.2,2.4c-0.2,0.2-0.5,0.3-0.6,0.5c-0.4,0.4-0.3,1.1-0.2,1.6c0.2,0.5,0.5,1.1,0.5,1.7
					c0,0.1,0,0.2,0,0.3c0,0.4,0.4,0.6,0.7,0.3c0.1-0.1,0.1-0.1,0.2-0.2c0.3-0.3,0.6-0.7,0.8-1.1c0.1-0.3,0.2-0.7,0.4-0.8
					c0.2-0.1,0.5-0.1,0.7-0.1c0.2,0,0.5-0.3,0.4-0.5c-0.4-0.3-0.3-0.9,0.1-1.1c0.2,0.1,0.3,0.2,0.5,0.2c0.4-0.2-0.2-0.9,0-1.3
					c0.1-0.2,0.3-0.2,0.3-0.4c0-0.2-0.3-0.3-0.5-0.2c-0.1-0.7,0.3-1.5,1-1.6c0,0.1,0,0.3,0,0.4c0.3-0.2,0.7-0.4,1-0.7
					c0.1,0.2,0.1,0.3,0.2,0.5c0.4,0.2,0.7-0.7,1.2-0.6c0.1,0,0.2,0.1,0.2,0.2c0.3,0.3,0.9,0.1,0.9-0.3c0.3-1.5,2.1-1.5,3.6-1.7
					C213.3,139.2,213.8,139.1,213.7,138.7z"/>
				<path class="st19" d="M147.2,131.8c0.2-0.1,0-0.4-0.2-0.5c-0.2-0.1-0.4,0-0.6,0c-0.2,0-0.5-0.1-0.5-0.3c0-0.1,0-0.1,0-0.2
					c0.1-0.4,0.6-0.5,0.8-0.8c0.4-0.4,0.5-1.1,0.8-1.6c0.5-0.6,1.5-0.7,2.1-1.2c0.2-0.2,0.4-0.4,0.6-0.5c0.6-0.4,1.3-0.3,1.9-0.3
					c0.9,0,1.7-0.2,2.6-0.5c-0.2,0.8-1.1,1.1-1.9,1.3c-0.5,0.1-1.1,0.3-1.6,0.5c-0.7,0.2-1.3,0.5-1.9,0.9c-0.5,0.4-1,1.1-1,1.8
					c0,0.4,0.4,1.2,0.2,1.5C148.3,132.3,147.5,131.9,147.2,131.8z"/>
				<path class="st19" d="M167.6,122.3c-0.2,0.1-0.4,0.1-0.6,0.2c0.2,0.3,0.6,0.4,0.9,0.3c0.3-0.1,0.7-0.4,1-0.3
					c0.1,0.2-0.1,0.3-0.3,0.4c-0.2,0.1-0.3,0.3-0.2,0.4c0,0,0.1,0,0.1,0.1c0.7,0.2,1.5,0,2.2,0.3c0.2,0.1,0.4,0.2,0.7,0.2
					c0.2,0,0.5-0.3,0.3-0.5c-0.1-0.1-0.3-0.1-0.4-0.3c-0.1-0.3,0.6-0.4,0.4-0.6c-0.5,0-0.9,0-1.4,0c-0.2,0-0.3,0-0.4-0.2
					c0-0.1,0-0.2-0.1-0.3c-0.1-0.1-0.2-0.1-0.3-0.1c-0.2,0-0.5,0-0.7,0.1c0.5-0.1,1.2-0.3,1.8-0.5C170,121,167.9,121.1,167.6,122.3z
					"/>
				<path class="st19" d="M174,123.4c0-0.3-0.4-0.4-0.7-0.3s-0.4,0.4-0.6,0.6c-0.2,0.3-0.5,0.5-0.7,0.8c0.7-0.1,1.4-0.2,2.1-0.3
					c0.3,0,0.6-0.1,0.7-0.4c-0.3-0.2-0.6-0.3-0.9-0.3"/>
				<path class="st19" d="M192.2,127.7c0.1-0.1,0.2-0.1,0.3-0.2c0.4-0.1,0.7,0.5,1.1,0.4c0.2,0,0.3-0.2,0.5-0.3
					c0.4-0.1,0.8,0.3,1.2,0c0.5-0.3,0.3-0.6-0.1-0.7c-0.3-0.1-0.9,0-1.2-0.1c-0.3-0.1-0.5-0.2-0.8-0.4c-0.6-0.3-1.6-0.7-2.1,0.1
					C190.7,127.3,191.5,128.1,192.2,127.7z"/>
				<path class="st19" d="M197.8,127.5c-0.3-0.2-0.6-0.4-1-0.5c0,0-0.1,0-0.2,0c-0.2,0-0.3,0.2-0.2,0.4c0.1,0.2,0.2,0.3,0.4,0.3
					c0.2,0,0.4,0,0.6,0c0.4,0,0.8,0,1.2,0.1c0.1-0.2-0.2-0.5-0.4-0.5c-0.3,0-0.5,0.1-0.7,0.2"/>
				<path class="st19" d="M194.3,128.9c-0.2-0.1-0.4-0.2-0.7-0.2c-0.1,0-0.3,0-0.3,0.2c0,0.1,0.1,0.1,0.1,0.1c0.3,0.2,0.7,0.3,1,0.4
					c0.2,0,0.4,0,0.4-0.1c0-0.1,0-0.2-0.1-0.3c-0.2-0.2-0.5-0.2-0.8-0.2"/>
				<path class="st19" d="M125.3,123.8c0.3,0.2,0.7,0.2,1,0.4c0.4,0.2,0.6,0.6,0.7,1c0,0.2,0,0.5,0.2,0.7c0.2,0.3,0.7,0.3,1,0.1
					c0.3-0.2,0.4-0.6,0.4-1c0-0.3-0.1-0.6,0.2-0.8c0.1-0.1,0.2-0.1,0.3-0.2c0.2-0.1,0.5-0.2,0.7-0.1c0.2,0,0.5,0.2,0.5,0.5
					c0,0.3-0.3,0.6-0.2,0.8c0.5,0,0.9,0,1.4,0c0.2-0.2,0-0.4-0.1-0.6c-0.2-0.1-0.4-0.2-0.6-0.2c-0.2-0.1-0.4-0.3-0.3-0.5
					c0.1-0.3,0.6-0.3,0.9-0.3c0.9,0,1.7-0.8,1.7-1.7c-0.8-0.1-1.2,0.8-1.9,1c-0.6,0.2-0.9-0.1-1.4-0.1c-0.5,0.1-0.7,0.4-1.1,0.5
					c-0.6,0.2-1.1-0.2-1.8-0.3C126.2,122.9,123.9,123,125.3,123.8z"/>
				<path class="st19" d="M117.2,119.9c-0.5,0.9-1.4,1.6-2.4,1.8c-0.5,0.1-1,0.2-1.3,0.5c-0.2,0.2-0.3,0.5-0.5,0.8
					c-0.2,0.5-0.5,1.1-0.5,1.7c0,0.6,0.2,1.2,0.8,1.5c-0.7,0.4-0.8,1.6-0.1,2c-0.3,0.7-1.5,0.3-2,0.8c-0.4,0.4-0.3,1.1,0,1.6
					c0.3,0.5,0.6,1.1,0.4,1.7c-0.8-0.3-1.6-0.6-2.4-0.9c-0.3,0.6,0.6,1.4,1.2,1.1c-0.6,1.1-2.2,0.9-3.3,1.4
					c-1.2,0.5-1.8,1.9-3.1,2.5c-0.6,0.3-1.3,0.3-1.9,0.5s-1.1,0.9-0.8,1.5c0.1,0.1,0.1,0.2,0.1,0.4c0,0.1-0.1,0.2-0.2,0.3
					c-1,0.8-1,2.3-0.9,3.6c-0.3,0.3-0.8-0.1-1-0.5c-0.2-0.4-0.3-0.9-0.7-1.1c-0.4-0.2-0.9-0.1-1.3-0.3c-0.4-0.1-0.6-0.5-0.8-0.8
					c-0.4-0.6-0.8-1.2-1.2-1.9c-0.3-0.5-0.7-1.1-0.8-1.7c-0.1-0.6,0.1-1.3,0.7-1.6c0.4-0.2,1-0.5,0.7-0.8c-0.1-0.1-0.2-0.1-0.3-0.1
					c-0.7-0.3-1.4-0.5-2.1-0.8c0.3-0.9,1.3-1.4,2.2-1.2c0.3-0.5-0.4-1.1-1-1.1c-0.6,0-1.3,0.2-1.8-0.1c0.5-0.6,0.4-1.6,0.1-2.2
					c-0.4-0.7-1-1.2-1.8-1.5c-0.3-0.1-0.7-0.3-1-0.3c-0.6,0-1.1,0.2-1.6,0.3c-0.8,0-1.5-0.5-2-1.2c-0.5-0.6-0.7-1.4-0.9-2.2
					c0.6,0.4,1.5,0.4,2.1-0.1c0.6-0.4,0.8-1.3,0.4-1.9c0.8-0.2,1.6-0.4,2.4-0.5c0.2,0,0.4-0.1,0.6-0.2c0.2-0.1,0.4-0.4,0.6-0.5
					c0.4-0.3,0.9-0.4,1.4-0.5c1.4-0.2,2.7-0.3,4.1-0.5c0.3,0,0.5-0.1,0.8,0c0.7,0.2,1.3,1,1.9,0.6c0-0.3-0.1-0.5-0.2-0.7
					c0.8-0.3,1.6-0.2,2.5-0.2c1.7,0,3.4-0.4,5-0.4c1.7,0,3.3,0.3,4.8,1c-0.5,0.4-1.1,0.6-1.7,0.7c0.4,0,0.8,0,1.2,0.2
					c-0.3-0.1-1.6,0.9-1.8,1.1c0.7,0.6,2.3-0.6,3-0.9C114.2,120.1,115.6,119.7,117.2,119.9z"/>
				<path class="st19" d="M55.9,131.7c-1.8,0.7-3.6,1.5-5.6,1.5c-0.8,0-1.7-0.2-2.5-0.3c-1.8-0.3-3.6-0.7-5.3-1.4
					c-0.4-0.2-0.9-0.4-1.4-0.5c-0.5,0-1.1,0.2-1.6,0.4c-1.5,0.7-2.8,1.7-4,2.9c1.2,0.2,2.3,0.9,3,1.8c-0.6,0.3-1.3,0-1.6-0.5
					c-0.8-0.2-1.6,0.4-1.7,1.2c-0.1,0.8,0.7,1.5,1.5,1.5c0.3-0.4,0.7-0.6,1.2-0.7c0.2,0.4,0.4,0.7,0.7,1.1c-0.4,0.5-1,0.5-1.6,0.6
					c-0.6,0.1-1.2,0.5-1.2,1.1c0.1,1,2,1.1,1.9,2.1c0-0.3,3.9-0.6,2,1.6c-0.3,0.4-0.7,0.6-1.2,0.6c0.1,0.4,0.1,0.8-0.2,1.1
					c-0.3,0.3-0.8,0.2-0.9-0.2c-0.3,0.6-1.1,0.8-1.8,0.9c-0.1,0.3-0.2,0.6-0.3,0.9c-0.1-0.4-0.5-0.6-0.8-0.4s-0.3,0.7-0.1,0.9
					c0.3,0.2,0.6,0.2,1,0.1c0.1,0,0.3-0.1,0.3-0.2c0-0.1,0-0.2,0-0.2c0-0.4,0.3-0.7,0.7-0.8c0.4-0.1,0.7-0.1,1.1-0.2
					c0.6-0.1,1.2-0.5,1.6-0.9c0.5-0.4,1-0.9,1.6-1.2c0.2-0.1,0.5-0.2,0.7-0.4c1.6-1,0.6-2.7,3-3c0,0.3-0.2,0.7-0.5,0.8
					c0.8,0.6,1.6-1.2,2.5-0.9c0.3,0.1,0.4,0.3,0.6,0.5c0.4,0.3,0.9,0.3,1.4,0.3c2,0.2,3.8,1.6,4.4,3.5c0.9-0.3,1.6,0.7,2,1.5
					c0.7,1.3,1.4,2.6,2.1,3.9c0.5,0.8,0.9,1.7,1.1,2.6c0.3,1.3,0.2,2.7,0.5,4c0.3,1.3,1.3,2.7,2.7,2.6c0.2,2.1,0.8,4.1,1.8,5.9
					c-0.5,0.5,0.3,1.2,0.9,1.3c0.6,0.2,1.5,0.7,1.2,1.3c0.7-0.8-0.2-2.1-1.1-2.7c-0.9-0.6-2-1.7-1.4-2.7c0.3-0.3,0.9,0.1,1,0.5
					c0.1,0.4,0.1,0.9,0.4,1.2c0.3,0.3,0.7,0.4,1,0.6c1.2,0.7,0.9,2.7,2.1,3.5c0.4,0.3,1,0.3,1.4,0.7c0.3,0.3,0.4,0.6,0.6,0.9
					c0.6,1.1,1.8,1.8,3,2.4c0.3,0.2,0.7,0.3,1,0.5c1.9,1,3.9,1.9,5.8,2.9c0.2,0.1,0.4,0.2,0.6,0.1c0.8-0.3-0.8-1.7-0.2-2.3
					c-0.9-0.5-1.9-0.9-2.8-1.4c0.6-0.5,0.7-1.5,0.2-2.2c0.4-0.1,0.6-0.4,0.7-0.7c-0.4-0.4-1.2-0.1-1.5,0.4c-0.3,0.5-0.5,1.1-0.9,1.6
					c-1,0.9-2.7-0.1-3.1-1.4s0.1-2.7,0.2-4.1c0.1-0.5,0.1-1.2,0.5-1.5c1-0.8,2.5,0.9,3.6,0.3c0.4-0.2,0.7-0.7,1.1-0.9
					c0.7-0.4,1.7,0,2.2,0.6c0.5,0.7,0.6,1.5,0.8,2.4c0.2,0.4,0.9,0,0.8-0.5s-0.4-0.8-0.7-1.2c-0.6-1-0.3-2.4,0.6-3.1
					c0.8-0.6,2.2-0.8,2.3-1.8c0-0.7-0.6-1.2-0.6-1.9c0-0.6,0.4-1.1,0.8-1.5c1.2-1.2,2.3-2.3,3.5-3.5c0.3-0.3,0.6-0.6,1-0.5
					c0.4,0,0.6,0.7,0.2,0.8c1.4,0.1,3.2-0.3,3.3-1.6c-0.6,0.5-1.2,0.9-1.9,1.1c-0.1-0.6,0.1-1.3,0.5-1.8c-0.5-0.9-1.7-1.1-2.7-0.8
					c-1,0.3-1.7,1-2.5,1.7c1.1-1.3,2.6-2.4,4.3-2.6c0.6-0.1,1.3,0,1.9-0.4c0.8-0.5,1.5-1.6,2.3-1.2c-0.6,1-1.1,2-1.7,3
					c0.6,0,1.2-0.1,1.9-0.1c0.3,0.4,0.4,0.9,0.3,1.4c0.8-0.1,1.8-0.6,1.5-1.2c-0.2-0.3-0.6-0.4-0.9-0.7c-0.8-0.7-0.2-2.1-0.6-3
					c-0.2-0.5-0.7-0.8-1.1-1.2c-1.7-1.4-3.1-3.3-3.9-5.4c-0.2,0.5-0.4,1-0.8,1.3c-0.4,0.3-1.1,0.3-1.4-0.1c-0.2-0.2-0.1-0.6-0.2-0.8
					c-0.2-0.6-0.8-1-1.4-1.4c-0.7-0.4-1.5-0.9-2.3-0.6c-0.8,0.3-0.9,1.6-0.1,1.8c-0.7,0-0.7,1.2-0.3,1.8c0.4,0.6,1,1.4,0.6,2
					c-0.4,0.6-1.3,0.5-1.6,1.1c-0.4,0.5,0,1.2,0.3,1.8c0.3,0.6,0.3,1.5-0.4,1.6c-0.5,0.1-0.9-0.5-1-1c-0.2-0.8,0-1.8-0.4-2.5
					c-0.4-0.8-1.7-1.1-2.1-0.4c-0.2-0.8-0.8-1.4-1.6-1.7c-0.6-0.2-1.3-0.1-1.9-0.4c-0.9-0.4-1.3-1.4-1.6-2.4
					c1.2-0.7,2.4-1.4,2.9-2.6c0.1-0.3,0.2-0.7,0.5-0.9c0.2-0.2,0.6-0.3,0.8-0.5c0.3-0.2,0.4-0.6,0.2-0.8c0.3-0.2,0.8-0.3,1.1-0.2
					c0.7,0.9-1.4,2.5-0.4,3c0.5,0.3,1.1-0.3,1.4-0.9c0.4,0.2,0.8,0.3,1.3,0.5c0.5-0.4-0.1-1.3-0.7-1.6c-0.6-0.3-1.4-0.9-1.1-1.5
					c0.6,0,1.1,0,1.7,0c0-0.5-0.3-1.1-0.8-1.2c0.3-0.4,0.6-0.9,0.9-1.3c-0.3-0.3-0.7-0.4-1.1-0.3c1.1-0.2,2.2-0.5,3.3-1
					c0.8,1,1.6,2,2.4,3c0.1,0.2,0.2,0.3,0.2,0.6c0,0.4-0.5,0.6-0.9,0.9c-0.4,0.2-0.6,0.9-0.2,1c-0.1,0.3-0.6,0.3-0.8,0.1
					c-0.3-0.2-0.5-0.5-0.9-0.5c-0.6,0-0.5,1.2,0.1,1.3c0.6,0.2,1.2-0.2,1.7-0.6c1.2,1.1,2.6,1.9,4.1,2.4c-0.6-0.1-1.1-0.8-0.9-1.4
					c0.7,0.2,1.4,0.5,2,0.9c0.5-0.6-0.1-1.5-0.8-2c-0.7-0.4-1.5-1-1.4-1.8c0.9,0,1.8,0.5,2.2,1.3c0.3-0.5,0.7-1,1-1.4
					c-0.4-1.3-2.8-0.9-3.1-2.2c0-0.2,0-0.5-0.2-0.7c-0.2-0.3-0.7-0.2-1.1-0.2c-1.4,0-2.2-2.3-3.5-1.8c0.5-1-1-2.3-1.9-1.6
					c0.5,0.2,1,0.4,1.2,0.9c0.2,0.5-0.3,1.2-0.8,0.9c-0.5-0.3-0.2-1-0.5-1.4c-0.3-0.6-1.2-0.4-1.6,0.1c-0.4,0.5-0.3,1.2-0.2,1.8
					c-0.3,0-0.6,0-0.9,0c-0.1-0.9,0.1-1.7,0.5-2.5c-0.4-0.5-1.2,0-1.6,0.5c-0.4,0.5-0.8,1.1-1,1.8c-0.1,0.7,0.1,1.5,0.8,1.7
					c0.4,0.2,0.9,0.1,1.3,0.2c0.9,0.4,0.6,2.1-0.4,2.1c-0.3-0.5-0.5-1.1-0.5-1.7c-0.5,0.1-0.9,0.4-1.3,0.7c-0.5-1.2-1.2-2.3-2-3.3
					c0.2-0.4,0.4-0.8,0.6-1.1c0.8,0.3,1.8-0.5,1.6-1.4c-0.7-0.2-1.4-0.4-2-0.2c-0.7,0.2-1.3,0.8-1.2,1.4c0.1,0.4,0.3,0.7,0.5,1.1
					c0.1,0.4-0.1,1-0.5,0.9c-0.2,1,1.8,1,1.9,2c0.1,0.7-0.9,1-1.6,1c0.2,0.7,0.2,1.4-0.1,2.1c-0.5-1-0.2-2.3,0.6-3
					c-0.5-0.8-1.7-1.1-2.5-0.5c0.3,0.5,0.8,0.8,1.3,0.9c-0.3,0.3-0.6,0.7-0.8,1c-0.6-0.4-1.4-0.1-2.2-0.1c-0.7,0-1.7-0.8-1.1-1.3
					c-0.5-0.3-1.1-0.4-1.5-0.1c-0.4,0.3-0.5,1.1,0,1.3c-1,0.3-2.6-1.6-3.4-0.2c-0.5-1.4-1.2-1.9-2.6-1.9c-0.9,0-3.8-0.8-4.2,0
					C56.2,132.7,55.8,131.7,55.9,131.7z"/>
				<path class="st19" d="M58.5,128c-0.5,0.1-0.8,0.7-0.9,1.2c-0.1,0.5,0,1.1-0.3,1.6c-0.1,0.1-0.2,0.2-0.2,0.4
					c-0.1,0.4,0.4,0.6,0.8,0.6c1.1-0.2,1.8-1.7,2.9-1.5c0,0.3,0,0.6,0,0.9c0.7,0,1.5-0.1,2.1-0.3c0.2,0.1,0.1,0.5-0.1,0.6
					c-0.2,0.1-0.5,0.1-0.7,0.1c-0.3,0-0.5,0.2-0.6,0.4c0.5-0.1,1-0.3,1.5-0.2c0.5,0.1,1,0.5,1,1c-0.7,0-1.4,0-2.1,0.1
					c0.4,0.5,1.1,0.4,1.7,0.5c0.6,0.1,1.3,0.5,1.1,1.1c0.8-0.8,2.1-1.1,3.2-0.7c0.3,0.1,0.5,0.3,0.8,0.3s0.6,0,0.8-0.3
					c0.2-0.2,0-0.7-0.3-0.6c0.4-0.1,0.7-0.4,0.8-0.7c-0.6,0.2-1.4-0.1-1.7-0.8c-0.2-0.6-0.1-1.3-0.5-1.8c0.4,0.1,0.7-0.3,0.7-0.7
					c-0.1-0.4-0.5-0.6-0.9-0.6c-0.3,0-0.5,0.1-0.7,0.3c-0.2,0.2-0.1,0.5,0.1,0.7c-0.3-0.1-0.6-0.3-0.9-0.4c-0.1,0.7,1.3,1.2,1,1.8
					c-0.2,0.4-0.9,0.2-1-0.3c-0.1-0.3,0-0.7-0.3-0.8c-0.5-0.3-0.9,1.1-1.4,0.8c0-0.3,0.1-0.6,0.1-0.9c-0.7-0.1-1.3,0.2-1.8,0.6
					c0.1-0.3,0.1-0.6,0.2-0.9c-0.7-0.4-1.4,1-2.2,0.7c0.7,0.3,2.4-1.2,1.1-1.8c-0.3-0.1-1,0.1-1.3,0.1
					C59.8,128.3,59.1,127.9,58.5,128z"/>
				<path class="st19" d="M61.7,124.9c-0.5-0.3-1.1,0-1.6,0.4c-0.4,0.4-0.8,0.8-1.3,1.1c-0.2,0.1-0.5,0.2-0.7,0.4
					c0.9,0,1.7-0.1,2.6-0.2c0,0.3-0.2,0.6-0.4,0.8c0.4,0.1,0.7-0.4,0.8-0.8c0-0.1,0-0.3,0.1-0.4c0.1-0.1,0.2-0.1,0.3-0.1
					c0.4-0.1,0.7-0.4,0.6-0.8c0-0.4-0.5-0.6-0.8-0.4"/>
				<path class="st19" d="M64.4,127.3c0.1-0.1,0.2-0.2,0.1-0.3c-0.5,0-1-0.4-1.1-1c-0.3-0.2-0.8,0-0.9,0.3c-0.1,0.3,0.1,0.8,0.5,0.8
					c-0.5,0.2-1,0.4-1.5,0.7c1,0.5,2.1-0.6,3.2-0.4c0,0.1,0,0.3,0,0.4c-0.5,0-0.9,0.2-1.2,0.6c0.8,0.1,1.6-0.1,2.3-0.6
					c0.2-0.1,0.4-0.3,0.6-0.3c0.2,0,0.4,0,0.6,0.1c0.5,0.1,1.1-0.2,1.1-0.7c-0.3-0.1-0.7-0.1-1-0.1c-0.1-0.6-0.9-1-1.4-0.8
					c0,0.4,0.2,0.8,0.5,1.1c-0.3,0.3-0.8,0.3-1.2,0.1c-0.2-0.1-0.3-0.3-0.5-0.3c-0.2,0-0.5,0.2-0.6,0"/>
				<path class="st19" d="M65,124.2c-0.8-0.1-1.6,0-2.4,0.4c0.4,0.2,0.8,0.4,1.2,0.5c0.1,0,0.2,0.1,0.3,0.1c0.1,0,0.2,0,0.2-0.1
					c0.4-0.2,0.8-0.3,1.1-0.5c-0.1-0.1-0.1-0.2-0.2-0.3c0.2,0.1,0.4-0.1,0.4-0.3c0-0.2-0.2-0.4-0.4-0.4c-0.2-0.1-0.4,0-0.6,0
					c-0.2,0.1-0.5,0.1-0.7,0.2c0.1,0.2,0.3,0.4,0.6,0.5c0,0.1,0,0.2,0,0.3"/>
				<path class="st19" d="M70.6,124.3c-0.2,0-0.3-0.2-0.3-0.4c0-0.2,0-0.4-0.1-0.5c-0.2-0.4-0.8-0.1-1.2-0.2c-0.3,0-0.5-0.2-0.7-0.3
					c-0.2-0.1-0.6,0-0.6,0.2c-0.1,0.3,0.3,0.5,0.5,0.5c0.3,0,0.6-0.1,0.8,0c0.1,0,0.1,0,0.1,0.1c0.2,0.3-0.5,0.5-0.5,0.8
					c0,0.2,0.2,0.2,0.4,0.2c0.2,0,0.5,0.1,0.7,0.1c0.3,0,0.5,0,0.7-0.1c0.2-0.2,0.2-0.5,0-0.6"/>
				<path class="st19" d="M71.9,126.9c0.1-0.2,0.1-0.4-0.1-0.6c-0.2-0.1-0.4-0.1-0.6-0.1c-0.6,0-1.3,0.1-1.9,0.2
					c-0.2,0.1-0.4,0.1-0.6,0.1c-0.2,0-0.4-0.2-0.3-0.4c-0.3,0.3,0.1,0.8,0.4,0.9c0.4,0.1,0.8,0,1.2,0c0.4,0,0.9,0.3,0.8,0.7
					c0,0.1,0,0.2,0,0.3c0,0.1,0.2,0.1,0.3,0.1C71.6,128,72,127.4,71.9,126.9c-0.2,0.1-0.4,0-0.4-0.1c0.2-0.1,0.4-0.3,0.5-0.5
					c-0.4-0.2-0.9-0.1-1.3,0.1"/>
				<path class="st19" d="M71.7,129.1c0.2-0.2,0.1-0.6-0.2-0.6c-0.3-0.1-0.5,0.1-0.7,0.2c0,0.2,0,0.4,0,0.7c-0.3-0.1-0.5,0-0.8,0.1
					c0.4,0.1,0.7,0.4,0.8,0.8c-0.4,0.2-0.9,0.1-1.1-0.3c-0.1-0.2-0.1-0.4-0.3-0.5c-0.3-0.1-0.4,0.3-0.3,0.6c0.3,0.7,1.4,0.6,1.9,1.1
					c0.2,0.2,0.5,0.4,0.7,0.2c0.1-0.2,0-0.4-0.2-0.5c0.2,0,0.4,0,0.6,0c0.2-0.1,0.3-0.3,0.2-0.5c-0.1-0.1-0.1-0.1-0.2-0.2
					C71.7,129.9,71.6,129.4,71.7,129.1c0,0-0.1-0.1-0.3-0.1"/>
				<path class="st19" d="M81.7,127.2c-0.7-0.4-1.5-0.5-2.3-0.3c-0.6,0.1-1.1,0.4-1.7,0.5c-0.8,0.1-1.7-0.5-2.1-1.2
					c0.6-0.4,1.6,0.4,2.3,0c0.2-0.1,0.3-0.3,0.5-0.4c0.2-0.1,0.5-0.1,0.7,0c1.1,0.2,2.2,0.4,3.2,0.6c0.1-0.5-0.3-1-0.7-1
					c0.6-0.2,1.1-0.5,1.7-0.7c0.3-0.1,0.6-0.2,0.7-0.5c0.2-0.3,0-0.7-0.3-0.7c1.3-0.5,2.6-1,3.8-1.7c-0.1-0.2-0.2-0.4-0.4-0.6
					c0.8,0.1,1.7-0.2,2.4-0.7c-0.9-0.1-1.9,0-2.8,0.3c1.6,0.2,3.2-0.1,4.6-0.7c-0.5-0.4-1.4,0.1-1.9-0.3c-0.2-0.1-0.2-0.3-0.4-0.5
					c-0.2-0.2-0.5-0.2-0.7-0.2c-2.6-0.1-5.1-0.1-7.7,0.2c-0.4,0-0.9,0.2-1,0.6c-0.6,0-1.2-0.1-1.8-0.1c-0.4,0.6-1.3,0.8-2,0.5
					c-0.2,0.2-0.3,0.5-0.5,0.7c0.4,0.3,1,0.4,1.5,0.4c0.3,0.6,1.3,0.8,1.8,0.3c0.2,0.7,1.3,0.6,2,0.2c0.6-0.4,1.5-0.9,2.1-0.4
					c-0.8,0.6-1.8,0.9-2.9,0.9c0.3,0.3,0.5,0.6,0.8,0.9c-0.6,0-1.2-0.4-1.7-0.7c-0.5-0.3-1.3-0.5-1.8-0.2c0.5,0.4,0.9,0.7,1.4,1.1
					c-1.3-0.7-2.5-1.3-3.8-2c-0.4-0.2-0.8-0.4-1.2-0.2c-0.4,0.1-0.5,0.8-0.1,0.9c-0.3,0.1-0.6,0.3-0.7,0.6c0.7,0.1,1.5,0.3,2.2,0.6
					c-0.3,0.1-0.6,0.2-0.9,0.3c0.7,0.2,1.4,0.5,2.2,0.7c0.1,0,0.3,0.1,0.4,0c0.1-0.1,0.2-0.2,0.3-0.4c0.2-0.4,0.8-0.6,1.2-0.3
					c-0.1,0.2-0.2,0.4-0.3,0.7c0.3,0,0.7,0,1,0c0,0.2,0,0.4,0,0.6c0.5,0.1,1,0.1,1.5,0c-0.2,0.7-1.1,0.7-1.7,0.4
					c-0.6-0.3-1.1-0.9-1.7-1.1c0.2,0.5,0.5,0.9,1,1.3c-0.9-0.1-1.8-0.1-2.6,0.3c-0.1-0.2-0.2-0.4-0.2-0.5c-0.7,0.3-0.6,1.3-0.4,2
					c0.1,0.2,0.1,0.4,0.3,0.6c0.3,0.4,0.9,0.4,1.4,0.4c0.7,0,1.5,0,2.2,0.1C79.4,128.3,81.7,128.8,81.7,127.2z"/>
				<path class="st19" d="M73.5,126.4c0.2-0.1,0.6,0,0.7-0.3c0.1-0.2-0.1-0.3-0.3-0.4c-0.2-0.1-0.4-0.2-0.3-0.4
					c-0.1,0-0.3,0-0.4-0.1c0.3-0.1,0.6-0.2,0.9-0.2c0.1,0,0.3-0.1,0.2-0.2c0,0-0.1,0-0.1-0.1c-0.2,0-0.4-0.1-0.6-0.2
					c-0.2-0.1-0.3-0.4-0.1-0.5c-0.1,0-0.2,0-0.3,0c0-0.1,0-0.2,0-0.3c-0.6,0-1.1-0.1-1.7-0.1c-0.1,0.4,0.3,0.8,0.7,0.7
					c0.1,0,0.1,0,0.2,0c0,0,0.1,0.1,0.1,0.1c0.1,0.1,0.3,0.2,0.4,0.1c0,0.1-0.1,0.2-0.2,0.3c0.2,0.1,0.4,0.2,0.6,0.2
					c-0.2,0.1-0.3,0.2-0.5,0.3c0.1,0.1,0.2,0.1,0.2,0.2c-0.2,0-0.4,0-0.6,0c-0.1,0.2,0.1,0.4,0.3,0.5c0.2,0.1,1.2,0.7,0.6,1
					c-0.4,0.2-0.5-0.4-0.4-0.6c0.2,0.5,0.1,1.1,0.5,1.5c0.3,0.3,0.6,0.3,0.9,0C74.6,127.2,73.6,127,73.5,126.4z"/>
			</g>
		</g>
	</g>
	<g>
		<defs>
			<rect id="SVGID_00000160173305973832587970000015139098978314555069_" x="-144.6" y="1.8" width="49.4" height="75.3"/>
		</defs>
		<clipPath id="SVGID_00000182488254028185509060000001915090633530283958_">
			<use xlink:href="#SVGID_00000160173305973832587970000015139098978314555069_"  style="overflow:visible;"/>
		</clipPath>
		<g style="clip-path:url(#SVGID_00000182488254028185509060000001915090633530283958_);">
			<path class="st19" d="M28.3,29.5c0-0.1-0.1-0.2-0.2-0.3c-0.7-0.6-1.4-1.1-2.2-1.5c0.5,0,1-0.1,1.4-0.3c0.4-0.2,0.8-0.7,0.7-1.2
				c-0.1-0.8-1.3-1.3-1.2-2.2c0.1-0.4,0.4-0.8,0.2-1.1c-0.1-0.2-0.4-0.3-0.7-0.3c-1.4-0.2-2.8-0.4-4.2-0.6c0.1,0.5-0.1,1.1-0.5,1.4
				c-0.4,0.3-1.2,0.2-1.4-0.3c-0.1-0.2-0.1-0.4-0.2-0.5c-0.2-0.3-0.7-0.1-1.1,0c-0.8,0.3-1.7,0.3-2.6,0c-0.2-0.1-0.3-0.2-0.4-0.3
				c-0.1-0.2,0.1-0.5,0.1-0.7c0-0.4-0.4-0.8-0.9-0.8c-0.4,0-0.8,0.1-1.3,0.3c-1.2,0.4-2.6,0.4-3.6-0.3c-0.3-0.2-0.5-0.5-0.8-0.7
				c-0.4-0.3-1-0.3-1.5-0.4c-1.3-0.1-2.7-0.3-4-0.4c-0.1,0-0.3,0-0.4,0.1c-0.2,0.1-0.1,0.4-0.2,0.6c-0.1,0.4-0.6,0.6-1,0.6
				c-0.4,0-0.8-0.1-1.2,0c-0.3,0-0.6,0.1-0.9,0.1c-0.3,0-0.6-0.2-0.6-0.5c-0.4,0.2-0.6,0.7-0.7,1.1c-0.8,0.1-1.8-0.5-1.6-1.2
				c0-0.2,0.2-0.4,0.2-0.6c0.1-1.2-3-1.5-3.7-1c-0.2,0.1-0.3,0.3-0.5,0.5c-0.8,0.7-2.1,0.4-2.6-0.5c-1.1-0.1-2.2-0.1-3.3,0
				c-0.4-0.8-1.6-0.4-2.3,0.1c-0.7,0.5-1.8,0.9-2.4,0.3c1.9-0.4,3.6-1.3,5.1-2.4c0.2-0.1,0.3-0.3,0.3-0.5c0-0.1-0.1-0.2-0.2-0.3
				c-0.7-0.5-1.5-0.7-2.4-0.7c-0.6,0-1.3,0.1-1.7-0.3c-0.2-0.3-0.3-0.7-0.6-1c-0.3-0.2-0.7-0.2-1-0.1c-0.8,0.1-1.6,0.3-2.4,0.4
				c-0.1,0-0.3,0.1-0.3,0.1c-0.1,0.1-0.1,0.3-0.1,0.5c-0.1,1-1.4,1.8-2.3,1.3c-0.3-0.2-0.5-0.4-0.9-0.5c-0.4-0.1-0.8,0-1.2,0.2
				c-1.6,0.6-3.3,1.1-4.9,1.7c0.4,0.3,1,0.4,1.5,0.3c0.2,0.3-0.2,0.5-0.6,0.6c-1.3,0.3-2.5,0.5-3.8,0.8c0.7,0.5,1.4,1.1,2.1,1.7
				c0.3-0.2,0.6,0.4,0.5,0.7c-0.1,0.4-0.3,0.8-0.1,1.1c-0.4-0.1-0.7-0.4-0.9-0.8c0.2-0.1,0.4-0.3,0.6-0.4c-0.4,0.1-0.9-0.2-1-0.6
				c-0.8-0.2-1.6-0.5-2.2-1c-0.1,0.3,0,0.7,0.4,0.8c-0.3,0-0.6,0.1-0.9,0.1c0.1,0.5,0.5,0.8,1,0.9c-0.6,0.2-1.2,0-1.7-0.4
				c0.4-0.7-0.2-1.7-1-1.6c0.5,0.1,0.5,0.7,0.3,1.1c-0.2,0.4-0.6,0.8-0.5,1.2c0,0.6,0.5,1.2,0.1,1.6c0.5,0.4,1.5-0.4,1.9,0.2
				c0.1,0.2,0.2,0.4,0.2,0.6c0.2,0.6,0.8,1,1.5,0.9c-0.4,0.6-1.2,0-1.6-0.5c-0.4-0.6-1.3-1.1-1.6-0.5c-0.1,0.2-0.1,0.4-0.1,0.6
				c0,1.6-1.9,2.9-3.4,2.3c0.6-0.7,1.9-0.4,2.3-1.2c0.2-0.3,0.1-0.7,0.1-1.1c-0.2-1.2-0.3-2.4-0.5-3.5c0.1-0.5,0.1-1.1,0.1-1.7
				c-0.6,0.2-1.6,0.2-1.6-0.5c-0.5,0.9-1.1,1.8-1.6,2.6c-0.3,0.5-0.6,1.4,0,1.6c0.4-0.2,0.8,0.2,0.9,0.5c0.1,0.4,0,0.8-0.2,1.1
				c-0.8-2.2-4.8-1.2-5.9-3.3c-0.5,0.2,0,0.9,0.4,1.1c0.5,0.2,1.2,0.5,1,1c-0.1,0.4-0.7,0.4-1.1,0.4c-1.2-0.1-2.3,0.2-3.4,0.8
				c-0.1-0.4-0.2-0.8-0.3-1.2c-0.8,0.6-1.7,1.2-2.5,1.8c-0.4,0.3-0.8,0.6-1.4,0.6c-0.5,0.1-1.1-0.3-1.1-0.7c-0.1-0.5,0.7-0.9,1-0.6
				c0.1-0.9-1.1-1.7-1.9-1.1c0.5,0.8,0.5,2,0,2.8c-0.2,0.3-0.5,0.6-0.8,0.7c-0.4,0.1-0.8-0.3-0.7-0.6c-0.5,0.4-0.7,1-0.7,1.6
				c-0.7,0.2-1.6,0-2.1-0.7c0.1,0.4,0.1,0.7,0.2,1.1c-0.5,0.6-1.7,0.2-1.8-0.6c0-0.2,0-0.5,0-0.7c0-0.8-0.7-1.4-1.3-1.9
				c1,0.4,1.9,0.7,2.9,1.1c0.5,0.2,1.1,0.4,1.7,0.3c0.8-0.2,1.4-1.3,0.6-1.8c-1.3-1-2.8-1.8-4.4-2.3c-0.5-0.1-1-0.2-1.4-0.1
				c-0.4,0.1-0.9,0.4-1.1,0c0.4,0.1,0.8-0.1,1-0.4c-0.8-0.2-1.6-0.3-2.4-0.3c-0.9,0.8-1.5,2-1.3,3.1c0.4,1.8,2.7,3.3,1.9,4.9
				c0.8-0.2,1.6-0.4,2.4-0.2c0.4,0.1,0.8,0.4,1.1,0.7c0,0,0,0,0-0.1c0.2-0.1,0.5-0.2,0.7-0.1c0.2,0.1,0.4,0.3,0.3,0.6
				c-0.1,0.2-0.3,0.3-0.2,0.4c0.1,0.1,0.2,0.1,0.3,0.1c0.3,0.1,0.5,0.5,0.3,0.7c-0.4,0-0.8,0-1.3-0.1c-0.1,0.3-0.3,0.6-0.5,0.9
				c-0.6,1.3-0.2,2.8-0.1,4.2c0,0.7-0.1,1.5-0.5,2.1c0.1,0,0.2,0,0.3-0.1c1.6-0.3,3.4,0.1,4.4,1.4c1,1.3,0.6,3.5-0.8,4.1
				c-0.6,0.2-1.2,0.2-1.8,0.5c-0.2,0.1-0.4,0.4-0.4,0.6c1-0.5,2-1.1,3.1-1.3c-0.2,0.5-0.7,0.9-1.3,1c0.2,0.1,0.1,0.4-0.1,0.5
				c-0.2,0.1-0.4,0.1-0.6,0.1c-0.2,0-0.4-0.1-0.6,0c-0.2,0-0.3,0.2-0.4,0.4c0,0.1-0.1,0.2-0.1,0.3c0,0.1,0,0.1,0,0.2
				c0.6-0.5,1.4-0.5,2,0c0.2,0.2,0.4,0.4,0.6,0.6c0.3,0.2,0.6,0.3,0.8,0.5c0.2,0.2,0.1,0.7-0.2,0.7c0,0.2,0.2,0.3,0.3,0.3
				s0.3,0,0.5,0.1c0.3,0.2,0.3,0.7,0,0.9c-0.3,0.2-0.7,0.2-1,0.2c-0.9,0-1.9,0-2.7-0.4c-0.4-0.2-0.8-0.4-1.2-0.6
				c-0.4-0.1-0.9-0.2-1.2,0.1c-0.2,0.1-0.3,0.3-0.4,0.5c-0.4,0.3-1,0.4-1.4,0.1c-0.3-0.2-0.5-0.7-0.4-1.1c-0.4,0.4-0.7,0.8-1,1.3
				c0.2,0.6,0.4,1.2,0.6,1.7c0.1,0.2,0.1,0.4,0.2,0.6c0.2,0.6,0.5,1.2,1.1,1.3c0.8,0.1,1.5-1,2.1-0.1c0.1,0.2,0.2,0.4,0.2,0.6
				c0,0.4,0.6,1,0.9,0.6c0-0.3-0.1-0.6,0.1-0.9c0.1-0.3,0.5-0.4,0.8-0.3c0.2,0.1,0.2,0.4,0.2,0.6c0,0.3,0,0.6,0,0.9
				c-0.1,0.7-0.4,1.5-1,1.9c-0.5,0.3-1.2,0.5-0.8,1.2c0.1,0.1,0.5,0,0.6,0.1c0.2,0.3,0.1,0.6,0.1,1c0.1,0.8,1,1.2,1.5,1.8
				c0.7,0.9,0.5,2.1,0.9,3.1c0.7,2.1,3.4,3.5,3.2,5.7c-0.1,0.9-0.5,2,0.2,2.5c0.5,0.3,1.1,0.1,1.7-0.2c1-0.5,2-0.9,3-1.4
				c0.4-0.2,0.8-0.4,1-0.8c0.1-0.2,0.1-0.5,0.3-0.6c0.2-0.3,0.6-0.3,0.9-0.4c0.7-0.2,1.2-0.9,1.6-1.6c0.4-0.7,0.7-1.5,0.9-2.3
				c0.1-0.2,0.1-0.4,0.1-0.7c-0.2-0.8-1.6-0.9-1.7-1.7c0-0.3,0.2-0.6,0.3-1c0.1-0.3,0-0.8-0.4-0.8c-0.2,0.6-0.4,1.2-0.9,1.7
				c-0.5,0.4-1.2,0.6-1.7,0.2c-0.4-0.3-0.5-0.8-0.7-1.2c-0.4-0.6-1.1-1-1.4-1.6c-0.3-0.6,0.2-1.7,0.8-1.4c0.3,1.2,1.2,2.3,2.2,2.9
				c0.7-0.2,1.3-0.5,1.9-0.9c0.3-0.2,0.7,0.2,0.7,0.6c0,0.4,0,0.9,0.3,1.1c0.2,0.1,0.4,0.1,0.6,0.1c1.6,0,3.3-0.2,4.9-0.6
				c-0.3,1,0.6,2.1,1.6,2c-0.1,0.4-0.5,0.7-0.9,0.7c0.2,0.4,0.4,0.8,0.8,1c0.4,0.3,0.9,0.3,1.2,0c0.3-0.3,0.3-0.8,0.7-1
				c0.4-0.2,0.9,0.4,0.8,0.8c0,0.5-0.3,0.9-0.5,1.3c-0.3,0.9,0,1.9,0.3,2.8c0.6,1.8,1.2,3.6,2.3,5.1c0.4-0.4,0.8-0.8,1.3-1.2
				c0.6,0.1,0.6,0.9,0.4,1.5c-0.2,0.5-0.4,1.3,0.1,1.6c0.4,0.3,1-0.2,1.1-0.7c0.1-0.5-0.1-1-0.4-1.5c-0.3-0.6-0.6-1.2-0.9-1.8
				c-0.1-0.2-0.2-0.4-0.2-0.7c0-0.2,0.1-0.4,0.2-0.6c0.3-0.6,0.3-1.2,0.2-1.9c1.5-0.8,2.8-2,3.6-3.6c0.1-0.2,0.2-0.5,0.4-0.6
				c0.6-0.5,1.7,0.2,2.2-0.4c0.8,0.3,1.4,0.9,1.8,1.6c0.3,0.5,0.5,1.3,1.1,1.3c-0.9,0.4-1.6,1.4-1.5,2.4c0.9,0.2,2-0.6,1.9-1.6
				c0.4-0.2,0.8,0,1,0.4c0.2,0.4,0.2,0.8,0.1,1.2c-0.1,1.3-0.1,2.5-0.2,3.8c0,0.4,0,0.8,0.2,1.1c0.2,0.3,0.6,0.5,0.7,0.8
				c0.2,0.5-0.2,1.1,0.1,1.5c0.1,0.2,0.4,0.3,0.6,0.5c0.5,0.4,0.6,1,1,1.5c0.3,0.5,1.1,0.8,1.5,0.3c-0.8-0.6-1.3-1.6-1.3-2.5
				c0-0.2,0-0.5-0.1-0.7c-0.1-0.3-0.4-0.4-0.6-0.6c-1.2-1.1-1.1-3-0.8-4.7c0.6,0.8,1.5,1.4,2.5,1.6c-0.3,0.7,0,1.5,0.6,1.9
				c0-0.6,0.5-1.2,1.1-1.4c0.3-0.1,0.6-0.1,0.8-0.2c0.8-0.3,0.8-1.4,0.8-2.2c0-0.3,0-0.7-0.2-0.9c-0.3-0.4-0.9-0.6-1.4-0.8
				c-0.8-0.5-1.2-1.6-0.9-2.5c0.3-0.9,1.4-1.5,2.3-1.3c0.3,0.1,0.2,0.6-0.1,0.8c-0.3,0.2-0.6,0.3-0.8,0.6c-0.2,0.4,0.4,0.9,0.8,0.8
				c0.5-0.1,0.8-0.6,0.8-1.1c0-0.5-0.1-0.9-0.3-1.4c1,0.2,2.1-0.1,2.8-0.9c0.2-0.2,0.4-0.5,0.6-0.6c0.5-0.3,1.2-0.1,1.6-0.5
				c0.3-0.3,0.3-0.8,0.4-1.2c0.2-0.8,0.8-1.4,1.1-2.1c0.4-0.7,0.7-1.8,0.5-2.6C-7.2,57-7.5,56.5-7.7,56c-0.1-0.4-0.2-0.8-0.3-1.2
				c0-0.2,0-0.4,0-0.5c0.1-0.3,0.5-0.3,0.7-0.5c0.4-0.2,0.6-0.7,0.5-1.2C-7.8,53-9,52.7-9.8,51.9c0.2-0.5,0.8-0.7,1.2-0.9
				c0.5-0.2,0.9-0.6,0.9-1.2c0.3,0,0.6,0,0.9,0c0,0.5-0.2,0.9-0.6,1.2c0.4,0.3,1,0,1.5-0.2c0.5-0.2,1.2-0.2,1.3,0.3
				c0.1,0.5-0.7,0.8-0.6,1.3c0.5-0.2,1.1,0.5,0.8,1c-0.1,0.1-0.2,0.3-0.2,0.4c0,0.2,0.2,0.3,0.4,0.3c0.4,0.2,0.6,0.9,0.4,1.3
				c0.3-0.2,0.6-0.5,0.9-0.7c0.1,0.3,0.4,0.5,0.7,0.4c0.3-0.1,0.5-0.4,0.4-0.7c-0.1-0.3-0.3-0.5-0.4-0.8c-0.1-0.4,0.2-0.9,0-1.3
				c-0.1-0.3-0.5-0.5-0.7-0.7s-0.5-0.6-0.4-0.9c0.1-0.2,0.3-0.3,0.5-0.4c0.9-0.5,1.1-2.1,2.1-2.1c0.2,0,0.4,0.1,0.6,0
				c0.6-0.1,0.8-0.8,1.1-1.3c0.6-1.2,2-1.7,2.7-2.9c0.5-0.9,0.4-2,0.7-3c0.2-0.7,0.6-1.4,0.4-2.1c-0.3-0.9-1.7-1-2.2-0.3
				c0.1-0.4,0.2-0.9,0.3-1.3c-0.3,1-2.4,0.1-0.6-0.9c1.2-0.6,2.3-1.5,3.1-2.6c0.3-0.4,0.6-0.7,0.9-1c1.4-0.9,3.3,0.2,5-0.2
				c0.1,0.2,0.1,0.3,0.2,0.5c-0.4,0.2-0.9,0.4-1.3,0.6c0.9,0.4,1.9-0.6,2.9-0.6c0.3,0,0.7,0,0.7-0.3c-0.3,0-0.6-0.2-0.6-0.5
				c0-0.1,0.1-0.2,0.2-0.3c0.3-0.3,0.5-0.6,0.8-0.8c0.4-0.5,1.2-1,1.7-0.6c0.4,0.3,0.2,1.1-0.3,1.2c0.3,0.3,0.9,0,1.2-0.3
				c0.3-0.3,0.7-0.7,1.2-0.5c0.1-0.2,0.1-0.5,0-0.8c0.3-0.2,0.8-0.2,1.1-0.1c-0.2,0.2-0.4,0.5-0.4,0.8c0,0.2,0,0.4-0.1,0.6
				c-0.2,0.7-1.1,0.8-1.8,1.1c-1.1,0.5-1.5,2-2.5,2.7c-0.3,0.2-0.5,0.3-0.7,0.5c-0.4,0.5-0.4,1.3-0.2,1.9c0.2,0.6,0.6,1.2,0.6,1.9
				c0,0.1,0,0.3,0,0.4c0,0.4,0.5,0.7,0.8,0.4c0.1-0.1,0.2-0.2,0.2-0.2c0.4-0.4,0.7-0.8,0.9-1.2c0.1-0.3,0.2-0.8,0.5-0.9
				c0.2-0.1,0.5-0.1,0.8-0.1c0.3,0,0.5-0.3,0.4-0.5c-0.4-0.3-0.4-1.1,0.1-1.3c0.2,0.1,0.4,0.2,0.6,0.3c0.5-0.2-0.2-1,0-1.5
				c0.1-0.2,0.3-0.3,0.3-0.5c0-0.3-0.4-0.3-0.6-0.3c-0.2-0.8,0.4-1.7,1.2-1.9c0,0.2,0,0.3,0,0.5c0.4-0.3,0.8-0.5,1.2-0.8
				c0.1,0.2,0.1,0.4,0.2,0.6c0.5,0.2,0.8-0.8,1.3-0.6c0.1,0,0.2,0.1,0.3,0.2c0.4,0.3,1,0.1,1.1-0.4c0.4-1.7,2.4-1.8,4.2-1.9
				C27.8,30.1,28.4,29.9,28.3,29.5z"/>
			<path class="st19" d="M-1.1,56.9c0-0.4,0.1-0.8,0.4-1c0.1,0.2,0.3,0.5,0.5,0.6C0,56.5,0.1,56.2,0.2,56c0.1-0.2,0.3-0.4,0.5-0.4
				c0.2,0,0.5,0.2,0.4,0.4c0.6,0.2,1-0.6,1.6-1c0.3-0.2,0.7-0.2,1-0.3c0.3-0.1,0.7-0.3,0.7-0.6c0-0.2-0.1-0.4-0.1-0.6
				c0-0.4,0.3-0.8,0.5-1.2c0.4-0.7,0.4-1.5,0-2.2c-0.2-0.4-0.5-0.7-0.6-1.1c-0.1-0.4,0.1-0.9,0.5-0.9C5,48.6,5.2,49,5.5,49.1
				c0.3,0.1,0.8-0.3,0.5-0.6c0.4-0.1,0.8-0.1,1.2-0.1c0.2-0.2,0.1-0.6-0.1-0.8c1.2-0.4,2.3-1.3,3.1-2.3C9.2,46,8,46.7,6.9,47.4
				c-0.1,0.1-0.3,0.2-0.4,0.1c-0.1-0.1-0.2-0.2-0.3-0.3c-0.3-0.6-0.9-0.9-1.6-0.9c0.1,0.5,0.1,1.1,0.2,1.6c-0.4-0.1-0.7,0.3-0.8,0.7
				c-0.1,0.4,0,0.8,0,1.2c0.1,1.4-0.5,2.8-1.7,3.6c0-0.2,0-0.4,0-0.7c-0.6,0.1-0.3,1.2-0.9,1.5c-0.1,0.1-0.3,0.1-0.5,0.1
				c-0.8,0.1-0.8,0.9-1.7,0.6c-0.1,1.1-1.5,0.9-1.4,2C-2.1,57.7-1.2,58.4-1.1,56.9z"/>
			<path class="st19" d="M6.2,39.6c0,0.1,0,0.2,0,0.2c0,0.2-0.1,0.3-0.2,0.4C6,40.6,6.2,40.8,6.4,41c0.2,0.2,0.4,0.3,0.6,0.6
				C7.1,42,7,42.5,7.3,42.9c-0.1,0.2-0.4,0.2-0.6,0c-0.2-0.1-0.4-0.3-0.7-0.2c-0.3,0.4-0.1,0.9,0.1,1.3c0.2,0.4,0.5,0.8,0.4,1.3
				c0,0.2-0.2,0.5-0.4,0.4c-0.1,0-0.1-0.1-0.2-0.1c-0.3-0.3-0.6-0.6-0.6-0.9c0-0.3,0.1-0.6,0.1-0.8c0.1-0.6,0.2-1.1,0.1-1.7
				c0-0.2-0.1-0.5-0.1-0.7c0-0.5,0.3-1,0-1.3c-0.1-0.1-0.2-0.2-0.2-0.4c0.1-0.2,0.6-0.7,0.8-0.9C6.2,39,6.2,39.3,6.2,39.6z"/>
			<path class="st19" d="M-0.9,81.5c-0.3,0-0.7,0-0.9-0.2c-0.2,0.2-0.1,0.6,0.2,0.7c0.3,0.2,0.6,0.2,0.8,0.3
				c0.3,0.1,0.5,0.5,0.3,0.7c0.2,0.1,0.4,0.1,0.6,0.2c0,0.2-0.2,0.3-0.3,0.5c-0.2,0.1-0.3,0.4-0.1,0.5c0.1,0.2,0.3,0.1,0.5,0.1
				c0.2-0.1,0.4-0.2,0.5-0.2c0.1,0,0.2,0.1,0.3,0.2c0.4,0.4,0.9,0.5,1.4,0.7c0.5,0.2,0.9,0.8,0.6,1.3c-0.1,0.2-0.3,0.3-0.4,0.4
				c-0.1,0.2-0.2,0.4-0.1,0.5c0.4,0,0.8-0.1,1.2-0.4c0.3,0.4,0.7,0.7,1.2,0.8c0.5,0.1,1.1-0.1,1.3-0.6c0-0.1,0.1-0.2,0.1-0.3
				c0.1-0.1,0.3-0.1,0.4,0c0.4,0.1,0.8,0.3,1.2,0.4c0.1,0,0.2,0.1,0.2,0.1c0,0.1,0,0.2,0,0.3C8,88.3,8.6,88.5,9,88.6
				c0.6,0.1,1.2,0.2,1.8,0.2c0-0.3-0.3-0.5-0.6-0.6c-0.3-0.1-0.6-0.1-0.8-0.3c-0.3-0.2-0.3-0.7-0.6-0.9c-0.2-0.2-0.6-0.3-0.5-0.5
				c0.1-0.3,0.5-0.2,0.6-0.5c0.1-0.2-0.1-0.3-0.2-0.4c-0.2-0.1-0.3,0-0.5-0.1c-0.4-0.1-0.8-0.5-0.8-0.9c0-0.2,0-0.3-0.1-0.5
				c-0.1-0.2-0.4-0.3-0.6-0.4c-1.3-0.4-2.5-0.8-3.8-1.2c-0.2-0.1-0.4-0.1-0.6-0.1c-0.5,0.2-0.4,1-0.9,1.1c-0.3,0-0.5-0.2-0.7-0.4
				c-0.2-0.2-0.4-0.5-0.5-0.7c0-0.2,0.2-0.4,0.2-0.5C0.4,81.4-0.4,81.5-0.9,81.5z"/>
			<path class="st19" d="M8.9,85.5c0,0.1,0.1,0.1,0.2,0.1c0.5,0.1,1.1,0.1,1.6-0.2c0.2-0.1,0.3-0.2,0.5-0.2c0.1,0,0.2,0,0.3,0
				c0.1,0,0.2-0.1,0.3-0.2c0-0.1-0.1-0.2,0-0.3c0.1-0.1,0.2-0.1,0.3-0.1c0.1-0.1,0-0.2-0.1-0.3c-0.4-0.4-0.8-0.8-1.2-1.1
				c0,0.5,0.3,1.1-0.1,1.6C10.4,84.9,8.8,85.3,8.9,85.5z"/>
			<path class="st19" d="M14,87.1c0.2,0.1,0.4,0.1,0.6,0.2c0.2,0.1,0.4,0.2,0.4,0.4c0,0,0,0,0,0c-0.1-0.5-0.6-0.8-1-1.1
				c-0.1,0-0.1-0.1-0.2-0.1C13.8,86.4,13.2,86.8,14,87.1z"/>
			<path class="st19" d="M19.4,97c0-0.2-0.1-0.4-0.3-0.6c-0.1-0.2-0.4-0.3-0.6-0.2c-0.2,0.4,0.1,0.9,0.5,1.1
				c0.3,0.2,0.6,0.3,0.8,0.4C19.6,97.7,19.5,97.3,19.4,97z"/>
			<path class="st19" d="M20.7,93.3c0.2,0.4,0.3,0.9,0.4,1.3c0.2-0.1,0.3-0.4,0.1-0.6c0.1,0.1,0.1,0.4,0.2,0.5
				c0.1,0.5,0.5,0.9,1,1.1c0.1-0.1,0-0.3-0.1-0.5c-0.1-0.1-0.3-0.2-0.4-0.3c-0.2-0.2-0.4-0.5-0.4-0.8c0-0.3,0-0.6-0.2-0.8
				c0,0.1-0.1,0.2-0.1,0.4c-0.1,0-0.1-0.1-0.1-0.1c-0.2-0.4,0-1-0.4-1.3c-0.1,0.2-0.2,0.4-0.4,0.4C20.2,92.8,20.5,93,20.7,93.3z"/>
			<path class="st19" d="M15.7,87.2c0.3,0.1,0.7,0.1,0.9,0.3c0.2,0.2,0.2,0.6,0.3,0.8c0.1,0.1,0.2,0.2,0.3,0.3
				c0.1,0.1,0.1,0.3,0,0.4c-0.1,0.1-0.4,0.1-0.4-0.1s-0.1-0.3-0.1-0.5c0-0.2-0.1-0.4-0.3-0.4c-0.2-0.1-0.4,0-0.5-0.1
				c0,0-0.1-0.1-0.1-0.2c-0.2-0.4-0.7-0.7-0.8-1.1C15.2,86.8,15.4,87.1,15.7,87.2z"/>
			<path class="st19" d="M0.8,85.3c0.2,0.1,0.3,0.3,0.3,0.5c0,0.2-0.2,0.4-0.4,0.4C0.8,85.9,0.8,85.6,0.8,85.3"/>
			<path class="st19" d="M-1,89.9c-0.1-0.3-0.6-0.4-0.9-0.3c0.3,0.2,0.3,0.7,0.1,0.9c-0.1,0.1-0.3,0.2-0.4,0.3
				c-0.4,0.3-0.5,1.1,0,1.5c-0.2,0.1-0.4,0.2-0.6,0.3c-0.1-0.5-0.6-1-1.1-1.2c-0.7,0.4-1.3,1.2-1.5,2c-0.1,0-0.2,0-0.2,0
				c0,0.2-0.1,0.5-0.1,0.7c-0.2-0.2-0.3-0.6-0.2-0.9c-0.4,0.1-0.7,0.5-0.8,1C-7,94.7-7,95.2-7.4,95.5c-0.2,0.2-0.6,0.3-0.9,0.4
				c-0.5,0.1-0.9,0.3-1.4,0.4c-0.4,0.1-0.8,0.3-1,0.6c-0.2,0.3-0.3,0.7-0.6,0.7c-0.1,0-0.2-0.1-0.4-0.2c-0.3-0.1-0.5,0.2-0.5,0.5
				c0,0.3,0.1,0.6,0.2,0.8c0.1,0.3,0.1,0.6-0.2,0.8c0.3,0,0.5,0.1,0.7,0.3c0.2,0.2,0.2,0.5,0,0.7c-0.2,0.2-0.6,0.1-0.6-0.2
				c0.6,1.6,1,3.2,1.2,4.9c0.1,0.7,0.1,1.4-0.2,2c0.6,0.4,1.4,0.5,2,0.1c0.3-0.2,0.6-0.5,1-0.7c0.6-0.3,1.4-0.1,2.1-0.3
				c0.6-0.2,1.1-0.7,1.7-0.8c0.5-0.1,1,0.1,1.4-0.2c0.2-0.1,0.3-0.3,0.5-0.4c0.2-0.1,0.5-0.2,0.7-0.2c1-0.1,2,0.6,2.3,1.6
				c0.1,0.2,0.1,0.5,0.2,0.7c0.1,0.2,0.3,0.4,0.6,0.4c0.1-0.8,0.8-1.4,1.6-1.4c0,0.2-0.1,0.5-0.3,0.6c-0.2,0.2-0.4,0.3-0.5,0.5
				c-0.1,0.2,0,0.6,0.3,0.6c0.1-0.2,0.3-0.5,0.5-0.6c0.4,0.4,0.2,1.1-0.3,1.3c0.5-0.1,1.2-0.2,1.3,0.3c0,0.1,0,0.3,0,0.4
				c0.1,0.7,0.9,1.2,1.5,1.5c0.1,0.1,0.3,0.1,0.4,0.1c0.3,0,0.4-0.3,0.5-0.5c0.2-0.2,0.5-0.4,0.7-0.2c0.2,0.1,0.1,0.4,0.2,0.6
				c0.2,0.2,0.6,0.1,0.8-0.1c0.2-0.2,0.3-0.5,0.6-0.7c0.5-0.3,1.4-0.1,1.5-0.6c0.1-0.3-0.2-0.6-0.3-0.9c-0.1-0.5,0.2-0.9,0.5-1.3
				c0.3-0.3,0.8-0.6,1-1.1c0.3-0.7,0-1.6,0.1-2.4c0.1-0.8,0.8-1.6,0.4-2.4c-0.1-0.3-0.4-0.5-0.5-0.8c-0.1-0.3-0.1-0.6-0.3-0.9
				c-0.1-0.2-0.3-0.2-0.5-0.3c-0.5-0.4-0.5-1.1-0.7-1.8c-0.4-1.1-1.4-1.9-2.2-2.8c-0.1-0.2-0.3-0.4-0.3-0.6c-0.1-0.2,0-0.5-0.1-0.8
				c0-0.6-0.4-1.2-1-1.5c-0.1-0.1-0.2-0.1-0.3-0.2c-0.1-0.2-0.1-0.4-0.1-0.6c0-0.7-0.3-1.4-0.8-2c-0.3,1.6-0.6,3.2-1,4.8
				c-0.2,0.1-0.4,0.2-0.6,0.3c-0.1-0.4-0.2-0.8-0.3-1.2c-0.5,0-0.9,0-1.3-0.2c-0.4-0.2-0.7-0.7-0.5-1.1c0.1-0.2,0.3-0.5,0.2-0.7
				c0.4,0.2,0.8-0.5,0.5-0.8c-0.5-0.5-1,0.2-1.5,0.2C0.2,90.4-0.4,89.5-1,89.9z"/>
			<line class="st19" x1="6.6" y1="95.5" x2="6.7" y2="95.4"/>
			<path class="st19" d="M7.7,114.7c0,0.1,0,0.3,0.1,0.3c0,0,0.1,0,0.1,0c0.3,0,0.8,0,0.9-0.3c0.1-0.3-0.1-0.6,0-0.8
				c0-0.1,0.1-0.2,0.1-0.2c0.1-0.2,0.2-0.4,0.1-0.7s-0.3-0.4-0.5-0.4c-0.1,0-0.2,0.1-0.3,0.1c-0.4,0.1-1.5-0.7-1.4,0.2
				c0,0.3,0.4,0.5,0.6,0.8C7.6,114,7.7,114.3,7.7,114.7z"/>
			<path class="st19" d="M20.5,116.3c-0.3,0.1-0.5,0.1-0.8,0.3c-0.2,0.2-0.3,0.5-0.1,0.7c0.2,0.1,0.4,0.1,0.6,0.1
				c0.4,0.1,0.5,0.8,0.4,1.2c0.3,0.1,0.7-0.1,0.8-0.4c0.2-0.3,0.3-0.6,0.6-0.8c0.2-0.1,0.4-0.1,0.6-0.3c0.2-0.2,0.1-0.6,0.1-0.9
				c0.2-0.8,1.3-0.8,1.6-1.6c0.2-0.5,0.6-1.5,0-1.6C22.9,112.7,21.9,115.8,20.5,116.3z"/>
			<path class="st19" d="M25.3,113.5c0,0,0,0.1,0,0.1c0.1,0.1,0.2,0.1,0.3,0c0.4-0.4,0.2-1.1,0.5-1.6c0.1-0.2,0.3-0.3,0.4-0.4
				c0.5-0.4,0.8-1,0.8-1.6c-0.2,0.1-0.4,0.2-0.7,0.3c-0.2,0-0.5,0-0.7-0.2c-0.2-0.2-0.1-0.6-0.3-0.9c-0.2-0.3-0.6-0.3-0.9-0.6
				c-0.2-0.2-0.2-0.6-0.3-0.9c0-0.3-0.2-0.7-0.5-0.7c-0.6,0.7,0.6,1.7,0.8,2.3c0.2,0.6-0.2,0.8-0.4,1.3c-0.3,0.5-0.4,0.9,0.1,1.4
				c0.3,0.3,0.6-0.1,0.9,0.3C25.5,112.4,25.3,113.2,25.3,113.5z"/>
			<path class="st19" d="M3.5,16.7c0.1-0.1,0.2-0.1,0.3-0.2c0.5-0.1,0.8,0.5,1.3,0.4c0.2,0,0.3-0.2,0.5-0.3c0.4-0.2,0.9,0.3,1.3,0
				c0.5-0.4,0.3-0.7-0.1-0.9c-0.4-0.2-1,0-1.4-0.1c-0.3-0.1-0.6-0.3-0.9-0.4c-0.7-0.3-1.9-0.8-2.4,0.1C1.7,16.3,2.7,17.2,3.5,16.7z"
				/>
			<path class="st19" d="M10,16.5c-0.3-0.3-0.7-0.5-1.1-0.6c-0.1,0-0.1,0-0.2,0c-0.2,0-0.3,0.3-0.3,0.5c0.1,0.2,0.3,0.3,0.5,0.4
				c0.2,0,0.4,0,0.6,0c0.4,0,0.9,0,1.3,0.1c0.1-0.3-0.2-0.6-0.5-0.6c-0.3,0-0.6,0.1-0.8,0.2"/>
			<path class="st19" d="M5.8,18.1c-0.2-0.1-0.5-0.2-0.8-0.2c-0.1,0-0.4,0-0.3,0.2c0,0.1,0.1,0.1,0.1,0.1c0.4,0.2,0.8,0.4,1.2,0.5
				c0.2,0.1,0.5,0.1,0.5-0.1c0-0.1,0-0.3-0.2-0.4C6.1,18,5.8,17.9,5.5,18"/>
		</g>
		
			<use xlink:href="#SVGID_00000160173305973832587970000015139098978314555069_"  style="overflow:visible;fill:none;stroke:#158864;stroke-miterlimit:10;"/>
	</g>
	<g>
		<g>
			<circle class="st9" cx="163.9" cy="105.7" r="2"/>
			<path class="st9" d="M160.3,110.5c0.6-1.3,2-2.3,3.6-2.3s3,0.9,3.6,2.3"/>
		</g>
		<g>
			<line class="st9" x1="170.5" y1="117.4" x2="157.4" y2="117.4"/>
			<path class="st19" d="M158.9,117.4v-6.2c0-0.3,0.2-0.6,0.6-0.6h8.8c0.3,0,0.6,0.2,0.6,0.6v6.2"/>
		</g>
	</g>
	<rect x="150.3" y="97" class="st9" width="27.2" height="27.2"/>
	<line class="st9" x1="150.3" y1="113.5" x2="158.9" y2="113.5"/>
	<line class="st9" x1="169" y1="113.5" x2="177.5" y2="113.5"/>
	<g>
		<line class="st9" x1="156.9" y1="103.9" x2="134.4" y2="81.3"/>
		<line class="st9" x1="147.5" y1="103.9" x2="134.4" y2="90.8"/>
		<line class="st9" x1="138" y1="103.9" x2="134.4" y2="100.3"/>
	</g>
	<polygon class="st9" points="156.9,37.4 156.9,103.9 82.2,103.9 82.2,29.2 148.4,29.2 148.4,37.4 	"/>
	<rect x="43.6" y="83.5" class="st9" width="43.4" height="43.4"/>
	<polygon class="st9" points="148.4,1.5 148.4,29.2 156.9,29.2 156.9,37.4 191.8,37.4 191.8,1.5 	"/>
	<g>
		<path class="st19" d="M184.1,21.2L184.1,21.2c0-1.4-0.5-2.6-1.3-3.6c-0.2-0.2-0.3-0.4-0.5-0.6c-0.7-0.7-1.6-1.1-2.6-1.3
			c0-0.6-0.1-1.2-0.2-1.7c-0.4-1.5-1.1-2.7-2.1-3.8c-1-1-2.3-1.8-3.7-2.2c-0.7-0.2-1.4-0.3-2.2-0.3c-3.5,0-6.3,2-7.7,5
			c-0.2,0-0.5-0.1-0.7-0.1c-1.8,0-3.4,1.4-3.4,3.4c-1,0.4-1.9,1.1-2.6,2c-0.6,0.9-1,2-1,3.2c0,1.2,0.4,2.4,1.1,3.3
			c0,0,0,0.1,0.1,0.1c0.7,0.9,1.8,1.6,3,2l0.9,0l5.9,0.1l5.9,0l5.6,0.1h0.3C181.6,26.6,184,24.1,184.1,21.2z"/>
	</g>
	<line class="st9" x1="134.4" y1="51.8" x2="102" y2="84.1"/>
	<line class="st9" x1="148.8" y1="37.4" x2="143.9" y2="42.2"/>
	<line class="st9" x1="184.6" y1="1.5" x2="176.5" y2="9.6"/>
	<line class="st9" x1="159.8" y1="26.3" x2="156.9" y2="29.2"/>
	<line class="st9" x1="164.8" y1="26.5" x2="156.9" y2="34.4"/>
	<line class="st9" x1="189.8" y1="1.5" x2="178.9" y2="12.5"/>
	<line class="st9" x1="191.8" y1="4.7" x2="180.5" y2="16"/>
	<line class="st9" x1="170" y1="26.5" x2="159.1" y2="37.4"/>
	<line class="st9" x1="175.1" y1="26.6" x2="164.3" y2="37.4"/>
	<line class="st9" x1="191.8" y1="9.9" x2="183.3" y2="18.4"/>
	<line class="st9" x1="191.8" y1="15.1" x2="183.6" y2="23.2"/>
	<line class="st9" x1="180.9" y1="25.9" x2="169.5" y2="37.4"/>
	<line class="st9" x1="191.8" y1="20.3" x2="174.7" y2="37.4"/>
	<line class="st9" x1="191.8" y1="25.5" x2="179.9" y2="37.4"/>
	<line class="st9" x1="191.8" y1="30.6" x2="185.1" y2="37.4"/>
	<line class="st9" x1="191.8" y1="35.8" x2="190.3" y2="37.4"/>
	<line class="st9" x1="156.1" y1="20.3" x2="148.4" y2="28.1"/>
	<line class="st9" x1="175" y1="1.5" x2="168.1" y2="8.3"/>
	<line class="st9" x1="165.4" y1="1.5" x2="148.4" y2="18.5"/>
	<line class="st9" x1="155.7" y1="1.5" x2="148.4" y2="8.9"/>
	<line class="st9" x1="82.2" y1="104.3" x2="79.3" y2="107.2"/>
	<line class="st9" x1="67.5" y1="116.1" x2="56.7" y2="126.9"/>
	<path class="st9" d="M71.2,116.1c0,0-10.8,10.8-10.8,10.8"/>
	<line class="st9" x1="64" y1="126.9" x2="75" y2="115.9"/>
	<line class="st9" x1="81.7" y1="112.9" x2="67.7" y2="126.9"/>
	<line class="st9" x1="85.4" y1="112.9" x2="71.4" y2="126.9"/>
	<line class="st9" x1="87" y1="114.9" x2="75" y2="126.9"/>
	<line class="st9" x1="87" y1="118.6" x2="78.7" y2="126.9"/>
	<line class="st9" x1="87" y1="122.2" x2="82.3" y2="126.9"/>
	<g>
		<line class="st9" x1="104.8" y1="81.3" x2="82.9" y2="103.3"/>
		<line class="st9" x1="104.8" y1="84.1" x2="85.6" y2="103.3"/>
		<line class="st9" x1="104.8" y1="86.9" x2="88.3" y2="103.4"/>
		<line class="st9" x1="104.8" y1="89.8" x2="91.1" y2="103.5"/>
		<line class="st9" x1="104.8" y1="92.6" x2="93.8" y2="103.6"/>
		<line class="st9" x1="104.8" y1="95.4" x2="96.5" y2="103.7"/>
		<line class="st9" x1="104.8" y1="98.2" x2="99.3" y2="103.8"/>
		<line class="st9" x1="104.8" y1="101" x2="102" y2="103.9"/>
	</g>
	<line class="st9" x1="47.3" y1="112.9" x2="43.6" y2="112.9"/>
	<line class="st9" x1="86.8" y1="112.9" x2="77.6" y2="112.9"/>
	<rect x="82.3" y="83.5" class="st11" width="4.4" height="20.3"/>
	<rect x="148.4" y="29.2" class="st11" width="8.6" height="8.6"/>
	<g>
		<g>
			<line class="st9" x1="71.1" y1="18.9" x2="74.4" y2="22.2"/>
			<line class="st9" x1="68.4" y1="18.9" x2="74.4" y2="24.9"/>
			<line class="st9" x1="65.6" y1="18.9" x2="74.4" y2="27.7"/>
			<line class="st9" x1="62.9" y1="18.9" x2="74.4" y2="30.4"/>
			<line class="st9" x1="60.2" y1="18.9" x2="74.4" y2="33.1"/>
			<line class="st9" x1="57.5" y1="18.9" x2="74.4" y2="35.9"/>
			<line class="st9" x1="54.7" y1="18.9" x2="74.4" y2="38.6"/>
			<line class="st9" x1="52" y1="18.9" x2="74.4" y2="41.3"/>
			<line class="st9" x1="49.3" y1="18.9" x2="74.4" y2="44.1"/>
			<line class="st9" x1="46.5" y1="18.9" x2="74.4" y2="46.8"/>
			<line class="st9" x1="43.8" y1="18.9" x2="74.4" y2="49.5"/>
			<line class="st9" x1="41.1" y1="18.9" x2="74.4" y2="52.3"/>
			<line class="st9" x1="38.4" y1="18.9" x2="74.4" y2="55"/>
			<line class="st9" x1="35.6" y1="18.9" x2="74.4" y2="57.7"/>
			<line class="st9" x1="32.9" y1="18.9" x2="74.5" y2="60.5"/>
		</g>
		<g>
			<circle class="st4" cx="53.7" cy="39.7" r="20.8"/>
			<path class="st61" d="M43.9,46.8c-1.5-2-2.4-4.5-2.4-7.2c0-6.8,5.5-12.2,12.2-12.2c6.7,0,12.2,5.5,12.2,12.2
				c0,6.7-5.5,12.2-12.2,12.2c-2.7,0-5.2-0.9-7.2-2.4"/>
			<g>
				<path class="st61" d="M48,56.5c-2.1-0.7-3.9-1.7-5.6-3.1"/>
				<path class="st61" d="M48.9,53.8c-1.6-0.5-3.1-1.4-4.4-2.4"/>
				<path class="st61" d="M50.6,48.5c-0.8-0.3-1.5-0.7-2.2-1.1"/>
				<path class="st61" d="M51.4,45.8c-0.3-0.1-0.7-0.3-0.9-0.4"/>
			</g>
			<path class="st61" d="M56.4,60.1c0.2,0,0.5-0.1,0.7-0.1c0.6-0.1,1.2-0.2,1.8-0.4c0.2-0.1,0.5-0.1,0.7-0.2
				c0.2-0.1,0.4-0.1,0.7-0.2c0.4-0.1,0.9-0.3,1.3-0.5c0.3-0.1,0.6-0.2,0.8-0.4c0.2-0.1,0.4-0.2,0.6-0.3c0,0,0.1,0,0.1-0.1
				c0.3-0.1,0.6-0.3,0.9-0.5c0.2-0.1,0.5-0.3,0.7-0.5c0.2-0.2,0.5-0.3,0.8-0.5c0.4-0.3,0.9-0.6,1.3-1c0.2-0.1,0.3-0.3,0.5-0.4
				c0.3-0.3,0.7-0.6,1-0.9c0.3-0.3,0.6-0.6,0.9-1c0.2-0.2,0.3-0.3,0.4-0.5c0.3-0.4,0.7-0.8,1-1.3c0.2-0.2,0.3-0.5,0.5-0.8
				c0.2-0.2,0.3-0.5,0.5-0.7c0.2-0.3,0.3-0.6,0.5-0.9c0,0,0-0.1,0.1-0.1c0.1-0.2,0.2-0.4,0.3-0.6c0.1-0.3,0.2-0.5,0.4-0.8
				c0.2-0.4,0.3-0.8,0.5-1.3c0.1-0.2,0.1-0.4,0.2-0.7c0.1-0.2,0.1-0.4,0.2-0.7c0.2-0.6,0.3-1.2,0.4-1.8c0-0.2,0.1-0.5,0.1-0.7"/>
			<path class="st61" d="M40.4,55.5c0.2,0.2,0.4,0.3,0.6,0.5c0,0,0,0,0,0c0.2,0.2,0.5,0.4,0.7,0.5c0,0,0,0,0,0c0,0,0.1,0.1,0.1,0.1
				c0,0,0,0,0,0c0,0,0.1,0,0.1,0.1c0.3,0.2,0.7,0.5,1,0.7c0.1,0.1,0.2,0.1,0.3,0.2c0.3,0.1,0.5,0.3,0.8,0.4c0.3,0.1,0.5,0.3,0.8,0.4
				c0.2,0.1,0.4,0.2,0.7,0.3c0,0,0.1,0,0.1,0c0.3,0.1,0.6,0.3,0.9,0.4c0.3,0.1,0.5,0.2,0.8,0.3c0.1,0,0.1,0,0.2,0.1c0,0,0,0,0,0
				c0.2,0.1,0.5,0.2,0.8,0.2c0.3,0.1,0.5,0.1,0.8,0.2c0.1,0,0.2,0.1,0.3,0.1c0.1,0,0.3,0.1,0.4,0.1c0,0,0.1,0,0.1,0
				c0.1,0,0.1,0,0.2,0c0.1,0,0.2,0,0.4,0.1c0.2,0,0.4,0.1,0.5,0.1c0,0,0,0,0.1,0"/>
			<path class="st61" d="M33.2,36.8c0-0.2,0.1-0.5,0.1-0.7c0-0.3,0.1-0.6,0.2-0.8c0.3-1.2,0.6-2.4,1.1-3.6c0.1-0.3,0.2-0.6,0.4-0.8
				c0.1-0.3,0.3-0.6,0.4-0.9c0.1-0.2,0.2-0.3,0.3-0.5c0.1-0.2,0.2-0.4,0.3-0.5c0.2-0.3,0.3-0.5,0.5-0.8c0.4-0.6,0.8-1.1,1.2-1.6
				c0.2-0.3,0.4-0.5,0.6-0.8c0.5-0.5,0.9-1,1.4-1.4c0.2-0.2,0.5-0.4,0.8-0.6c0.2-0.2,0.4-0.4,0.7-0.5c0,0,0.1-0.1,0.1-0.1
				c0.2-0.1,0.3-0.3,0.5-0.4c0.2-0.1,0.4-0.3,0.6-0.4c0.2-0.1,0.4-0.3,0.6-0.4c0.3-0.2,0.5-0.3,0.8-0.5c0.2-0.1,0.4-0.2,0.6-0.3
				c0.6-0.3,1.3-0.6,1.9-0.8c0.3-0.1,0.7-0.2,1-0.3c0.3-0.1,0.7-0.2,1-0.3c0.3-0.1,0.6-0.2,0.9-0.2c0.3-0.1,0.6-0.1,0.9-0.2
				c0.2,0,0.5-0.1,0.7-0.1"/>
			<path class="st61" d="M56.4,19.1c0.2,0,0.5,0.1,0.7,0.1c0.3,0.1,0.6,0.1,0.9,0.2c0.6,0.1,1.2,0.3,1.8,0.5c0.5,0.2,1,0.3,1.5,0.5
				c0.2,0.1,0.5,0.2,0.7,0.3c0.5,0.2,0.9,0.4,1.4,0.7c0.2,0.1,0.5,0.2,0.7,0.4c0.2,0.1,0.4,0.2,0.6,0.3c0.2,0.2,0.5,0.3,0.7,0.5
				c0.2,0.1,0.4,0.3,0.6,0.4c0.1,0.1,0.2,0.2,0.4,0.3c0.5,0.3,0.9,0.7,1.3,1.1c0,0,0,0,0.1,0.1c0.2,0.2,0.4,0.4,0.7,0.6
				c0.2,0.2,0.5,0.5,0.7,0.7c0.2,0.2,0.4,0.5,0.6,0.8c0.4,0.5,0.7,0.9,1.1,1.4c0.1,0.1,0.2,0.3,0.3,0.4c0.2,0.3,0.4,0.6,0.6,1
				c0.1,0.3,0.3,0.5,0.4,0.8c0,0,0,0,0,0c0.1,0.2,0.3,0.5,0.4,0.8c0.5,1.1,0.9,2.3,1.3,3.5c0.1,0.3,0.1,0.6,0.2,0.9
				c0.1,0.3,0.1,0.6,0.2,0.9c0,0.2,0.1,0.5,0.1,0.7"/>
			<path class="st62" d="M57.4,39.6c0-2.1-1.7-3.8-3.8-3.8c-2.1,0-3.8,1.7-3.8,3.8c0,1.4,0.8,2.7,2,3.3c0.5,0.3,1.2,0.5,1.8,0.5
				C55.8,43.4,57.4,41.7,57.4,39.6z"/>
			<line class="st61" x1="53.7" y1="18.9" x2="53.7" y2="22.3"/>
			<line class="st61" x1="53.7" y1="60.3" x2="53.7" y2="56.9"/>
			<line class="st61" x1="74.4" y1="39.6" x2="71" y2="39.6"/>
			<line class="st61" x1="33" y1="39.6" x2="36.4" y2="39.6"/>
			<line class="st61" x1="51" y1="42.3" x2="33.2" y2="60.1"/>
			<path class="st61" d="M33.2,42.4C33.2,42.4,33.2,42.4,33.2,42.4c0,0.2,0,0.3,0,0.4c0,0.2,0.1,0.3,0.1,0.5c0,0.1,0,0.2,0,0.2
				c0,0.2,0.1,0.4,0.1,0.7c0.1,0.3,0.1,0.6,0.2,0.9c0.1,0.3,0.2,0.6,0.3,0.9c0.1,0.4,0.2,0.7,0.4,1.1c0.1,0.2,0.2,0.5,0.3,0.7
				c0,0.1,0.1,0.2,0.1,0.4c0,0.1,0.1,0.2,0.2,0.3c0.2,0.6,0.5,1.1,0.8,1.6c0.1,0.2,0.3,0.5,0.5,0.7c0.1,0.2,0.3,0.5,0.5,0.7v0
				c0.2,0.2,0.3,0.5,0.5,0.7c0.1,0.2,0.3,0.4,0.5,0.6"/>
		</g>
		<rect x="32.9" y="18.9" class="st9" width="41.6" height="41.6"/>
	</g>
	<g>
		<rect x="87.3" y="75.6" class="st9" width="17.5" height="28.2"/>
		<rect x="110.8" y="64.5" class="st20" width="17.5" height="39.2"/>
		<polygon class="st19" points="143.9,42.2 134.4,51.8 134.4,42.2 		"/>
		<polygon class="st9" points="151.9,42.2 151.9,103.7 134.4,103.7 134.4,51.8 143.9,42.2 		"/>
	</g>
	<g>
		<path class="st63" d="M52.1,108.8V94.1c0-0.5,0.4-0.9,0.9-0.9h10.4"/>
		<path class="st63" d="M58.3,116h18.2c0.5,0,0.9-0.4,0.9-0.9v-3.4v-3.2"/>
		<path class="st63" d="M77.5,101.4v-4.7v-2.7c0-0.5-0.4-0.9-0.9-0.9h-4"/>
		<line class="st63" x1="54.7" y1="96.7" x2="77.5" y2="96.7"/>
		<path class="st64" d="M74.8,96.7l-2.2-3.6l-1.8-2.9c-0.4-0.6-1.2-0.8-1.9-0.5l-5.5,3.3l-5.9,3.6H74.8z"/>
		<path class="st63" d="M72.5,108.6h6.7v-7.2h-6.7c-2,0-3.6,1.6-3.6,3.6v0C68.9,107,70.5,108.6,72.5,108.6z"/>
		<path class="st63" d="M74.3,105c0,0.9-0.8,1.7-1.7,1.7c-0.9,0-1.7-0.8-1.7-1.7c0-0.9,0.8-1.7,1.7-1.7
			C73.5,103.3,74.3,104.1,74.3,105z"/>
		<line class="st63" x1="61.2" y1="111.7" x2="77.5" y2="111.7"/>
		<path class="st63" d="M57.4,117.6h-6.5c-0.4,0-0.7-0.3-0.7-0.7v-1.5c0-0.4,0.3-0.7,0.7-0.7h6.5c0.4,0,0.7,0.3,0.7,0.7v1.5
			C58.1,117.2,57.8,117.6,57.4,117.6z"/>
		<path class="st63" d="M54.5,114.6H48c-0.4,0-0.7-0.3-0.7-0.7v-1.5c0-0.4,0.3-0.7,0.7-0.7h6.5c0.4,0,0.7,0.3,0.7,0.7v1.5
			C55.2,114.3,54.9,114.6,54.5,114.6z"/>
		<path class="st63" d="M56.9,111.7h-6.5c-0.4,0-0.7-0.3-0.7-0.7v-1.5c0-0.4,0.3-0.7,0.7-0.7h6.5c0.4,0,0.7,0.3,0.7,0.7v1.5
			C57.7,111.4,57.3,111.7,56.9,111.7z"/>
	</g>
	<rect x="150.3" y="97" class="st11" width="6.6" height="6.6"/>
	<line class="st9" x1="161.9" y1="108.8" x2="155.1" y2="102.1"/>
</g>
<g id="Layer_8">
</g>
<g id="Layer_14">
</g>
<g id="Layer_10">
</g>
<g id="Layer_11" class="st70">
</g>
<g id="Layer_17">
</g>
<g id="Layer_9">
</g>
<g id="Layer_7_00000135676333297724536660000013176285327006084740_">
</g>
<g id="Layer_12">
</g>
<g id="Layer_13">
</g>
</svg>
