<?xml version="1.0" encoding="utf-8"?>
<!-- Generator: Adobe Illustrator 27.0.0, SVG Export Plug-In . SVG Version: 6.00 Build 0)  -->
<svg version="1.1" xmlns="http://www.w3.org/2000/svg" xmlns:xlink="http://www.w3.org/1999/xlink" x="0px" y="0px"
	 viewBox="0 0 366.8 363.5" style="enable-background:new 0 0 366.8 363.5;" xml:space="preserve">
<style type="text/css">
	.st0{fill:none;stroke:#158864;stroke-linecap:round;stroke-linejoin:round;stroke-miterlimit:10;}
	.st1{fill:#158864;}
	.st2{fill:none;stroke:#158864;stroke-width:1.058;stroke-linecap:round;stroke-linejoin:round;stroke-miterlimit:10;}
	.st3{clip-path:url(#XMLID_00000033353199355399774770000001687162316345074062_);}
	.st4{fill:none;stroke:#158864;stroke-width:1.058;stroke-linecap:round;stroke-miterlimit:10;}
	.st5{fill:#158864;stroke:#158864;stroke-linecap:round;stroke-linejoin:round;stroke-miterlimit:10;}
	.st6{fill:#FFFFFF;stroke:#158864;stroke-linecap:round;stroke-linejoin:round;stroke-miterlimit:10;}
	.st7{fill:none;stroke:#158864;stroke-linecap:round;stroke-miterlimit:10;}
	.st8{clip-path:url(#XMLID_00000029023788069941760950000016398150037007043225_);}
	.st9{fill:none;stroke:#158864;stroke-width:3;stroke-linecap:round;stroke-miterlimit:10;}
	.st10{fill:#158864;stroke:#158864;stroke-width:0.9504;stroke-linecap:round;stroke-linejoin:round;stroke-miterlimit:10;}
	.st11{fill:none;stroke:#158864;stroke-width:0.9783;stroke-linecap:round;stroke-linejoin:round;stroke-miterlimit:10;}
	.st12{fill:#FFFFFF;stroke:#158864;stroke-width:1.058;stroke-linecap:round;stroke-linejoin:round;stroke-miterlimit:10;}
	.st13{fill:#158864;stroke:#158864;stroke-width:1.058;stroke-linecap:round;stroke-linejoin:round;stroke-miterlimit:10;}
	.st14{fill:#FFFFFF;stroke:#158864;stroke-linecap:round;stroke-miterlimit:10;}
	.st15{fill:none;stroke:#FFFFFF;stroke-linecap:round;stroke-linejoin:round;stroke-miterlimit:10;}
	.st16{fill:#158864;stroke:#158864;stroke-linecap:round;stroke-miterlimit:10;}
	.st17{fill:#FFFFFF;}
</style>
<g id="Layer_2">
</g>
<g id="Layer_6">
	<g>
		<g>
			<g>
				<path class="st0" d="M71.8,55.2c0,9.2-7.5,16.7-16.7,16.7s-16.7-7.5-16.7-16.7c0-0.3,0-0.6,0-0.9c0.5-8.8,7.8-15.8,16.7-15.8
					c6.9,0,12.8,4.2,15.4,10.2C71.3,50.6,71.8,52.9,71.8,55.2z"/>
				<path class="st0" d="M74.5,48.4c0.2,1.1,1.2,1.9,2.4,1.9c1.2,0,2.2-0.9,2.4-2.1 M38.4,54.3c0,0.3,0,0.6,0,0.9
					c0,9.2,7.5,16.7,16.7,16.7s16.7-7.5,16.7-16.7c0-2.3-0.5-4.5-1.3-6.6 M18.9,60.7c0.1,0.4,0.1,0.8,0.2,1.1c0.2,1,1.3,1.6,2.3,1.2
					l4-1.6c0.7-0.3,1.1-1,1-1.8c-0.1-0.5-0.1-1.1-0.2-1.6 M98.7,48.5c0.2-1.1,0.9-2.1,1.9-2.7l0.2-0.1c0.4-0.3,0.6-0.8,0.5-1.2
					l-0.8-3.1c-0.1-0.5-0.6-0.8-1.1-0.8h0c-1.7,0-3.3-1-3.9-2.5c-0.3-0.7-0.6-1.4-0.9-2.1c-0.7-1.5-0.5-3.3,0.6-4.5l0.1-0.2
					c0.3-0.4,0.3-0.9,0.1-1.3l-1.8-2.6c-0.3-0.4-0.8-0.6-1.3-0.4l0,0c-1.6,0.6-3.4,0.1-4.6-1.1c-0.5-0.6-1-1.1-1.5-1.6
					c-1.2-1.2-1.5-2.9-0.9-4.5l0.1-0.2c0.2-0.5,0-1-0.4-1.3l-2.5-1.9c-0.4-0.3-1-0.3-1.3,0l0,0c-1.3,1.1-3.2,1.2-4.7,0.4
					c-0.7-0.4-1.3-0.7-2-1C72.9,15,72,13.5,72,11.8l0-0.2c0-0.5-0.3-0.9-0.8-1.1l-3-1c-0.5-0.2-1,0-1.3,0.5l0,0.1
					c-0.9,1.5-2.6,2.2-4.3,1.9c-0.5-0.1-1-0.2-1.4-0.2c-1.6-0.2-3-1.4-3.4-3l-0.1-0.3c-0.1-0.5-0.6-0.8-1.1-0.8h-3.2
					c-0.5,0-0.9,0.3-1.1,0.8l0,0.1c-0.4,1.7-1.8,2.9-3.5,3.1c-0.7,0.1-1.5,0.2-2.2,0.4c-1.6,0.3-3.3-0.4-4.2-1.7l-0.2-0.2
					c-0.3-0.4-0.8-0.6-1.3-0.4l-3,1c-0.5,0.2-0.8,0.6-0.7,1.1l0,0.1c0.2,1.7-0.7,3.3-2.3,4.1c-0.7,0.3-1.3,0.7-1.9,1
					c-1.4,0.8-3.2,0.7-4.6-0.3l-0.3-0.2c-0.4-0.3-0.9-0.3-1.3,0l-2.5,2C24.2,19,24,19.5,24.2,20l0.1,0.1c0.7,1.6,0.4,3.4-0.8,4.6
					c-0.5,0.5-1,1.1-1.5,1.6c-1.1,1.2-2.8,1.7-4.4,1.2l-0.3-0.1c-0.5-0.1-1,0-1.2,0.4l-1.7,2.7c-0.3,0.4-0.2,1,0.1,1.3l0.1,0.1
					c1.2,1.2,1.5,3.1,0.7,4.6c-0.3,0.7-0.6,1.3-0.9,2c-0.6,1.5-2.1,2.6-3.7,2.6l-0.3,0c-0.5,0-0.9,0.4-1,0.8l-0.8,3.1
					c-0.1,0.5,0.1,1,0.6,1.2l0.1,0.1c1.5,0.8,2.4,2.4,2.2,4.1c-0.1,0.7-0.1,1.5-0.2,2.2c-0.1,1.6-1.2,3.1-2.7,3.6
					c-0.2,0.1-0.3,0.1-0.3,0.1c-0.5,0.2-0.7,0.6-0.7,1.1l0.3,3.2c0,0.5,0.4,0.9,0.9,1l0.1,0c1.2,0.2,2.3,0.9,2.9,2 M87.1,48
					l-2.2,0.9c-0.7,0.3-1.1,1-1,1.8c0.9,6-0.1,12.6-3.2,18.3c-0.3,0.6-0.3,1.4,0.2,1.9l3,3.2c0.8,0.8,2.1,0.7,2.7-0.3
					c4.9-8.2,5.9-17.5,4.5-25.4c0-0.2-0.1-0.3-0.2-0.4 M78.8,80.4l-3.4-2.6c-0.6-0.5-1.5-0.5-2.1,0c-4.7,3.8-10.9,6.2-17.4,6.4
					c-0.7,0-1.3,0.5-1.6,1.2l-1.3,4.2c-0.3,1.1,0.5,2.1,1.6,2.2c9.5,0.2,18.1-3.6,24.2-8.8C79.7,82.3,79.6,81.1,78.8,80.4z M75,70.1
					c0-1.3-1.1-2.4-2.4-2.4c-1.3,0-2.4,1.1-2.4,2.4c0,1.3,1.1,2.4,2.4,2.4C73.9,72.5,75,71.4,75,70.1z M50.9,75.2
					c-1.3,0-2.4,1.1-2.4,2.4c0,1.3,1.1,2.4,2.4,2.4c1.3,0,2.4-1.1,2.4-2.4C53.3,76.3,52.2,75.2,50.9,75.2z M44.6,82.3
					c-5.7-2.2-10.9-6.3-14.3-11.9c-0.4-0.6-1.1-0.9-1.8-0.8l-4.3,1c-1.1,0.2-1.6,1.5-1.1,2.4c4.6,8.3,12.2,13.9,19.7,16.6
					c1,0.4,2.1-0.3,2.2-1.4l0.6-4.3C45.7,83.3,45.3,82.6,44.6,82.3z M35.9,63.3c0-1.3-1.1-2.4-2.4-2.4c-1.3,0-2.4,1.1-2.4,2.4
					c0,1.3,1.1,2.4,2.4,2.4C34.8,65.7,35.9,64.6,35.9,63.3z"/>
				<circle class="st0" cx="59.2" cy="32.2" r="2.4"/>
				<circle class="st0" cx="37.4" cy="40.3" r="2.4"/>
				<path class="st0" d="M35.9,63.3c0,1.3-1.1,2.4-2.4,2.4c-1.3,0-2.4-1.1-2.4-2.4c0-1.3,1.1-2.4,2.4-2.4
					C34.8,60.9,35.9,61.9,35.9,63.3z"/>
				<path class="st0" d="M53.3,77.6c0,1.3-1.1,2.4-2.4,2.4c-1.3,0-2.4-1.1-2.4-2.4c0-1.3,1.1-2.4,2.4-2.4
					C52.2,75.2,53.3,76.3,53.3,77.6z"/>
				<path class="st0" d="M75,70.1c0,1.3-1.1,2.4-2.4,2.4c-1.3,0-2.4-1.1-2.4-2.4c0-1.3,1.1-2.4,2.4-2.4C73.9,67.7,75,68.8,75,70.1z"
					/>
				<path class="st0" d="M79.2,47.8c0,0.1,0,0.2,0,0.3c-0.2,1.2-1.2,2.1-2.4,2.1c-1.1,0-2.1-0.8-2.4-1.9c0-0.2-0.1-0.4-0.1-0.6
					c0-1.3,1.1-2.4,2.4-2.4C78.2,45.4,79.2,46.5,79.2,47.8z"/>
			</g>
			<path class="st0" d="M54.3,26.1c-6.5,0.2-12.7,2.6-17.4,6.4c-0.6,0.5-1.4,0.5-2.1,0L31.4,30c-0.8-0.6-0.9-1.9-0.1-2.6
				c6.1-5.2,14.7-8.9,24.2-8.8c1.1,0,1.9,1.1,1.6,2.2L55.8,25C55.6,25.6,55,26.1,54.3,26.1z"/>
			<path class="st0" d="M29.5,41.4c-2.8,5.2-3.9,11.1-3.3,16.7c0,0.5,0.1,1.1,0.2,1.6c0.1,0.8-0.3,1.5-1,1.8l-4,1.6
				c-1,0.4-2.1-0.2-2.3-1.2c-0.1-0.4-0.1-0.7-0.2-1.1c-1.1-7.6,0-16.5,4.7-24.3c0.6-1,1.9-1.1,2.7-0.3l3,3.2
				C29.8,40,29.9,40.7,29.5,41.4z"/>
			<path class="st0" d="M45.6,84.1l-0.6,4.3c-0.1,1.1-1.2,1.7-2.2,1.4c-7.5-2.7-15.1-8.3-19.7-16.6c-0.5-1,0-2.2,1.1-2.4l4.3-1
				c0.7-0.2,1.4,0.2,1.8,0.8c3.4,5.5,8.6,9.7,14.3,11.9C45.3,82.6,45.7,83.3,45.6,84.1z"/>
			<path class="st0" d="M78.9,83c-6.1,5.2-14.7,9-24.2,8.8c-1.1,0-1.9-1.1-1.6-2.2l1.3-4.2c0.2-0.7,0.8-1.2,1.6-1.2
				c6.5-0.2,12.7-2.6,17.4-6.4c0.6-0.5,1.4-0.5,2.1,0l3.4,2.6C79.6,81.1,79.7,82.3,78.9,83z"/>
			<path class="st0" d="M86.6,73.9c-0.6,1-1.9,1.1-2.7,0.3l-3-3.2c-0.5-0.5-0.6-1.3-0.2-1.9c3.1-5.7,4.1-12.3,3.2-18.3
				c-0.1-0.8,0.3-1.5,1-1.8l2.2-0.9l1.7-0.7c0.8-0.3,1.8,0,2.1,0.8c0.1,0.1,0.1,0.3,0.2,0.4C92.5,56.4,91.5,65.8,86.6,73.9z"/>
			<path class="st0" d="M79.9,39.9c-3.4-5.5-8.6-9.7-14.3-11.9c-0.7-0.3-1.1-1-1-1.8l0.6-4.2c0.1-1,1.2-1.7,2.2-1.4
				C74.8,23.4,82.4,29,87,37.3c0.5,1,0,2.2-1.1,2.4l-4.3,1C80.9,40.9,80.2,40.6,79.9,39.9z"/>
		</g>
		<polygon class="st1" points="176.8,298.2 109.7,298.2 109.7,324 176.8,324 176.8,317.5 176.8,311.1 176.8,304.6 		"/>
		<polygon class="st1" points="255.5,298.5 229.9,298.5 229.9,324 255.5,324 255.5,317.7 255.5,311.3 255.5,304.9 		"/>
		<polyline class="st2" points="176.8,252.8 176.8,276.2 176.8,298.1 176.8,324.4 		"/>
		<g>
			<defs>
				<path id="XMLID_00000071520896913597849010000003295473908061553838_" d="M187.9,222.3v7.1h0.1c-0.1,16.3-2.3,27.1-5,35.2v-11.8
					h-6.1V150.7l40.7,24.9c-7.4,1.2-13,7.6-13,15.3v0.1c-5.6,0.5-10,5.3-10,11c0,6.1,4.9,11.1,11.1,11.1c4.7,0,8.8-3,10.3-7.2
					c1.3,0.4,2.7,0.5,4.1,0.5c1.3,0,2.6-0.2,3.9-0.5v16.3H187.9z"/>
			</defs>
			<clipPath id="XMLID_00000140729319000367275130000009190816958504992146_">
				<use xlink:href="#XMLID_00000071520896913597849010000003295473908061553838_"  style="overflow:visible;"/>
			</clipPath>
			<g style="clip-path:url(#XMLID_00000140729319000367275130000009190816958504992146_);">
				<line class="st4" x1="250.8" y1="195.4" x2="182.3" y2="264"/>
				<line class="st4" x1="247.6" y1="193.4" x2="179.7" y2="261.4"/>
				<line class="st4" x1="244.5" y1="191.5" x2="177.1" y2="258.8"/>
				<line class="st4" x1="241.3" y1="189.5" x2="174.6" y2="256.3"/>
				<line class="st4" x1="238.1" y1="187.6" x2="172" y2="253.7"/>
				<line class="st4" x1="235" y1="185.6" x2="169.4" y2="251.1"/>
				<line class="st4" x1="231.8" y1="183.7" x2="166.9" y2="248.6"/>
				<line class="st4" x1="228.6" y1="181.7" x2="164.3" y2="246"/>
				<line class="st4" x1="225.4" y1="179.8" x2="161.8" y2="243.5"/>
				<line class="st4" x1="222.3" y1="177.8" x2="159.2" y2="240.9"/>
				<line class="st4" x1="219.1" y1="175.9" x2="156.6" y2="238.3"/>
				<line class="st4" x1="215.9" y1="173.9" x2="154.1" y2="235.8"/>
				<line class="st4" x1="212.8" y1="172" x2="151.5" y2="233.2"/>
				<line class="st4" x1="209.6" y1="170" x2="149" y2="230.6"/>
				<line class="st4" x1="206.4" y1="168.1" x2="146.4" y2="228.1"/>
				<line class="st4" x1="203.2" y1="166.1" x2="143.8" y2="225.5"/>
				<line class="st4" x1="200.1" y1="164.2" x2="141.3" y2="223"/>
				<line class="st4" x1="196.9" y1="162.2" x2="138.7" y2="220.4"/>
				<line class="st4" x1="193.7" y1="160.3" x2="136.1" y2="217.8"/>
				<line class="st4" x1="190.5" y1="158.3" x2="133.6" y2="215.3"/>
				<line class="st4" x1="187.4" y1="156.3" x2="131" y2="212.7"/>
				<line class="st4" x1="184.2" y1="154.4" x2="128.5" y2="210.1"/>
				<line class="st4" x1="181" y1="152.4" x2="125.9" y2="207.6"/>
				<line class="st4" x1="177.9" y1="150.5" x2="123.3" y2="205"/>
				<line class="st4" x1="174.7" y1="148.5" x2="120.8" y2="202.5"/>
			</g>
			
				<use xlink:href="#XMLID_00000071520896913597849010000003295473908061553838_"  style="overflow:visible;fill:none;stroke:#158864;stroke-width:1.058;stroke-linecap:round;stroke-linejoin:round;stroke-miterlimit:10;"/>
		</g>
		<line class="st2" x1="223.9" y1="205.9" x2="223.9" y2="179.6"/>
		<g>
			<path class="st5" d="M329.2,209c0,8.3,6.7,15.1,15.1,15.1c8.3,0,15.1-6.7,15.1-15.1"/>
			<path class="st6" d="M334.4,209c0,5.4,4.4,9.8,9.8,9.8s9.8-4.4,9.8-9.8"/>
			<path class="st6" d="M366.3,205.4c0,1,0,3.7,0,3.7l-43,0c-2,0-3.7-1.7-3.7-3.7H366.3z"/>
			<line class="st6" x1="350.1" y1="222.9" x2="349.1" y2="232.3"/>
			<polyline class="st6" points="338.3,222.9 339.3,236.4 347.2,236.4 			"/>
			<circle class="st5" cx="344.1" cy="233.1" r="1.5"/>
			<line class="st6" x1="339.9" y1="225.9" x2="340.2" y2="230.4"/>
			<path class="st6" d="M360.5,233.9v4.4c0,0.8-0.7,1.5-1.5,1.5h-17c-0.8,0-1.5-0.7-1.5-1.5v-1.9h8.2l0.4-4h9.9
				C359.8,232.3,360.5,233,360.5,233.9z"/>
			<line class="st6" x1="351.4" y1="238" x2="356.7" y2="238"/>
			<path class="st5" d="M358.7,241.8H352c-0.3,0-0.6-0.3-0.6-0.6v-1.4h7.9v1.4C359.3,241.5,359.1,241.8,358.7,241.8z"/>
			<g>
				<polygon class="st6" points="357.1,248.5 358.1,241.8 352.8,241.8 353.8,248.5 357.2,248.5 				"/>
			</g>
			<line class="st6" x1="355.4" y1="245.6" x2="355.4" y2="241.8"/>
			<path class="st5" d="M357.3,250.2h-3.6c-0.6,0-1.2-0.5-1.2-1.2v0c0-0.6,0.5-1.2,1.2-1.2h3.6c0.6,0,1.2,0.5,1.2,1.2v0
				C358.4,249.7,357.9,250.2,357.3,250.2z"/>
			<polygon class="st6" points="355.6,254.5 357.2,250.2 353.7,250.2 			"/>
			<path class="st6" d="M340.4,236.4"/>
		</g>
		<polygon class="st6" points="281.8,205.3 281.8,214.9 266.2,205.3 		"/>
		<path class="st5" d="M281.8,110.1v95.3h-15.6l-35.8-21.9V93.1c0.5,0.2,0.9,0.4,1.4,0.6c1,0.4,1.9,0.8,2.9,1.1
			c0.7,0.3,1.4,0.5,2.1,0.8c0.3,0.1,0.5,0.2,0.8,0.3c1,0.4,1.9,0.7,2.9,1.1c0.8,0.3,1.6,0.6,2.4,0.9c0.2,0.1,0.4,0.1,0.5,0.2
			c1,0.4,2,0.7,2.9,1.1c1,0.4,2,0.7,3,1.1c1,0.3,2,0.7,3,1c1,0.3,2,0.7,3,1c1,0.3,2,0.7,3,1c1,0.3,2,0.7,3,1
			c0.3,0.1,0.6,0.2,0.9,0.3c0.7,0.2,1.4,0.5,2.2,0.7c1,0.3,2.1,0.6,3.1,0.9c1,0.3,2.1,0.6,3.1,0.9c1,0.3,2.1,0.6,3.1,0.9
			c1.1,0.3,2.1,0.6,3.2,0.9c1.1,0.3,2.1,0.6,3.2,0.8C280.6,109.8,281.2,110,281.8,110.1z"/>
		<path class="st0" d="M281.8,110.2"/>
		<path class="st0" d="M230.4,93.1"/>
		<line class="st7" x1="241.5" y1="324.4" x2="241.5" y2="363"/>
		<line class="st7" x1="251.6" y1="324.4" x2="251.6" y2="363"/>
		<line class="st7" x1="261.6" y1="324.4" x2="261.6" y2="363"/>
		<line class="st7" x1="271.7" y1="324.4" x2="271.7" y2="363"/>
		<line class="st7" x1="281.8" y1="324.4" x2="281.8" y2="363"/>
		<line class="st7" x1="291.9" y1="324.4" x2="291.9" y2="363"/>
		<line class="st7" x1="302" y1="324.4" x2="302" y2="363"/>
		<g>
			<path class="st1" d="M207.1,158.1c0,1-0.3,2.1-0.9,3c-1.8,2.9-5.6,3.8-8.5,2c-2.9-1.8-3.8-5.6-2-8.5c0-0.1,0.1-0.1,0.1-0.2
				c1.8-2.8,5.6-3.6,8.4-1.8C206.1,153.8,207.2,155.9,207.1,158.1z M203.6,159.5c0.9-1.5,0.5-3.5-1-4.4c-1.5-0.9-3.5-0.5-4.4,1
				c-0.9,1.5-0.5,3.5,1,4.4S202.7,161.1,203.6,159.5z"/>
			<path class="st1" d="M169.3,131c2.9,1.8,3.8,5.5,2.1,8.4c0,0.1-0.1,0.1-0.1,0.2c-1.8,2.9-5.6,3.8-8.5,2c-2.9-1.8-3.8-5.6-2-8.5
				c0.6-0.9,1.4-1.7,2.3-2.2C164.9,129.8,167.3,129.8,169.3,131z M168.8,138c0.9-1.5,0.5-3.5-1-4.4s-3.5-0.5-4.4,1
				c-0.9,1.5-0.5,3.5,1,4.4S167.8,139.5,168.8,138z"/>
			<polyline class="st0" points="195.7,154.4 187.7,149.5 176.1,142.3 171.4,139.4 			"/>
			<line class="st0" x1="186" y1="152.2" x2="174.4" y2="145.1"/>
			<polyline class="st0" points="184.3,154.9 186,152.2 187.7,149.5 			"/>
			<polyline class="st0" points="172.7,147.8 174.4,145.1 176.1,142.3 			"/>
			<line class="st0" x1="184.3" y1="154.9" x2="172.7" y2="147.8"/>
			<polyline class="st0" points="195.1,149.6 189,145.8 176.3,137.9 			"/>
			<polyline class="st0" points="199.9,128.1 194.8,136.4 189,145.8 			"/>
			<polyline class="st0" points="219.3,140.1 215.2,137.6 210.5,134.7 202.8,129.9 199.9,128.1 197.1,126.4 193.5,124.1 
				189.1,121.4 			"/>
			<line class="st0" x1="217" y1="134.8" x2="195.2" y2="121.4"/>
			<polyline class="st0" points="217.6,133.8 217,134.8 215.2,137.6 			"/>
			<polyline class="st0" points="195.8,120.4 195.2,121.4 193.5,124.1 			"/>
			<line class="st0" x1="202.8" y1="129.9" x2="197.6" y2="138.1"/>
			<polyline class="st0" points="197.1,126.4 192,134.6 192,134.6 			"/>
			<polyline class="st0" points="215.6,149.3 205.4,142.9 197.6,138.1 194.8,136.4 192,134.6 181,127.9 168.4,120.1 			"/>
			<polyline class="st0" points="219.3,140.1 219,140.8 215.8,148.6 215.6,149.3 			"/>
			<polyline class="st0" points="210.5,134.7 205.4,142.9 202.6,147.4 			"/>
			<line class="st0" x1="189.1" y1="121.4" x2="181" y2="127.9"/>
			<polyline class="st0" points="168.4,120.1 160.9,126.1 158.5,128.1 			"/>
			<line class="st0" x1="165.9" y1="117.8" x2="157.9" y2="124.3"/>
			<polyline class="st0" points="157.9,124.3 160.9,126.1 162,126.8 			"/>
			<polyline class="st0" points="216.7,151.9 213,157.9 211.2,160.7 			"/>
			<polyline class="st0" points="211.2,160.7 207.1,158.1 207,158.1 			"/>
			<path class="st0" d="M215.4,159.4l-2.5-1.5l-2-1.2l-0.2-1.8c-0.2-1.6-1-3-2.4-3.8l-5.3-3.3c-0.2-0.1-0.4-0.2-0.6-0.3
				c-1.6-0.7-3.5-0.6-5,0.4l-2.5,1.7"/>
			<path class="st0" d="M219,140.8l2.8,1.7c0.2,0.1,0.3,0.4,0.2,0.6l-2.8,7c-0.1,0.3-0.5,0.4-0.7,0.2l-2.7-1.6l0,0l0,0"/>
			<line class="st0" x1="163" y1="130.8" x2="158.5" y2="128.1"/>
			<path class="st0" d="M197.6,163.1c2.9,1.8,6.7,0.9,8.5-2c0.6-0.9,0.9-2,0.9-3c0.1-2.2-1-4.3-2.9-5.5c-2.8-1.8-6.6-0.9-8.4,1.8
				c0,0.1-0.1,0.1-0.1,0.2C193.8,157.5,194.7,161.3,197.6,163.1z"/>
			<path class="st0" d="M198.1,156.1c-0.9,1.5-0.5,3.5,1,4.4s3.5,0.5,4.4-1c0.9-1.5,0.5-3.5-1-4.4
				C201.1,154.2,199.1,154.6,198.1,156.1z"/>
			<path class="st0" d="M162,126.8l0.7-0.5c1.7-1.1,3.8-1.2,5.5-0.1l5.3,3.3c1.3,0.8,2.2,2.2,2.4,3.8l0.3,4.6"/>
			<path class="st0" d="M162.8,141.5c2.9,1.8,6.7,0.9,8.5-2c0-0.1,0.1-0.1,0.1-0.2c1.7-2.9,0.7-6.6-2.1-8.4c-2-1.2-4.4-1.2-6.3-0.2
				c-0.9,0.5-1.7,1.2-2.3,2.2C158.9,135.9,159.8,139.7,162.8,141.5z"/>
			<path class="st0" d="M163.3,134.6c-0.9,1.5-0.5,3.5,1,4.4s3.5,0.5,4.4-1s0.5-3.5-1-4.4S164.2,133.1,163.3,134.6z"/>
			<line class="st0" x1="216.7" y1="151.9" x2="215.6" y2="149.3"/>
		</g>
		<g>
			<defs>
				<path id="XMLID_00000141450132679828642690000008311664198292638127_" d="M366.3,0.5v114.9c-1.4,0.2-2.8,0.4-4.2,0.5
					c-1.5,0.2-3,0.3-4.5,0.5c-0.3,0-0.6,0.1-0.9,0.1c-1.2,0.1-2.3,0.2-3.5,0.3c-1.4,0.1-2.9,0.2-4.3,0.3c-1.4,0.1-2.8,0.1-4.2,0.2
					c-0.6,0-1.2,0-1.8,0c-0.8,0-1.5,0-2.3,0c-1.3,0-2.7,0-4,0c-1.3,0-2.6,0-4-0.1c-1.3,0-2.6-0.1-3.9-0.1c-1.3-0.1-2.5-0.1-3.8-0.2
					c-1.3-0.1-2.5-0.2-3.8-0.3c-1-0.1-2-0.1-3-0.2c-0.2,0-0.5,0-0.7-0.1c-1.2-0.1-2.4-0.2-3.6-0.4c-1.2-0.1-2.4-0.3-3.6-0.4
					c-1.2-0.1-2.4-0.3-3.5-0.5c-1.2-0.2-2.3-0.3-3.5-0.5c-1.2-0.2-2.3-0.4-3.5-0.6c-1.1-0.2-2.3-0.4-3.4-0.6
					c-1.1-0.2-2.2-0.4-3.4-0.7c-1.1-0.2-2.2-0.4-3.3-0.7c-1.1-0.2-2.2-0.5-3.3-0.7c-1.1-0.2-2.2-0.5-3.3-0.8c-0.5-0.1-1-0.2-1.5-0.4
					V0.5H366.3z"/>
			</defs>
			<clipPath id="XMLID_00000102524077936995809290000005809155795360057226_">
				<use xlink:href="#XMLID_00000141450132679828642690000008311664198292638127_"  style="overflow:visible;"/>
			</clipPath>
			<g style="clip-path:url(#XMLID_00000102524077936995809290000005809155795360057226_);">
				<line class="st7" x1="286.3" y1="0.5" x2="281.8" y2="5"/>
				<line class="st7" x1="290" y1="0.5" x2="281.8" y2="8.7"/>
				<line class="st7" x1="293.8" y1="0.5" x2="281.8" y2="12.5"/>
				<line class="st7" x1="297.5" y1="0.5" x2="281.8" y2="16.2"/>
				<line class="st7" x1="301.2" y1="0.5" x2="281.8" y2="20"/>
				<line class="st7" x1="305" y1="0.5" x2="281.8" y2="23.7"/>
				<line class="st7" x1="308.7" y1="0.5" x2="281.8" y2="27.4"/>
				<line class="st7" x1="312.5" y1="0.5" x2="281.8" y2="31.2"/>
				<line class="st7" x1="316.2" y1="0.5" x2="281.8" y2="34.9"/>
				<line class="st7" x1="319.9" y1="0.5" x2="281.8" y2="38.6"/>
				<line class="st7" x1="323.7" y1="0.5" x2="281.8" y2="42.4"/>
				<line class="st9" x1="327.4" y1="0.5" x2="281.8" y2="46.1"/>
				<line class="st7" x1="331.1" y1="0.5" x2="281.8" y2="49.9"/>
				<line class="st7" x1="334.9" y1="0.5" x2="281.8" y2="53.6"/>
				<line class="st7" x1="338.6" y1="0.5" x2="281.8" y2="57.3"/>
				<line class="st7" x1="342.4" y1="0.5" x2="281.8" y2="61.1"/>
				<line class="st7" x1="346.1" y1="0.5" x2="281.8" y2="64.8"/>
				<line class="st7" x1="349.8" y1="0.5" x2="281.8" y2="68.5"/>
				<line class="st7" x1="353.6" y1="0.5" x2="281.8" y2="72.3"/>
				<line class="st7" x1="357.3" y1="0.5" x2="281.8" y2="76"/>
				<line class="st7" x1="361" y1="0.5" x2="281.8" y2="79.8"/>
				<line class="st7" x1="364.8" y1="0.5" x2="281.8" y2="83.5"/>
				<line class="st7" x1="366.3" y1="2.7" x2="281.8" y2="87.2"/>
				<line class="st7" x1="366.3" y1="6.4" x2="281.8" y2="91"/>
				<line class="st7" x1="366.3" y1="10.1" x2="281.8" y2="94.7"/>
				<line class="st7" x1="366.3" y1="13.9" x2="281.8" y2="98.5"/>
				<line class="st7" x1="366.3" y1="17.6" x2="281.8" y2="102.2"/>
				<line class="st7" x1="366.3" y1="21.3" x2="281.8" y2="105.9"/>
				<line class="st9" x1="366.3" y1="25.1" x2="281.8" y2="109.7"/>
				<line class="st7" x1="366.3" y1="28.8" x2="284.5" y2="110.7"/>
				<line class="st7" x1="366.3" y1="32.6" x2="287.5" y2="111.4"/>
				<line class="st7" x1="366.3" y1="36.3" x2="290.6" y2="112.1"/>
				<line class="st7" x1="366.3" y1="40" x2="293.7" y2="112.7"/>
				<line class="st9" x1="366.3" y1="43.8" x2="296.8" y2="113.3"/>
				<line class="st7" x1="366.3" y1="47.5" x2="300" y2="113.9"/>
				<line class="st7" x1="366.3" y1="51.3" x2="303.2" y2="114.4"/>
				<line class="st7" x1="366.3" y1="55" x2="306.4" y2="114.9"/>
				<line class="st7" x1="366.3" y1="58.7" x2="309.7" y2="115.4"/>
				<line class="st7" x1="366.3" y1="62.5" x2="313.1" y2="115.8"/>
				<line class="st7" x1="366.3" y1="66.2" x2="316.4" y2="116.1"/>
				<line class="st7" x1="366.3" y1="69.9" x2="319.9" y2="116.4"/>
				<line class="st7" x1="366.3" y1="73.7" x2="323.3" y2="116.7"/>
				<line class="st7" x1="366.3" y1="77.4" x2="326.9" y2="116.9"/>
				<line class="st7" x1="366.3" y1="81.1" x2="330.4" y2="117.1"/>
				<line class="st7" x1="366.3" y1="84.9" x2="334.1" y2="117.2"/>
				<line class="st7" x1="366.3" y1="88.6" x2="337.8" y2="117.2"/>
				<line class="st7" x1="366.3" y1="92.4" x2="341.5" y2="117.2"/>
				<line class="st7" x1="366.3" y1="96.1" x2="345.4" y2="117.1"/>
				<line class="st7" x1="366.3" y1="99.8" x2="349.3" y2="116.9"/>
				<line class="st7" x1="366.3" y1="103.6" x2="353.2" y2="116.7"/>
				<line class="st7" x1="366.3" y1="107.3" x2="357.3" y2="116.4"/>
				<line class="st7" x1="366.3" y1="111" x2="361.4" y2="116"/>
			</g>
			
				<use xlink:href="#XMLID_00000141450132679828642690000008311664198292638127_"  style="overflow:visible;fill:none;stroke:#158864;stroke-linecap:round;stroke-linejoin:round;stroke-miterlimit:10;"/>
		</g>
		<path class="st5" d="M19.1,61.9c-0.1-0.4-0.1-0.7-0.2-1.1c2.2-0.9,4.7-1.8,7.2-2.7c0,0.5,0.1,1.1,0.2,1.6c0.1,0.8-0.3,1.5-1,1.8
			l-4,1.6C20.4,63.5,19.3,62.9,19.1,61.9z"/>
		<path class="st5" d="M31.1,63.3c0-1.3,1.1-2.4,2.4-2.4c1.3,0,2.4,1.1,2.4,2.4c0,1.3-1.1,2.4-2.4,2.4
			C32.1,65.7,31.1,64.6,31.1,63.3z"/>
		<path class="st5" d="M24.2,70.6l4.3-1c0.7-0.2,1.4,0.2,1.8,0.8c3.4,5.5,8.6,9.7,14.3,11.9c0.7,0.3,1.1,1,1,1.8l-0.6,4.3
			c-0.1,1.1-1.2,1.7-2.2,1.4c-7.5-2.7-15.1-8.3-19.7-16.6C22.6,72.1,23.2,70.9,24.2,70.6z"/>
		<path class="st5" d="M53.3,77.6c0,1.3-1.1,2.4-2.4,2.4c-1.3,0-2.4-1.1-2.4-2.4c0-1.3,1.1-2.4,2.4-2.4
			C52.2,75.2,53.3,76.3,53.3,77.6z"/>
		<path class="st5" d="M38.4,55.2c0-0.3,0-0.6,0-0.9c9.3-2.5,20.1-4.6,32.1-5.6c0.9,2,1.3,4.2,1.3,6.6c0,9.2-7.5,16.7-16.7,16.7
			S38.4,64.4,38.4,55.2z"/>
		<path class="st5" d="M72.5,67.7c1.3,0,2.4,1.1,2.4,2.4c0,1.3-1.1,2.4-2.4,2.4c-1.3,0-2.4-1.1-2.4-2.4
			C70.1,68.8,71.2,67.7,72.5,67.7z"/>
		<path class="st5" d="M74.5,48.4c1.6-0.1,3.1-0.2,4.7-0.2c-0.2,1.2-1.2,2.1-2.4,2.1C75.7,50.2,74.7,49.4,74.5,48.4z"/>
		<path class="st5" d="M53.1,89.6l1.3-4.2c0.2-0.7,0.8-1.2,1.6-1.2c6.5-0.2,12.7-2.6,17.4-6.4c0.6-0.5,1.4-0.5,2.1,0l3.4,2.6
			c0.8,0.6,0.9,1.9,0.1,2.6c-6.1,5.2-14.7,9-24.2,8.8C53.5,91.8,52.7,90.7,53.1,89.6z"/>
		<path class="st5" d="M80.9,71c-0.5-0.5-0.6-1.3-0.2-1.9c3.1-5.7,4.1-12.3,3.2-18.3c-0.1-0.8,0.3-1.5,1-1.8l2.2-0.9
			c1.3,0,2.6,0,3.9,0.1c0.1,0.1,0.1,0.3,0.2,0.4c1.4,7.9,0.4,17.2-4.5,25.4c-0.6,1-1.9,1.1-2.7,0.3L80.9,71z"/>
		<path class="st5" d="M109.5,49.6v59.9H0.5V69.7c1.3-0.8,5.2-3.1,11.3-5.9c0.2,0.4,0.4,0.8,0.5,1.2c0.2,0.7,0.3,1.4,0.5,2.1
			c0.5,1.6-0.1,3.3-1.3,4.4l-0.3,0.2c-0.4,0.3-0.5,0.8-0.3,1.3l1.3,2.9c0.2,0.5,0.7,0.7,1.2,0.6l0.1,0c1.7-0.3,3.4,0.5,4.3,1.9
			c0.4,0.6,0.8,1.2,1.2,1.8c0.9,1.4,1,3.2,0.1,4.6L19,85.1c-0.3,0.4-0.2,1,0.1,1.3l2.2,2.3c0.3,0.4,0.9,0.5,1.3,0.2l0.1-0.1
			c1.5-0.8,3.4-0.7,4.7,0.4c0.6,0.5,1.1,0.9,1.7,1.3c1.3,1,2,2.6,1.6,4.3l-0.1,0.3c-0.1,0.5,0.1,1,0.6,1.2l2.8,1.5
			c0.4,0.2,1,0.1,1.3-0.2l0.1-0.1c1.1-1.3,3-1.7,4.6-1.1c0.7,0.2,1.4,0.5,2.1,0.7c1.6,0.5,2.7,1.9,2.9,3.5l0,0.3
			c0.1,0.5,0.4,0.9,0.9,1l3.1,0.5c0.5,0.1,1-0.2,1.2-0.7l0.1-0.2C51,100,52.5,99,54.2,99c0.7,0,1.5,0,2.3,0c1.6,0,3.1,0.9,3.8,2.4
			l0.2,0.3c0.2,0.4,0.7,0.7,1.2,0.6l3.1-0.6c0.5-0.1,0.9-0.5,0.9-1v0c0.1-1.7,1.3-3.2,2.9-3.7c0.7-0.2,1.4-0.5,2.1-0.7
			c1.5-0.6,3.3-0.2,4.5,1l0.2,0.2c0.3,0.3,0.9,0.4,1.3,0.2l2.8-1.5c0.4-0.2,0.7-0.8,0.5-1.2l0,0c-0.5-1.7,0.2-3.4,1.5-4.4
			c0.6-0.5,1.2-0.9,1.8-1.4c1.3-1.1,3-1.3,4.5-0.5l0.2,0.1c0.4,0.2,1,0.1,1.3-0.2l2.1-2.3c0.3-0.4,0.4-0.9,0.1-1.3l0,0
			c-1-1.4-1-3.3,0-4.7c0.4-0.6,0.8-1.3,1.2-1.9c0.9-1.4,2.5-2.2,4.1-2l0.2,0c0.5,0.1,1-0.2,1.1-0.7l1.2-2.9c0.2-0.5,0-1-0.4-1.3
			c-1.1-0.8-1.7-2-1.7-3.3c0-0.4,0-0.7,0.1-1.1c0.2-0.7,0.4-1.5,0.5-2.2c0.3-1.6,1.6-2.9,3.2-3.2l0.2,0c0.5-0.1,0.8-0.5,0.9-1
			l0.2-3.2c0-0.5-0.3-1-0.8-1.1h0c-1.6-0.5-2.8-2-2.9-3.7c0-0.8-0.1-1.5-0.2-2.3c-0.1-0.5,0-1,0.1-1.4
			C102.3,48.8,105.9,49.1,109.5,49.6z"/>
		<path class="st0" d="M11.8,63.8c-6.1,2.8-10,5.1-11.3,5.9V0.5h281.3v109.6c0.5,0.1,1,0.2,1.5,0.4c1.1,0.3,2.2,0.5,3.3,0.8
			c1.1,0.2,2.2,0.5,3.3,0.7c1.1,0.2,2.2,0.5,3.3,0.7c1.1,0.2,2.2,0.4,3.4,0.7c1.1,0.2,2.3,0.4,3.4,0.6c1.2,0.2,2.3,0.4,3.5,0.6
			c1.2,0.2,2.3,0.4,3.5,0.5c1.2,0.2,2.4,0.3,3.5,0.5c1.2,0.1,2.4,0.3,3.6,0.4c1.2,0.1,2.4,0.3,3.6,0.4c0.2,0,0.5,0,0.7,0.1
			c1,0.1,2,0.2,3,0.2c1.2,0.1,2.5,0.2,3.8,0.3c1.3,0.1,2.5,0.1,3.8,0.2c1.3,0.1,2.6,0.1,3.9,0.1c1.3,0,2.6,0.1,4,0.1
			c1.3,0,2.7,0,4,0c0.8,0,1.5,0,2.3,0c0.6,0,1.2,0,1.8,0c1.4,0,2.8-0.1,4.2-0.2c1.4-0.1,2.8-0.2,4.3-0.3c1.2-0.1,2.3-0.2,3.5-0.3
			c0.3,0,0.6,0,0.9-0.1c1.5-0.1,3-0.3,4.5-0.5c1.4-0.2,2.8-0.3,4.2-0.5V363H0.5V109.5h109V49.6c-3.7-0.5-7.3-0.9-10.8-1.1"/>
		<line class="st0" x1="366.3" y1="266.6" x2="281.8" y2="214.9"/>
		<line class="st0" x1="230.4" y1="93.1" x2="230.4" y2="0.5"/>
		<line class="st0" x1="281.8" y1="324.4" x2="281.8" y2="214.9"/>
		<line class="st0" x1="109.5" y1="363" x2="109.5" y2="109.5"/>
		<line class="st0" x1="109.5" y1="49.6" x2="109.5" y2="0.5"/>
		<line class="st0" x1="47.4" y1="324.4" x2="0.5" y2="324.4"/>
		<line class="st0" x1="366.3" y1="324.4" x2="84.7" y2="324.4"/>
		<line class="st0" x1="302" y1="334" x2="232" y2="334"/>
		<line class="st0" x1="232" y1="324.4" x2="232" y2="363"/>
		<g>
			<path class="st1" d="M210.7,0.5V85c-0.5-0.2-1.1-0.5-1.6-0.7c-0.9-0.4-1.9-0.8-2.8-1.2c-0.8-0.3-1.6-0.7-2.3-1V0.5v0L210.7,0.5
				L210.7,0.5z"/>
			<path class="st1" d="M223.5,0.5v89.7c-0.5-0.2-6-2.4-6.8-2.8V0.5v0L223.5,0.5L223.5,0.5z"/>
			<path class="st1" d="M197.2,0.5v78.7c-0.7-0.3-1.4-0.6-2.1-0.9c-0.9-0.4-1.9-0.8-2.8-1.2c-0.6-0.3-1.2-0.5-1.8-0.8V0.5v0
				L197.2,0.5L197.2,0.5z"/>
			<line class="st0" x1="115.8" y1="50.8" x2="115.8" y2="0.5"/>
			<line class="st0" x1="122.6" y1="52.3" x2="122.6" y2="0.5"/>
			<line class="st0" x1="129.4" y1="54" x2="129.4" y2="0.5"/>
			<line class="st0" x1="136.2" y1="125.8" x2="136.2" y2="0.5"/>
			<line class="st0" x1="142.9" y1="58" x2="142.9" y2="0.5"/>
			<line class="st0" x1="149.7" y1="60.3" x2="149.7" y2="0.5"/>
			<line class="st0" x1="156.5" y1="62.7" x2="156.5" y2="0.5"/>
			<line class="st0" x1="163.3" y1="65.3" x2="163.3" y2="0.5"/>
			<line class="st0" x1="170.1" y1="67.9" x2="170.1" y2="0.5"/>
			<line class="st0" x1="176.8" y1="70.7" x2="176.8" y2="0.5"/>
			<line class="st0" x1="183.6" y1="73.5" x2="183.6" y2="0.5"/>
			<line class="st0" x1="190.4" y1="76.3" x2="190.4" y2="0.5"/>
			<line class="st0" x1="197.2" y1="79.2" x2="197.2" y2="0.5"/>
			<line class="st0" x1="204" y1="82.1" x2="204" y2="0.5"/>
		</g>
		<path class="st7" d="M109.5,49.6c1.1,0.2,3.1,0.5,6.3,1.2c2.3,0.5,4.5,1,6.8,1.5c2.3,0.5,4.5,1.1,6.8,1.7c2.3,0.6,4.5,1.2,6.8,1.9
			c2.3,0.7,4.5,1.4,6.8,2.1c2.3,0.7,4.5,1.5,6.8,2.3c2.3,0.8,4.5,1.6,6.8,2.4s4.5,1.7,6.8,2.5c2.3,0.9,4.5,1.8,6.8,2.7
			c2.3,0.9,4.5,1.8,6.8,2.7c2.3,0.9,4.5,1.9,6.8,2.8c1.9,0.8,3.9,1.6,5.8,2.4c0.3,0.1,0.7,0.3,1,0.4c0.6,0.3,1.2,0.5,1.8,0.8
			c0.9,0.4,1.9,0.8,2.8,1.2c0.7,0.3,1.4,0.6,2.1,0.9c0.2,0.1,0.4,0.2,0.7,0.3c0.9,0.4,1.9,0.8,2.8,1.2c0.9,0.4,1.9,0.8,2.8,1.2
			c0.2,0.1,0.3,0.1,0.5,0.2c0.8,0.3,1.5,0.7,2.3,1c0.9,0.4,1.9,0.8,2.8,1.2c0.5,0.2,1.1,0.5,1.6,0.7c0.4,0.2,0.8,0.3,1.2,0.5
			c0.9,0.4,1.9,0.8,2.8,1.2c0.9,0.4,1.8,0.8,2.8,1.2c0,0,0,0,0.1,0c0.9,0.4,1.9,0.8,2.8,1.2c1,0.4,1.9,0.8,2.9,1.2
			c0.9,0.4,1.9,0.8,2.8,1.2c1,0.4,1.9,0.8,2.9,1.2c0.5,0.2,1,0.4,1.4,0.6"/>
		<path class="st7" d="M109.5,61c1.1,0.2,3.1,0.5,6.3,1.2c2.3,0.5,4.5,1,6.8,1.5c2.3,0.5,4.5,1.1,6.8,1.7c2.3,0.6,4.5,1.2,6.8,1.9
			c2.3,0.7,4.5,1.4,6.8,2.1c2.3,0.7,4.5,1.5,6.8,2.3s4.5,1.6,6.8,2.4c2.3,0.8,4.5,1.7,6.8,2.5c2.3,0.9,4.5,1.8,6.8,2.7
			c2.3,0.9,4.5,1.8,6.8,2.7c2.3,0.9,4.5,1.9,6.8,2.8c1.9,0.8,3.9,1.6,5.8,2.4c0.3,0.1,0.7,0.3,1,0.4c0.6,0.3,1.2,0.5,1.8,0.8
			c0.9,0.4,1.9,0.8,2.8,1.2c0.7,0.3,1.4,0.6,2.1,0.9c0.2,0.1,0.4,0.2,0.7,0.3c0.9,0.4,1.9,0.8,2.8,1.2c0.9,0.4,1.9,0.8,2.8,1.2
			c0.2,0.1,0.3,0.1,0.5,0.2c0.8,0.3,1.5,0.7,2.3,1c0.9,0.4,1.9,0.8,2.8,1.2c0.5,0.2,1.1,0.5,1.6,0.7c0.4,0.2,0.8,0.3,1.2,0.5
			c0.9,0.4,1.9,0.8,2.8,1.2c0.9,0.4,1.8,0.8,2.8,1.2c0,0,0,0,0.1,0c0.9,0.4,1.9,0.8,2.8,1.2c1,0.4,1.9,0.8,2.9,1.2
			c0.9,0.4,1.9,0.8,2.8,1.2c1,0.4,1.9,0.8,2.9,1.2c0.5,0.2,1,0.4,1.4,0.6"/>
		<g>
			<line class="st0" x1="120.9" y1="363" x2="120.9" y2="333.4"/>
			<line class="st0" x1="219.3" y1="363" x2="219.3" y2="333.4"/>
			<line class="st0" x1="153.9" y1="363" x2="153.9" y2="328.7"/>
			<line class="st0" x1="119.4" y1="333.2" x2="122.4" y2="333.2"/>
			<line class="st0" x1="152.4" y1="328.4" x2="155.3" y2="328.4"/>
			<line class="st0" x1="185.3" y1="328.4" x2="188.3" y2="328.4"/>
			<line class="st0" x1="217.8" y1="333.1" x2="220.7" y2="333.1"/>
			<line class="st0" x1="186.8" y1="363" x2="186.8" y2="328.7"/>
			<path class="st0" d="M186.8,328.7c10.2,9.6,25.1,10.1,32.5,4.7"/>
			<line class="st0" x1="192" y1="341.2" x2="192" y2="332.8"/>
			<line class="st0" x1="193.3" y1="337.8" x2="193.3" y2="333.4"/>
			<path class="st0" d="M153.9,328.7c7.6,10.3,25.3,9.9,32.9,0"/>
			<path class="st0" d="M120.9,333.4c12,7.7,25.2,2.2,32.9-4.7"/>
			<rect x="137.4" y="348.7" class="st0" width="13.3" height="14.3"/>
			<line class="st0" x1="136.1" y1="348.7" x2="152" y2="348.7"/>
			<line class="st0" x1="140.7" y1="348.7" x2="140.7" y2="363"/>
			<line class="st0" x1="147.2" y1="348.7" x2="147.2" y2="363"/>
			<line class="st0" x1="143.8" y1="349.2" x2="143.8" y2="363"/>
			<line class="st0" x1="137.4" y1="355" x2="143.8" y2="355"/>
			<line class="st0" x1="179.6" y1="350.7" x2="193.3" y2="350.7"/>
			<line class="st0" x1="179.6" y1="352.5" x2="192.9" y2="352.5"/>
			<line class="st0" x1="192" y1="352.5" x2="192" y2="363"/>
			<line class="st0" x1="189.2" y1="352.5" x2="189.2" y2="363"/>
			<line class="st0" x1="183.7" y1="352.5" x2="183.7" y2="363"/>
			<line class="st0" x1="181.1" y1="352.5" x2="181.1" y2="363"/>
			<line class="st0" x1="156.1" y1="346.3" x2="168.2" y2="346.3"/>
			<line class="st0" x1="167" y1="346.3" x2="167" y2="363"/>
			<line class="st0" x1="157.1" y1="346.3" x2="157.1" y2="363"/>
			<line class="st0" x1="156.1" y1="353.8" x2="168.2" y2="353.8"/>
			<polyline class="st0" points="165.3,363 165.3,356.8 162.5,356.8 162.5,363 			"/>
			<polyline class="st0" points="157.1,350.7 160.2,350.7 160.2,353.8 			"/>
			<line class="st0" x1="158.6" y1="347.5" x2="165.3" y2="347.5"/>
			<line class="st0" x1="163.9" y1="347.5" x2="163.9" y2="349.5"/>
			<line class="st0" x1="161.5" y1="347.5" x2="161.5" y2="349.5"/>
			<line class="st0" x1="159.1" y1="347.5" x2="159.1" y2="349.5"/>
		</g>
		<rect x="232" y="353.4" class="st1" width="69.9" height="9.6"/>
		<g>
			<g>
				<polyline class="st0" points="343.5,347.3 343.5,347.3 342.9,348.1 				"/>
				<polyline class="st0" points="341.2,346.9 341.2,347 340.6,347.8 				"/>
				<polyline class="st0" points="346.8,342.8 347.8,341.4 347.9,341.3 346.2,340.1 346.1,340.2 345.1,341.6 				"/>
				<polyline class="st0" points="345.4,344.7 344.8,345.5 344.8,345.5 				"/>
				<polyline class="st0" points="343.1,344.4 342.5,345.2 342.5,345.2 				"/>
				<line class="st0" x1="341.6" y1="349.9" x2="340.9" y2="350.7"/>
				<line class="st0" x1="339.3" y1="349.6" x2="338.6" y2="350.4"/>
				<line class="st0" x1="338.8" y1="353.6" x2="338.1" y2="354.6"/>
				<line class="st0" x1="337.2" y1="352.4" x2="336.4" y2="353.4"/>
				<line class="st0" x1="342.7" y1="350.1" x2="342.1" y2="350.9"/>
				<polyline class="st0" points="337.5,350.2 338.1,349.4 339.3,349.6 				"/>
				<path class="st0" d="M340.8,352.7l-0.8,1.2c-0.2,0.2-0.4,0.3-0.7,0.1l-0.5-0.4l-1.7-1.2l-0.4-0.3"/>
				<polyline class="st0" points="341.9,344.2 341.3,345 341.3,345 				"/>
				<polyline class="st0" points="346.6,344.9 346,345.7 346,345.7 				"/>
				<path class="st0" d="M343.2,342.4l0.8-1.1c0.1-0.1,0.2-0.2,0.4-0.2c0,0,0.3,0.1,0.8,0.4c0.5,0.4,1.2,0.9,1.7,1.2
					c0.1,0.1,0.2,0.2,0.3,0.2"/>
				<polyline class="st0" points="340.6,347.8 339.4,347.6 340,346.8 				"/>
				<polyline class="st0" points="344.6,347.5 344.6,347.5 344,348.3 				"/>
				<path class="st0" d="M351.1,331.6l1-1.3c0.4-0.6,1.3-0.7,1.8-0.3c0.9,0.7,2.5,1.4,1.5,2.8l-1,1.3"/>
				<path class="st0" d="M336.4,353.4c-1.8-0.2-3.3,2.3-1.5,3.7c1.9,1.3,3.9-0.8,3.1-2.5c-0.1-0.3-0.4-0.6-0.7-0.8
					C337.1,353.6,336.7,353.4,336.4,353.4z"/>
				<path class="st0" d="M336.6,354.9c0.8,0.6-0.1,1.7-0.9,1.2C335,355.5,335.8,354.3,336.6,354.9z"/>
				<path class="st0" d="M354.5,334.1L354.5,334.1l-0.6-0.5l-2.7-2l-1.1-0.8c-0.1-0.1-0.2-0.1-0.4-0.1c-0.1,0-0.3,0.1-0.3,0.2
					l-5.2,7.1c-0.2,0.2-0.1,0.5,0.1,0.7l1.9,1.4l1.7,1.2l0.2,0.2"/>
				<path class="st0" d="M349.4,342.6l0.3,0.2c0.2,0.2,0.5,0.1,0.7-0.1l5.2-7.1c0.2-0.2,0.1-0.5-0.1-0.7l-0.3-0.2"/>
				<line class="st0" x1="348.6" y1="342" x2="348.8" y2="342.1"/>
				<polyline class="st0" points="354.5,334.1 354.5,334.1 354.4,334.1 354.4,334.1 				"/>
				<line class="st0" x1="355.2" y1="334.7" x2="354.7" y2="334.2"/>
				<line class="st0" x1="349.4" y1="342.6" x2="348.8" y2="342.1"/>
				<polyline class="st0" points="353.8,333.6 354.4,334.1 354.5,334.1 354.7,334.2 				"/>
				<polyline class="st0" points="348,341.6 348.6,342 348.8,342.1 348.8,342.1 				"/>
				<path class="st0" d="M347.1,343l1.6,0.2c1.3,0.2,1,2.1-0.3,1.9l-1.8-0.3l-1.2-0.2l-2.3-0.4l-1.2-0.2l-0.7-0.1
					c-0.5-0.1-0.9-0.6-0.8-1.1c0.1-0.5,0.6-0.9,1.1-0.8l1.7,0.3L347.1,343L347.1,343z"/>
				<path class="st0" d="M340,346.8l-0.7-0.1c-1.3-0.2-1-2.1,0.3-1.9l1.7,0.3l1.2,0.2l2.3,0.4l1.2,0.2l0.8,0.1
					c0.5,0.1,0.9,0.6,0.8,1.1s-0.6,0.9-1.1,0.8l-1.8-0.3l-1.2-0.2l-2.3-0.4L340,346.8z"/>
				<path class="st0" d="M339.3,349.6l2.3,0.4l1.2,0.2l1.8,0.3l0.1,0c0.5,0,0.9-0.3,1-0.8c0.1-0.5-0.3-1-0.8-1.1l-0.8-0.1l-1.2-0.2
					l-2.3-0.4"/>
				<path class="st0" d="M339.4,347.6l-1.7-0.3l-0.2,0c-0.5,0-0.9,0.3-1,0.8c-0.1,0.5,0.3,1,0.8,1.1l0.7,0.1"/>
				<path class="st0" d="M336.7,352.1L336.7,352.1l-1.3-0.2c-0.5-0.1-0.9-0.6-0.8-1.1c0.1-0.5,0.6-0.9,1.1-0.8l1.7,0.3h0l1.2,0.2
					l2.3,0.4l1.2,0.2l0.8,0.1c1.3,0.2,1,2.1-0.3,1.9l-1.8-0.3L336.7,352.1"/>
			</g>
			<g>
				<polyline class="st0" points="325.1,342.9 325.2,342.8 326.3,341.4 326.3,341.3 324.6,340.1 324.6,340.2 323.6,341.6 				"/>
				<line class="st0" x1="321.5" y1="344.4" x2="320.9" y2="345.2"/>
				<polyline class="st0" points="323.8,344.7 323.2,345.5 323.2,345.5 				"/>
				<line class="st0" x1="317.7" y1="349.6" x2="317.1" y2="350.4"/>
				<line class="st0" x1="320" y1="349.9" x2="319.4" y2="350.7"/>
				<line class="st0" x1="317.3" y1="353.6" x2="316.6" y2="354.6"/>
				<polyline class="st0" points="315.8,352.2 315.6,352.4 314.9,353.4 				"/>
				<polyline class="st0" points="319.6,346.9 319.6,347 319,347.8 				"/>
				<polyline class="st0" points="321.9,347.3 321.9,347.3 321.3,348.1 				"/>
				<line class="st0" x1="318.4" y1="346.8" x2="317.8" y2="347.6"/>
				<line class="st0" x1="323.1" y1="347.5" x2="322.5" y2="348.3"/>
				<path class="st0" d="M321.6,342.4l0.8-1.1c0.1-0.1,0.2-0.2,0.4-0.2c0,0,0.3,0.1,0.8,0.4c0.5,0.4,1.2,0.9,1.7,1.2
					c0.1,0.1,0.2,0.1,0.3,0.2"/>
				<polyline class="st0" points="320.3,344.2 319.7,345 319.7,345 				"/>
				<polyline class="st0" points="325,344.9 324.4,345.7 324.4,345.7 				"/>
				<line class="st0" x1="316.5" y1="349.4" x2="315.9" y2="350.2"/>
				<line class="st0" x1="321.2" y1="350.1" x2="320.6" y2="350.9"/>
				<path class="st0" d="M319.3,352.7l-0.9,1.2c-0.1,0.2-0.4,0.3-0.7,0.1l-0.5-0.4l-1.7-1.2l-0.4-0.3l0,0h0"/>
				<path class="st0" d="M333,334.1l1-1.3c0.9-1.3-0.7-2.1-1.6-2.8c-0.6-0.4-1.4-0.3-1.8,0.3l-1,1.3l2.7,2"/>
				<path class="st0" d="M314.9,353.4c-1.8-0.2-3.3,2.3-1.5,3.7c1.9,1.3,3.9-0.8,3.1-2.5c-0.1-0.3-0.4-0.6-0.7-0.8
					C315.5,353.6,315.2,353.4,314.9,353.4z"/>
				<path class="st0" d="M315.1,354.9c0.8,0.6-0.1,1.8-0.9,1.2C313.4,355.5,314.3,354.3,315.1,354.9z"/>
				<path class="st0" d="M327.9,342.6l0.3,0.2c0.2,0.2,0.5,0.1,0.7-0.1l5.2-7.1c0.2-0.2,0.1-0.5-0.1-0.7l-0.3-0.2l-0.6-0.4"/>
				<line class="st0" x1="327.4" y1="342.2" x2="327.9" y2="342.6"/>
				<path class="st0" d="M329.6,331.6l-1.1-0.8c-0.2-0.2-0.5-0.1-0.7,0.1l-5.2,7.1c-0.2,0.2-0.1,0.5,0.1,0.7l1.9,1.4l1.7,1.2
					l0.2,0.2"/>
				<polyline class="st0" points="327.9,342.6 327.9,342.6 327.4,342.2 327.3,342.1 				"/>
				<polyline class="st0" points="332.3,333.6 332.9,334.1 333,334.1 333.1,334.2 				"/>
				<polyline class="st0" points="326.5,341.6 327.1,342 327.3,342.1 				"/>
				<path class="st0" d="M321.6,342.4l-1.7-0.3c-0.5-0.1-1,0.3-1.1,0.8c-0.1,0.5,0.3,1,0.8,1.1l0.7,0.1l1.2,0.2l2.3,0.4l1.2,0.2
					l1.8,0.3c1.3,0.2,1.6-1.7,0.3-1.9l-1.6-0.2l-0.4-0.1L321.6,342.4z"/>
				<path class="st0" d="M318.4,346.8l-0.7-0.1c-1.3-0.2-1-2.1,0.3-1.9l1.7,0.3l1.2,0.2l2.3,0.4l1.2,0.2l0.8,0.1
					c0.5,0.1,0.9,0.6,0.8,1.1c-0.1,0.5-0.6,0.9-1.1,0.8l-1.8-0.3l-1.2-0.2l-2.3-0.4L318.4,346.8z"/>
				<path class="st0" d="M316.5,349.4l-0.7-0.1c-0.5-0.1-0.9-0.6-0.8-1.1c0.1-0.5,0.6-0.9,1.1-0.8l1.7,0.3v0l1.2,0.2l2.3,0.4
					l1.2,0.2l0.8,0.1c0.5,0.1,0.9,0.6,0.8,1.1c-0.1,0.5-0.6,0.9-1.1,0.8l-1.8-0.3l-1.2-0.2l-2.3-0.4L316.5,349.4z"/>
				<path class="st0" d="M315.2,352.1l-1.3-0.2c-0.5-0.1-0.9-0.6-0.8-1.1c0.1-0.5,0.6-0.9,1.1-0.8l1.7,0.3l1.2,0.2l2.3,0.4l1.2,0.2
					l0.8,0.1c1.3,0.2,1,2.1-0.3,1.9l-1.8-0.3l-3.5-0.5L315.2,352.1z"/>
			</g>
		</g>
		<rect x="0.5" y="324.4" class="st5" width="24.9" height="38.6"/>
		<g>
			<rect x="97" y="351.9" class="st1" width="6.2" height="5.5"/>
			<rect x="90.8" y="346.4" class="st1" width="6.2" height="5.5"/>
			<rect x="90.8" y="335.3" class="st1" width="6.2" height="5.5"/>
			<polyline class="st7" points="84.7,329.8 90.8,329.8 97,329.8 103.2,329.8 109.4,329.8 			"/>
			<polyline class="st7" points="84.7,335.3 90.8,335.3 97,335.3 103.2,335.3 109.4,335.3 			"/>
			<polyline class="st7" points="84.7,340.9 90.8,340.9 97,340.9 103.2,340.9 109.4,340.9 			"/>
			<polyline class="st7" points="84.7,346.4 90.8,346.4 97,346.4 103.2,346.4 109.4,346.4 			"/>
			<polyline class="st7" points="84.7,351.9 90.8,351.9 97,351.9 103.2,351.9 109.4,351.9 			"/>
			<polyline class="st7" points="84.7,357.5 90.8,357.5 97,357.5 103.2,357.5 109.4,357.5 			"/>
			<polyline class="st7" points="90.8,324.5 90.8,329.8 90.8,335.3 90.8,340.9 90.8,346.4 90.8,351.9 90.8,357.5 90.8,363 			"/>
			<polyline class="st7" points="97,324.5 97,329.8 97,335.3 97,340.9 97,346.4 97,351.9 97,357.5 97,363 			"/>
			<polyline class="st7" points="103.2,324.5 103.2,329.8 103.2,335.3 103.2,340.9 103.2,346.4 103.2,351.9 103.2,357.5 103.2,363 
							"/>
		</g>
		<line class="st0" x1="171.2" y1="362.6" x2="171.2" y2="343.7"/>
		<line class="st0" x1="176.1" y1="362.6" x2="176.1" y2="343.7"/>
		<line class="st0" x1="171.2" y1="358" x2="176.1" y2="358"/>
		<line class="st0" x1="171.2" y1="353.1" x2="176.1" y2="353.1"/>
		<line class="st0" x1="171.2" y1="348.5" x2="176.1" y2="348.5"/>
		<line class="st0" x1="171.2" y1="343.7" x2="176.1" y2="348.5"/>
		<line class="st0" x1="171.2" y1="348.6" x2="176.1" y2="353.4"/>
		<line class="st0" x1="171.2" y1="353.4" x2="176.1" y2="358.1"/>
		<path class="st0" d="M176,343.7h-5.1c-1.1,0-2-0.9-2-2v-5c0-1.1,0.9-2,2-2h5.1c1.1,0,2,0.9,2,2v5C178,342.8,177.1,343.7,176,343.7
			z"/>
		<line class="st0" x1="168.9" y1="338.9" x2="178" y2="338.9"/>
		<line class="st0" x1="168.9" y1="336.6" x2="178" y2="336.6"/>
		<line class="st0" x1="168.9" y1="341.6" x2="178" y2="341.6"/>
		<g>
			<path class="st6" d="M138.5,361.8h-12.4v-5.1h10.2c1.3,0,2.2,2.2,2.2,2.2V361.8z"/>
			<line class="st6" x1="126.1" y1="359" x2="138.3" y2="359"/>
			<line class="st6" x1="133.5" y1="361.8" x2="133.5" y2="359.3"/>
			<circle class="st6" cx="128.7" cy="361.9" r="1.2"/>
			<circle class="st6" cx="135.9" cy="361.9" r="1.2"/>
		</g>
		<line class="st0" x1="366.3" y1="298.2" x2="109.7" y2="298.2"/>
		<line class="st0" x1="366.3" y1="205.3" x2="281.8" y2="205.3"/>
		<g>
			<polygon class="st1" points="314,298.3 281.8,298.3 281.8,324.2 314,324.2 314,317.7 314,311.3 314,304.8 			"/>
			<rect x="320.5" y="304.5" class="st1" width="6.6" height="6.6"/>
			<rect x="327.1" y="311.1" class="st1" width="6.6" height="6.6"/>
			<rect x="340.2" y="311.1" class="st1" width="6.6" height="6.6"/>
			<rect x="359.8" y="298" class="st1" width="6.6" height="6.6"/>
			<rect x="353.3" y="304.5" class="st1" width="6.6" height="6.6"/>
			<polyline class="st7" points="353.3,324.2 353.3,320.3 353.3,313 353.3,305.7 353.3,298.3 			"/>
			<polyline class="st7" points="359.8,324.2 359.8,320.3 359.8,313 359.8,305.7 359.8,298.3 			"/>
			<polyline class="st7" points="366.3,324.2 366.3,320.3 366.3,313 366.3,305.7 366.3,298.3 			"/>
			<polyline class="st7" points="346.7,324.2 346.7,320.3 346.7,313 346.7,305.7 346.7,298.3 			"/>
			<polyline class="st7" points="340.2,324.2 340.2,320.3 340.2,313 340.2,305.7 340.2,298.3 			"/>
			<polyline class="st7" points="333.6,324.2 333.6,320.3 333.6,313 333.6,305.7 333.6,298.3 			"/>
			<polyline class="st7" points="327.1,324.2 327.1,320.3 327.1,313 327.1,305.7 327.1,298.3 			"/>
			<polyline class="st7" points="320.5,324.2 320.5,320.3 320.5,313 320.5,305.7 320.5,298.3 			"/>
			<polyline class="st7" points="366.3,311.1 353.3,311.1 346.7,311.1 340.2,311.1 333.6,311.1 327.1,311.1 320.5,311.1 314,311.1 
							"/>
			<polyline class="st7" points="366.3,304.5 353.3,304.5 346.7,304.5 340.2,304.5 333.6,304.5 327.1,304.5 320.5,304.5 314,304.5 
							"/>
			<polyline class="st7" points="366.3,317.6 353.3,317.6 346.7,317.6 340.2,317.6 333.6,317.6 327.1,317.6 320.5,317.6 314,317.6 
							"/>
		</g>
		<g>
			<path class="st6" d="M235.6,190.9c0,2.9-0.8,5.6-2.2,7.9c-1.7,2.8-4.2,5.1-7.3,6.4c-0.7,0.3-1.5,0.6-2.2,0.8
				c-1.2,0.3-2.5,0.5-3.9,0.5c-1.4,0-2.8-0.2-4.1-0.5c-1.6,4.2-5.6,7.2-10.3,7.2c-6.1,0-11.1-5-11.1-11.1c0-5.8,4.4-10.5,10-11v-0.1
				c0-7.7,5.6-14.1,13-15.3c0.8-0.1,1.7-0.2,2.5-0.2c6.9,0,12.8,4.5,14.8,10.8C235.3,187.7,235.6,189.2,235.6,190.9z"/>
			<rect x="109.7" y="252.8" class="st6" width="73.2" height="45.3"/>
			<rect x="118.5" y="261.3" class="st6" width="11" height="7.3"/>
			<rect x="118.5" y="275.4" class="st6" width="11" height="7.3"/>
			<rect x="137.2" y="261.3" class="st6" width="11" height="7.3"/>
			<rect x="156.2" y="261.3" class="st6" width="11" height="7.3"/>
			<path class="st6" d="M254.1,225.1c-0.8,30.5,3.6,41.3,10,53.9"/>
			<path class="st6" d="M224,222.3c-0.8,30.5,3.6,41.3,10,53.9"/>
			<path class="st0" d="M187.9,222.3c0.1,2.5,0.1,4.9,0.1,7.1"/>
			<rect x="187.9" y="222.3" class="st5" width="36" height="7.1"/>
			<polyline class="st10" points="224.2,225.1 254,225.1 254,232.3 224.2,232.3 			"/>
			<path class="st6" d="M250.8,182.9c-8.6,0-15.5,6.9-15.5,15.5c0,0,0,0,0,0.1c-5.6,0.5-10,5.3-10,11c0,6.1,5,11.1,11.1,11.1
				c4.7,0,8.8-3,10.3-7.2c1.3,0.4,2.7,0.6,4.1,0.6c8.6,0,15.5-6.9,15.5-15.5C266.3,189.8,259.4,182.9,250.8,182.9z"/>
			<path class="st6" d="M157.5,157.7c-2,0-3.9,0.6-5.5,1.6c-1.3-2-3.6-3.3-6.2-3.3c-3.5,0-6.5,2.5-7.3,5.8c-1-0.5-2.1-0.8-3.3-0.8
				c-4.1,0-7.5,3.3-7.5,7.5c0,4.1,3.3,7.5,7.5,7.5c3.5,0,6.5-2.5,7.3-5.8c1,0.5,2.1,0.8,3.3,0.8c0.5,0,0.9,0,1.3-0.1
				c1.1,4.8,5.3,8.4,10.4,8.4c5.9,0,10.7-4.8,10.7-10.7C168.2,162.5,163.4,157.7,157.5,157.7z"/>
			<polygon class="st5" points="145.8,235.5 121.5,235.5 122.7,218.1 144.5,218.1 			"/>
			<polygon class="st0" points="144.5,218.1 122.7,218.1 123.9,201.7 143.4,201.7 			"/>
			<path class="st5" d="M143.4,201.7h-19.5l1-13.9c0.2-3.5,0.2-6.1,3.7-6.1h10.6c3.5,0,3,2.7,3.2,6.1L143.4,201.7z"/>
			<polygon class="st6" points="147,252.8 120.3,252.8 121.5,235.5 145.8,235.5 			"/>
			<rect x="146" y="276.2" class="st6" width="122.7" height="21.8"/>
			<g>
				<line class="st0" x1="161.7" y1="282" x2="161.7" y2="286.3"/>
				<rect x="165.4" y="282" class="st6" width="4.3" height="4.3"/>
			</g>
			<g>
				<line class="st0" x1="178.5" y1="282" x2="178.5" y2="286.3"/>
				<rect x="182.2" y="282" class="st6" width="4.3" height="4.3"/>
			</g>
			<g>
				<line class="st0" x1="195.3" y1="282" x2="195.3" y2="286.3"/>
				<rect x="199" y="282" class="st6" width="4.3" height="4.3"/>
			</g>
			<g>
				<line class="st0" x1="212.2" y1="282" x2="212.2" y2="286.3"/>
				<rect x="215.9" y="282" class="st6" width="4.3" height="4.3"/>
			</g>
			<g>
				<line class="st0" x1="229" y1="282" x2="229" y2="286.3"/>
				<rect x="232.7" y="282" class="st6" width="4.3" height="4.3"/>
			</g>
			<g>
				<line class="st0" x1="245.8" y1="282" x2="245.8" y2="286.3"/>
				<rect x="249.5" y="282" class="st6" width="4.3" height="4.3"/>
			</g>
		</g>
		<line class="st0" x1="176.8" y1="150.7" x2="109.5" y2="109.5"/>
		<polyline class="st0" points="217.6,175.6 234.9,186.2 238.8,188.6 264.1,204.1 		"/>
		<line class="st0" x1="230.4" y1="169.2" x2="230.4" y2="183.4"/>
		<line class="st11" x1="123.9" y1="261.6" x2="123.9" y2="268.5"/>
		<line class="st11" x1="121.5" y1="275.6" x2="121.5" y2="282.5"/>
		<line class="st11" x1="142.7" y1="261.6" x2="142.7" y2="268.5"/>
		<line class="st11" x1="164" y1="261.6" x2="164" y2="268.5"/>
		<polygon class="st12" points="143.4,201.7 123.9,201.7 122.8,196.4 144.5,196.4 		"/>
		<polygon class="st6" points="145.6,235.5 121.6,235.5 120.3,230.2 147,230.2 		"/>
		<polygon class="st13" points="147,252.8 120.3,252.8 120.7,248.2 146.7,248.2 		"/>
		<line class="st2" x1="188.3" y1="234.7" x2="210.7" y2="234.7"/>
		<line class="st2" x1="224.2" y1="266.3" x2="254" y2="266.3"/>
		<line class="st2" x1="189" y1="272.2" x2="260.8" y2="272.2"/>
		<g>
			<path class="st6" d="M240.7,135.6c-1.1,1.4-1.8,3.2-2.1,5.1c-0.8,5.5,2.7,11,8.1,12.5c0.7,0.2,1.4,0.3,2,0.4
				c2.5,0.3,4.8,1.7,6.1,3.8l12.5,19.3c1.1,1.7,3.4,2.2,5.1,1.1l0.7-0.4c1.7-1.1,2.2-3.4,1.1-5.1l-12.6-19.4c-1.4-2.1-1.8-4.7-1-7.1
				c0.2-0.7,0.4-1.4,0.5-2.1c0.7-5.5-2.9-10.9-8.2-12.3c-1.8-0.5-3.6-0.5-5.2-0.2l4.3,6.6c0.7,1,0.4,2.4-0.6,3l-3.2,2
				c-1,0.7-2.4,0.4-3-0.6L240.7,135.6z"/>
			<line class="st14" x1="247.7" y1="146.5" x2="254.6" y2="142.1"/>
			<line class="st14" x1="250" y1="148" x2="255" y2="144.7"/>
			<line class="st14" x1="271.2" y1="175.7" x2="269.7" y2="173.3"/>
		</g>
		<g>
			<path class="st15" d="M239.6,316.2c0.3-0.1,0.5-0.1,0.8-0.2c0.3,0.2,0.6,0.3,0.9,0.4c0.2,0.5,0.5,1,1,1.4c0.3,0,0.6,0,0.9,0"/>
			<path class="st15" d="M237,312.5c0.2,0.1,0.5,0.3,0.7,0.4c0.1,0.3,0.2,0.6,0.4,0.9c-0.2,0.5-0.3,1-0.3,1.6l0.3,0.4l0.3,0.3"/>
			<path class="st15" d="M237.8,308.1c0.1,0.3,0.1,0.5,0.2,0.8c-0.2,0.3-0.3,0.6-0.4,0.9c-0.5,0.2-1,0.5-1.4,1c0,0.3,0,0.6,0,0.9"/>
			<path class="st15" d="M241.4,305.6c-0.1,0.2-0.3,0.5-0.4,0.7c-0.3,0.1-0.6,0.2-0.9,0.4c-0.5-0.2-1-0.3-1.6-0.3l-0.4,0.3l-0.3,0.3
				"/>
			<path class="st15" d="M245.8,306.3c-0.1,0-0.1,0-0.2,0.1c-0.2,0.1-0.4,0.1-0.6,0.2c-0.3-0.2-0.6-0.3-0.9-0.4
				c-0.2-0.5-0.5-1-1-1.4c-0.3,0-0.6,0-0.9,0"/>
			<path class="st15" d="M248.4,310c-0.2-0.1-0.5-0.3-0.7-0.4c-0.1-0.3-0.2-0.6-0.4-0.9c0.2-0.5,0.3-1,0.3-1.6l-0.3-0.4l-0.3-0.3"/>
			<path class="st15" d="M247.6,314.4c-0.1-0.3-0.1-0.5-0.2-0.8c0.2-0.3,0.3-0.6,0.4-0.9c0.5-0.2,1-0.5,1.4-1c0-0.3,0-0.6,0-0.9"/>
			<path class="st15" d="M244,316.9c0.1-0.2,0.3-0.5,0.4-0.7c0.3-0.1,0.6-0.2,0.9-0.4c0.5,0.2,1,0.3,1.6,0.3l0.4-0.3l0.3-0.3"/>
			<path class="st15" d="M245,311.3c0,1.3-1,2.3-2.3,2.3c-1.3,0-2.3-1-2.3-2.3s1-2.3,2.3-2.3C244,309,245,310,245,311.3z"/>
			<path class="st15" d="M243.6,311.3c0,0.5-0.4,0.9-0.9,0.9c-0.5,0-0.9-0.4-0.9-0.9c0-0.5,0.4-0.9,0.9-0.9
				C243.2,310.3,243.6,310.7,243.6,311.3z"/>
		</g>
		<g>
			<line class="st7" x1="136.3" y1="82.3" x2="156.2" y2="62.4"/>
			<line class="st7" x1="136.2" y1="79.1" x2="153.6" y2="61.7"/>
			<line class="st7" x1="136.5" y1="75.5" x2="151.2" y2="60.8"/>
			<line class="st7" x1="136.4" y1="72.3" x2="148.7" y2="60"/>
			<line class="st7" x1="136.3" y1="69" x2="146.1" y2="59.2"/>
			<line class="st7" x1="135.1" y1="66.9" x2="143.7" y2="58.3"/>
			<line class="st7" x1="132.6" y1="66.1" x2="141.2" y2="57.5"/>
			<line class="st7" x1="129.8" y1="65.5" x2="138.7" y2="56.7"/>
		</g>
		<polygon class="st16" points="136.3,82.3 136.2,67.3 147.5,71 		"/>
		<rect x="230.4" y="0.5" class="st5" width="51.5" height="51.5"/>
		<g>
			<g id="XMLID_00000080923219325205855730000000129267454642470032_">
				<g>
					<polygon class="st1" points="340.3,169.2 340.3,195.4 325.3,195.4 325.3,179.3 329.6,176.4 					"/>
					<polygon class="st17" points="325.3,179.3 325.3,195.4 320.9,195.4 320.9,182.3 					"/>
					<polygon class="st1" points="325.3,169.2 325.3,179.3 320.9,182.3 320.9,195.4 310.4,195.4 310.4,179.3 314.1,176.8 
						314.1,176.8 					"/>
					<polygon class="st17" points="310.4,179.3 310.4,195.4 306,195.4 306,182.3 					"/>
					<polygon class="st1" points="310.4,169.2 310.4,179.3 306,182.3 306,195.4 291,195.4 291,182.3 					"/>
				</g>
				<g>
					<polyline class="st7" points="306,195.4 291,195.4 291,182.3 310.4,169.2 310.4,179.3 310.4,195.4 					"/>
					<polyline class="st7" points="314.1,176.8 325.3,169.2 325.3,179.3 325.3,195.4 					"/>
					<polyline class="st7" points="320.9,195.4 310.4,195.4 306,195.4 306,182.3 310.4,179.3 314.1,176.8 					"/>
					<polygon class="st7" points="329.6,176.4 340.3,169.2 340.3,195.4 325.3,195.4 320.9,195.4 320.9,182.3 325.3,179.3 					"/>
					<polyline class="st7" points="314.1,176.8 314.1,176.8 315.7,148.7 328,148.7 329.1,169 329.6,176.4 					"/>
					<path class="st7" d="M321.5,135.3c0-2.4,0.9-4.7,2.7-6.5c2.9-2.9,7.5-2.9,10.4,0c2.3,2.3,2.3,6,0,8.3c-1.8,1.8-4.8,1.8-6.6,0
						c-1.5-1.5-1.5-3.8,0-5.3c1.2-1.2,3.1-1.2,4.3,0c0.9,0.9,0.9,2.5,0,3.4c-0.8,0.8-2,0.8-2.7,0"/>
					<polyline class="st7" points="321.5,134.2 321.5,135.3 321.5,145.9 					"/>
				</g>
			</g>
		</g>
		<g>
			<g id="XMLID_00000180334820591149599980000008903242706516279960_">
				<g>
					<rect x="319.3" y="285.5" class="st1" width="8" height="3.5"/>
					<path class="st1" d="M301.7,272.7l-0.2-0.5l7.5-3.2l0.6,1.4c0,0.1,0.1,0.1,0.1,0.2l-7.5,3.2h0L301.7,272.7z"/>
					<path class="st1" d="M301.2,277c1.6,0,2.9,1.3,2.9,2.9c0,1.6-1.3,2.9-2.9,2.9c-1.6,0-2.9-1.3-2.9-2.9
						C298.3,278.3,299.6,277,301.2,277z"/>
					<path class="st1" d="M300.4,254.8c0.5,1.2,0,2.5-1.1,3.1c-1.2,0.5-2.5,0-3.1-1.1c-0.5-1.2,0-2.5,1.1-3.1
						S299.8,253.6,300.4,254.8z"/>
				</g>
				<g>
					<path class="st7" d="M309.1,274.6c-0.4,0.5-0.9,0.9-1.5,1.2c0,0,0,0-0.1,0c-0.7,0.3-1.4,0.4-2,0.3c-0.8-0.1-1.6-0.4-2.2-0.9
						c-0.4-0.4-0.8-0.8-1.1-1.4l0,0l-0.5-1l-0.2-0.5l-0.7-1.6l-2.8-6l-3.4-7.3c-1-2-0.1-4.4,2-5.4c0.6-0.3,1.1-0.4,1.7-0.4
						c0.6,0,1.3,0.2,1.9,0.5c0.8,0.4,1.4,1,1.8,1.9l1.5,3.3l4.8,10.2l0.7,1.6l0.6,1.4c0,0.1,0.1,0.1,0.1,0.2
						c0.2,0.6,0.3,1.2,0.3,1.8C309.9,273.1,309.6,273.9,309.1,274.6"/>
					<path class="st7" d="M300.4,254.8c-0.5-1.2-1.9-1.7-3.1-1.1s-1.7,1.9-1.1,3.1c0.5,1.2,1.9,1.7,3.1,1.1
						C300.4,257.3,300.9,256,300.4,254.8z"/>
					<path class="st7" d="M307.5,275.8c1.1,1.4,1.7,3.1,1.7,5v13.3v4.2"/>
					<path class="st7" d="M293.1,298.2v-4.2v-13.3c0-2.6,1.3-5,3.2-6.4c1.4-1.1,3.1-1.7,4.9-1.7c0.2,0,0.3,0,0.5,0h0"/>
					<line class="st7" x1="335.3" y1="298.2" x2="336.2" y2="298.2"/>
					<polyline class="st7" points="289.2,298.2 293.1,298.2 294.4,298.2 296.3,298.2 298.2,298.2 300.1,298.2 302,298.2 
						303.9,298.2 305.8,298.2 307.7,298.2 309.3,298.2 319.3,298.2 					"/>
					<path class="st7" d="M304.1,279.9c0-1.6-1.3-2.9-2.9-2.9c-1.6,0-2.9,1.3-2.9,2.9c0,1.6,1.3,2.9,2.9,2.9
						C302.8,282.8,304.1,281.5,304.1,279.9z"/>
					<path class="st7" d="M300.1,252l15.3-6.3c1.5-0.6,3.3,0.1,4,1.7c0.2,0.4,0.2,0.8,0.2,1.1c0,0.4-0.1,0.7-0.2,1.1
						c-0.3,0.8-0.9,1.4-1.7,1.7l-0.2,0.1l-13.9,5.8"/>
					<line class="st7" x1="315.7" y1="247.4" x2="303.6" y2="252.5"/>
					<line class="st7" x1="308.2" y1="267.4" x2="300.7" y2="270.6"/>
					<line class="st7" x1="308.9" y1="269" x2="301.5" y2="272.2"/>
					<line class="st7" x1="309.7" y1="270.6" x2="302.2" y2="273.8"/>
					<line class="st7" x1="309.9" y1="272.3" x2="303.3" y2="275.2"/>
					<polyline class="st7" points="309.1,274.6 309.1,274.6 305.5,276.1 305.5,276.1 					"/>
					<polyline class="st7" points="323.3,253.2 322.1,253.7 319.6,254.7 317.4,255.5 					"/>
					<line class="st7" x1="319.3" y1="249.6" x2="322.1" y2="253.7"/>
					<polyline class="st7" points="323.3,253.2 330.3,263.9 331.5,265.6 328.4,265.6 326.2,265.6 324,265.6 322.9,263.9 
						317.4,255.5 					"/>
					<line class="st7" x1="319.5" y1="254.6" x2="317.5" y2="251.5"/>
					<line class="st7" x1="326.2" y1="265.6" x2="326.2" y2="268.8"/>
					<line class="st7" x1="328.4" y1="265.6" x2="328.4" y2="268.8"/>
					<polyline class="st7" points="322.9,270.2 320.1,275 323.7,281.3 					"/>
					<polyline class="st7" points="330.9,281.3 334.5,275 331.7,270.2 330.9,268.8 328.4,268.8 326.2,268.8 323.7,268.8 
						322.9,270.2 					"/>
					<line class="st7" x1="330.3" y1="263.9" x2="322.9" y2="263.9"/>
					<polyline class="st7" points="322.9,270.2 322.9,270.2 331.7,270.2 331.7,270.2 					"/>
					<path class="st7" d="M296.2,274.3c-2.2-3.2-1.4-7.5,1.7-9.7"/>
					<polyline class="st7" points="293.1,294.1 294.4,294.1 296.3,294.1 298.2,294.1 300.1,294.1 302,294.1 303.9,294.1 
						305.8,294.1 307.7,294.1 309.3,294.1 					"/>
					<line class="st7" x1="294.4" y1="294.1" x2="294.4" y2="298.2"/>
					<line class="st7" x1="296.3" y1="294.1" x2="296.3" y2="298.2"/>
					<line class="st7" x1="298.2" y1="294.1" x2="298.2" y2="298.2"/>
					<line class="st7" x1="300.1" y1="294.1" x2="300.1" y2="298.2"/>
					<line class="st7" x1="302" y1="294.1" x2="302" y2="298.2"/>
					<line class="st7" x1="303.9" y1="294.1" x2="303.9" y2="298.2"/>
					<line class="st7" x1="305.8" y1="294.1" x2="305.8" y2="298.2"/>
					<line class="st7" x1="307.7" y1="294.1" x2="307.7" y2="298.2"/>
					<polygon class="st7" points="335.3,298.2 319.3,298.2 319.3,289 319.3,285.5 327.3,285.5 335.3,285.5 335.3,289 					"/>
					<polyline class="st7" points="319.3,289 327.3,289 335.3,289 					"/>
					<line class="st7" x1="327.3" y1="285.5" x2="327.3" y2="289"/>
				</g>
			</g>
		</g>
		<g>
			<path class="st6" d="M248.7,16.9c-4.9,2.6-8.3,7.7-8.3,13.7c0,0.3,0,0.6,0,0.9c-1.4,0.5-2.3,1.9-2.3,3.5c0,1.3,0.7,2.5,1.8,3.2
				c0.6,0.5,1.8,0.9,3.2,1.2c6.3,1.4,19.1,1,25.6-0.1c1.8-0.3,3.1-0.7,3.7-1.1c0,0,0.1,0,0.1-0.1l-0.1,0.1c0,0,0.1,0,0.1-0.1
				c1-0.7,1.6-1.8,1.6-3.1c0-1.7-1.2-3.2-2.8-3.6c0-0.2,0-0.5,0-0.7c0-5.8-3.2-10.9-7.9-13.5"/>
			<path class="st6" d="M268.7,35.9c-6.5,1.2-19.3,1.5-25.6,0.1"/>
			<polyline class="st6" points="248.7,21.6 248.7,15.2 252,15.2 260.3,15.2 263.4,15.2 263.4,21.6 			"/>
			<polyline class="st6" points="252,26.6 252,13.2 260.3,13.2 260.3,26.6 			"/>
		</g>
		<g>
			<rect x="25.4" y="235.2" class="st0" width="22" height="127.8"/>
			<rect x="28.9" y="210.6" class="st0" width="14.9" height="24.7"/>
			<polyline class="st0" points="32.3,210.6 32.3,169.5 76.6,169.5 76.6,210.6 			"/>
			<rect x="65.7" y="210.6" class="st0" width="14.9" height="24.7"/>
			<rect x="62.6" y="235.2" class="st0" width="22" height="127.8"/>
			<line class="st0" x1="32.3" y1="215.7" x2="32.3" y2="229.9"/>
			<line class="st0" x1="35.7" y1="215.7" x2="35.7" y2="229.9"/>
			<line class="st0" x1="39.1" y1="215.7" x2="39.1" y2="229.9"/>
			<line class="st0" x1="32.3" y1="242.6" x2="32.3" y2="310"/>
			<line class="st0" x1="35.7" y1="242.6" x2="35.7" y2="310"/>
			<line class="st0" x1="39.1" y1="242.6" x2="39.1" y2="310"/>
			<line class="st0" x1="69.8" y1="215.7" x2="69.8" y2="229.9"/>
			<line class="st0" x1="73.2" y1="215.7" x2="73.2" y2="229.9"/>
			<line class="st0" x1="76.6" y1="215.7" x2="76.6" y2="229.9"/>
			<line class="st0" x1="69.8" y1="242.6" x2="69.8" y2="283.6"/>
			<line class="st0" x1="73.2" y1="242.6" x2="73.2" y2="280.7"/>
			<line class="st0" x1="76.6" y1="242.6" x2="76.6" y2="278"/>
			<rect x="52.5" y="242" class="st5" width="3.8" height="3.8"/>
			<rect x="40.6" y="190.8" class="st0" width="3.8" height="3.8"/>
			<rect x="65.1" y="190.8" class="st0" width="3.8" height="3.8"/>
			<rect x="56.9" y="190.8" class="st0" width="3.8" height="3.8"/>
			<rect x="48.8" y="190.8" class="st0" width="3.8" height="3.8"/>
			<rect x="40.6" y="183.3" class="st0" width="3.8" height="3.8"/>
			<rect x="65.1" y="183.3" class="st0" width="3.8" height="3.8"/>
			<rect x="56.9" y="183.3" class="st0" width="3.8" height="3.8"/>
			<rect x="48.8" y="183.3" class="st0" width="3.8" height="3.8"/>
			<rect x="40.6" y="175.8" class="st0" width="3.8" height="3.8"/>
			<rect x="65.1" y="175.8" class="st0" width="3.8" height="3.8"/>
			<rect x="56.9" y="175.8" class="st0" width="3.8" height="3.8"/>
			<rect x="48.8" y="175.8" class="st0" width="3.8" height="3.8"/>
			<rect x="48.7" y="198.7" class="st5" width="3.8" height="31.2"/>
			<rect x="38.5" y="164.6" class="st5" width="32" height="4.9"/>
			<rect x="56.8" y="198.7" class="st5" width="3.8" height="31.2"/>
			<rect x="52.5" y="286.2" class="st5" width="3.8" height="3.8"/>
			<rect x="52.5" y="278.8" class="st5" width="3.8" height="3.8"/>
			<rect x="52.5" y="271.5" class="st5" width="3.8" height="3.8"/>
			<rect x="52.5" y="264.1" class="st5" width="3.8" height="3.8"/>
			<rect x="52.5" y="256.7" class="st5" width="3.8" height="3.8"/>
			<rect x="52.5" y="249.4" class="st5" width="3.8" height="3.8"/>
			<g>
				<polygon class="st0" points="64.2,164.6 59.2,157.6 49.3,157.6 44.4,164.6 				"/>
			</g>
			<rect x="50.8" y="132.2" class="st0" width="7" height="25.5"/>
			<path class="st0" d="M57.8,133.5h-7v-1.1c0-1.9,1.6-3.5,3.5-3.5h0c1.9,0,3.5,1.6,3.5,3.5V133.5z"/>
			<line class="st0" x1="54.3" y1="109" x2="54.3" y2="129"/>
		</g>
		<line class="st0" x1="281.8" y1="56" x2="230.4" y2="56"/>
		<line class="st7" x1="281.8" y1="195.4" x2="366.4" y2="195.4"/>
		<g>
			<path class="st6" d="M236.5,71.9v44.7h33.2L236.5,71.9z M242.2,89l16.2,21.8h-16.2V89z"/>
			<line class="st6" x1="236.5" y1="81.1" x2="239.4" y2="81.1"/>
			<line class="st6" x1="236.5" y1="97" x2="239.4" y2="97"/>
			<line class="st6" x1="236.5" y1="113" x2="239.4" y2="113"/>
			<g>
				<line class="st6" x1="236.5" y1="109.7" x2="237.9" y2="109.7"/>
				<line class="st6" x1="236.5" y1="105" x2="237.9" y2="105"/>
				<line class="st6" x1="236.5" y1="100.3" x2="237.9" y2="100.3"/>
			</g>
			<g>
				<line class="st6" x1="236.5" y1="93.8" x2="237.9" y2="93.8"/>
				<line class="st6" x1="236.5" y1="89" x2="237.9" y2="89"/>
				<line class="st6" x1="236.5" y1="84.3" x2="237.9" y2="84.3"/>
			</g>
			<polygon class="st6" points="253.7,119.6 251.2,117.9 248.7,119.6 248.7,110.9 253.7,110.9 			"/>
			
				<rect x="241.7" y="85" transform="matrix(0.6091 0.7931 -0.7931 0.6091 171.3775 -171.5143)" class="st6" width="36.1" height="6.2"/>
			<path class="st6" d="M246.3,75.7l-2-2.6c-0.8-1-0.6-2.4,0.4-3.2l1.3-1c1-0.8,2.4-0.6,3.2,0.4l2,2.6L246.3,75.7z"/>
			<polygon class="st6" points="276.7,110.9 273,108 275.1,106.4 			"/>
			<polygon class="st6" points="273,108 268.2,104.3 273.1,100.5 275.1,106.4 			"/>
			
				<rect x="241.7" y="87.1" transform="matrix(0.6091 0.7931 -0.7931 0.6091 171.3772 -171.5142)" class="st6" width="36.1" height="2"/>
		</g>
		<path class="st0" d="M230.4,93.1c17,7,34.1,12.4,51.4,17.1"/>
		<g>
			<path class="st0" d="M265.1,316.2c0.3-0.1,0.5-0.1,0.8-0.2c0.3,0.2,0.6,0.3,0.9,0.4c0.2,0.5,0.5,1,1,1.4c0.3,0,0.6,0,0.9,0"/>
			<path class="st0" d="M262.6,312.6c0.2,0.1,0.5,0.3,0.7,0.4c0.1,0.3,0.2,0.6,0.4,0.9c-0.2,0.5-0.3,1-0.3,1.6l0.3,0.4l0.3,0.3"/>
			<path class="st0" d="M263.3,308.2c0.1,0.3,0.1,0.5,0.2,0.8c-0.2,0.3-0.3,0.6-0.4,0.9c-0.5,0.2-1,0.5-1.4,1c0,0.3,0,0.6,0,0.9"/>
			<path class="st0" d="M267,305.6c-0.1,0.2-0.3,0.5-0.4,0.7c-0.3,0.1-0.6,0.2-0.9,0.4c-0.5-0.2-1-0.3-1.6-0.3l-0.4,0.3l-0.3,0.3"/>
			<path class="st0" d="M271.4,306.4c-0.1,0-0.1,0-0.2,0.1c-0.2,0.1-0.4,0.1-0.6,0.2c-0.3-0.2-0.6-0.3-0.9-0.4c-0.2-0.5-0.5-1-1-1.4
				c-0.3,0-0.6,0-0.9,0"/>
			<path class="st0" d="M273.9,310.1c-0.2-0.1-0.5-0.3-0.7-0.4c-0.1-0.3-0.2-0.6-0.4-0.9c0.2-0.5,0.3-1,0.3-1.6l-0.3-0.4l-0.3-0.3"
				/>
			<path class="st0" d="M273.2,314.5c-0.1-0.3-0.1-0.5-0.2-0.8c0.2-0.3,0.3-0.6,0.4-0.9c0.5-0.2,1-0.5,1.4-1c0-0.3,0-0.6,0-0.9"/>
			<path class="st0" d="M269.5,317c0.1-0.2,0.3-0.5,0.4-0.7c0.3-0.1,0.6-0.2,0.9-0.4c0.5,0.2,1,0.3,1.6,0.3l0.4-0.3l0.3-0.3"/>
			<path class="st0" d="M270.5,311.3c0,1.3-1,2.3-2.3,2.3c-1.3,0-2.3-1-2.3-2.3s1-2.3,2.3-2.3C269.5,309,270.5,310,270.5,311.3z"/>
			<path class="st0" d="M269.2,311.3c0,0.5-0.4,0.9-0.9,0.9c-0.5,0-0.9-0.4-0.9-0.9c0-0.5,0.4-0.9,0.9-0.9
				C268.8,310.4,269.2,310.8,269.2,311.3z"/>
		</g>
		<g>
			<path class="st0" d="M214.3,316.2c0.3-0.1,0.5-0.1,0.8-0.2c0.3,0.2,0.6,0.3,0.9,0.4c0.2,0.5,0.5,1,1,1.4c0.3,0,0.6,0,0.9,0"/>
			<path class="st0" d="M211.8,312.6c0.2,0.1,0.5,0.3,0.7,0.4c0.1,0.3,0.2,0.6,0.4,0.9c-0.2,0.5-0.3,1-0.3,1.6l0.3,0.4l0.3,0.3"/>
			<path class="st0" d="M212.5,308.2c0.1,0.3,0.1,0.5,0.2,0.8c-0.2,0.3-0.3,0.6-0.4,0.9c-0.5,0.2-1,0.5-1.4,1c0,0.3,0,0.6,0,0.9"/>
			<path class="st0" d="M216.2,305.6c-0.1,0.2-0.3,0.5-0.4,0.7c-0.3,0.1-0.6,0.2-0.9,0.4c-0.5-0.2-1-0.3-1.6-0.3l-0.4,0.3l-0.3,0.3"
				/>
			<path class="st0" d="M220.6,306.4c-0.1,0-0.1,0-0.2,0.1c-0.2,0.1-0.4,0.1-0.6,0.2c-0.3-0.2-0.6-0.3-0.9-0.4c-0.2-0.5-0.5-1-1-1.4
				c-0.3,0-0.6,0-0.9,0"/>
			<path class="st0" d="M223.1,310.1c-0.2-0.1-0.5-0.3-0.7-0.4c-0.1-0.3-0.2-0.6-0.4-0.9c0.2-0.5,0.3-1,0.3-1.6l-0.3-0.4l-0.3-0.3"
				/>
			<path class="st0" d="M222.4,314.5c-0.1-0.3-0.1-0.5-0.2-0.8c0.2-0.3,0.3-0.6,0.4-0.9c0.5-0.2,1-0.5,1.4-1c0-0.3,0-0.6,0-0.9"/>
			<path class="st0" d="M218.7,317c0.1-0.2,0.3-0.5,0.4-0.7c0.3-0.1,0.6-0.2,0.9-0.4c0.5,0.2,1,0.3,1.6,0.3l0.4-0.3l0.3-0.3"/>
			<path class="st0" d="M219.8,311.3c0,1.3-1,2.3-2.3,2.3c-1.3,0-2.3-1-2.3-2.3s1-2.3,2.3-2.3C218.7,309,219.8,310,219.8,311.3z"/>
			<path class="st0" d="M218.4,311.3c0,0.5-0.4,0.9-0.9,0.9c-0.5,0-0.9-0.4-0.9-0.9c0-0.5,0.4-0.9,0.9-0.9
				C218,310.4,218.4,310.8,218.4,311.3z"/>
		</g>
		<line class="st0" x1="182.5" y1="324.3" x2="182.5" y2="307.2"/>
		<line class="st0" x1="182.5" y1="302.8" x2="182.5" y2="298.1"/>
		<path class="st1" d="M184.7,305c0-1.2-1-2.2-2.2-2.2c-1.2,0-2.2,1-2.2,2.2c0,1.2,1,2.2,2.2,2.2C183.7,307.2,184.7,306.2,184.7,305
			z"/>
		<line class="st0" x1="188.9" y1="324.3" x2="188.9" y2="321.3"/>
		<line class="st0" x1="188.9" y1="316.9" x2="188.9" y2="298.1"/>
		<path class="st1" d="M191.1,319.1c0-1.2-1-2.2-2.2-2.2c-1.2,0-2.2,1-2.2,2.2c0,1.2,1,2.2,2.2,2.2
			C190.1,321.3,191.1,320.4,191.1,319.1z"/>
		<line class="st0" x1="195.3" y1="324.3" x2="195.3" y2="315.9"/>
		<line class="st0" x1="195.3" y1="311.5" x2="195.3" y2="298.1"/>
		<path class="st1" d="M197.5,313.7c0-1.2-1-2.2-2.2-2.2c-1.2,0-2.2,1-2.2,2.2c0,1.2,1,2.2,2.2,2.2
			C196.5,315.9,197.5,314.9,197.5,313.7z"/>
		<line class="st0" x1="201.7" y1="324.3" x2="201.7" y2="308.3"/>
		<line class="st0" x1="201.7" y1="303.8" x2="201.7" y2="298.1"/>
		<path class="st1" d="M203.9,306.1c0-1.2-1-2.2-2.2-2.2c-1.2,0-2.2,1-2.2,2.2c0,1.2,1,2.2,2.2,2.2
			C202.9,308.3,203.9,307.3,203.9,306.1z"/>
		<g>
			<path class="st0" d="M139.6,95.4c0.5,1.1,0.4,2.2,0,3.1L139.6,95.4z"/>
			<path class="st1" d="M139.6,95.4l0,3.1l-1.8,1.8l-1.6,0v-1.6l0,0l1.5-1.5c0.2-0.2,0.2-0.4,0-0.6l-1.5-1.5l0,0v-2l1.6,0.4
				L139.6,95.4z"/>
			<path class="st1" d="M136.2,95.2v3.6l-1.5-1.5c-0.2-0.2-0.2-0.4,0-0.6L136.2,95.2z"/>
			<path class="st0" d="M134.6,93.6c0.5-0.2,1-0.4,1.5-0.4c0.5,0,1.1,0.1,1.6,0.4"/>
			<path class="st0" d="M139.6,95.4c0.5,1.1,0.4,2.2,0,3.1"/>
			<path class="st0" d="M132.8,98.6c-0.5-1.1-0.4-2.2,0-3.1"/>
			<path class="st0" d="M134.6,100.4c0.5,0.3,1.1,0.4,1.6,0.4c0.6,0,1.1-0.1,1.6-0.4"/>
			<path class="st0" d="M134.6,93.6L134.6,93.6l-8-8c0.2-0.8,0-1.7-0.7-2.3l-1.3-1.3l-3.5,3.5c1,1,2.1,2.4,3.6,2l8,8"/>
			<path class="st0" d="M134.6,100.4l-7.9,7.9v0c0.5,1.5-1,2.7-2,3.6l-3.5-3.5c1-1,2.1-2.4,3.6-2l7.9-7.9"/>
			<line class="st0" x1="126.7" y1="85.7" x2="124.9" y2="87.5"/>
			<line class="st0" x1="126.7" y1="108.4" x2="124.9" y2="106.5"/>
			<path class="st5" d="M147.8,106.5c0,0,0-0.1-0.1-0.1c-0.1-0.1-0.3-0.1-0.4,0l-7.8-7.8l-1.8,1.8l7.8,7.8l0,0
				c-0.1,0.1-0.1,0.3,0,0.4c0,0,0.1,0.1,0.1,0.1c-0.2,1.4,1.1,2.5,2,3.4l3.5-3.5C150.3,107.6,149.2,106.2,147.8,106.5z"/>
			<path class="st5" d="M145.7,85.4c0,0-0.1,0-0.1,0.1c-0.1,0.1-0.1,0.3,0,0.4l-7.8,7.8l1.8,1.8l7.8-7.8l0,0c0.1,0.1,0.3,0.1,0.4,0
				c0,0,0.1-0.1,0.1-0.1c1.4,0.2,2.5-1.1,3.4-2l-3.5-3.5C146.8,82.9,145.4,84,145.7,85.4z"/>
		</g>
	</g>
</g>
</svg>
