<?xml version="1.0" encoding="UTF-8"?> <svg xmlns="http://www.w3.org/2000/svg" xmlns:xlink="http://www.w3.org/1999/xlink" version="1.1" id="Layer_1" x="0px" y="0px" viewBox="0 0 175.7 252.2" style="enable-background:new 0 0 175.7 252.2;" xml:space="preserve"> <style type="text/css"> .st0{fill:#FFFFFF;} .st1{fill:#008053;} .st2{fill:#E31E36;} .st3{fill:#00886E;} .st4{clip-path:url(#SVGID_00000119113041432181895890000005857006196015236233_);} .st5{clip-path:url(#SVGID_00000119113041432181895890000005857006196015236233_);fill:#008053;} .st6{clip-path:url(#SVGID_00000119113041432181895890000005857006196015236233_);fill:#E31E36;} .st7{clip-path:url(#SVGID_00000119113041432181895890000005857006196015236233_);fill:#FFFFFF;} .st8{clip-path:url(#SVGID_00000119113041432181895890000005857006196015236233_);fill:#00886E;} .st9{fill:none;stroke:#000000;stroke-width:0.25;} .st10{clip-path:url(#SVGID_00000054253434508668935970000004363414358353464461_);} .st11{clip-path:url(#SVGID_00000054253434508668935970000004363414358353464461_);fill:#008053;} .st12{clip-path:url(#SVGID_00000054253434508668935970000004363414358353464461_);fill:#E31E36;} .st13{clip-path:url(#SVGID_00000054253434508668935970000004363414358353464461_);fill:#FFFFFF;} .st14{clip-path:url(#SVGID_00000054253434508668935970000004363414358353464461_);fill:#00886E;} .st15{fill:none;stroke:#000000;stroke-width:0.3125;} .st16{clip-path:url(#SVGID_00000079484164567422171510000014206430097924085936_);} .st17{clip-path:url(#SVGID_00000079484164567422171510000014206430097924085936_);fill:#008053;} .st18{clip-path:url(#SVGID_00000079484164567422171510000014206430097924085936_);fill:#E31E36;} .st19{clip-path:url(#SVGID_00000079484164567422171510000014206430097924085936_);fill:#FFFFFF;} .st20{clip-path:url(#SVGID_00000079484164567422171510000014206430097924085936_);fill:#00886E;} .st21{clip-path:url(#SVGID_00000141421513825091400920000001976171135194392461_);fill:#FFFFFF;} .st22{clip-path:url(#SVGID_00000141421513825091400920000001976171135194392461_);fill:#008053;} .st23{clip-path:url(#SVGID_00000141421513825091400920000001976171135194392461_);fill:#E31E36;} .st24{clip-path:url(#SVGID_00000141421513825091400920000001976171135194392461_);} .st25{clip-path:url(#SVGID_00000141421513825091400920000001976171135194392461_);fill:#00886E;} .st26{clip-path:url(#SVGID_00000021086196186882834050000005731948816844995728_);fill:#FFFFFF;} .st27{clip-path:url(#SVGID_00000021086196186882834050000005731948816844995728_);fill:#008053;} .st28{clip-path:url(#SVGID_00000021086196186882834050000005731948816844995728_);fill:#E31E36;} .st29{clip-path:url(#SVGID_00000021086196186882834050000005731948816844995728_);} .st30{clip-path:url(#SVGID_00000021086196186882834050000005731948816844995728_);fill:#00886E;} .st31{clip-path:url(#SVGID_00000178163176756063258720000007524602754915083924_);fill:#FFFFFF;} .st32{clip-path:url(#SVGID_00000178163176756063258720000007524602754915083924_);} .st33{clip-path:url(#SVGID_00000164471476596274403230000012993223873502078852_);fill:#FFFFFF;} .st34{clip-path:url(#SVGID_00000164471476596274403230000012993223873502078852_);} .st35{clip-path:url(#SVGID_00000098214919579508454550000015600083143987536279_);fill:#FFFFFF;} .st36{clip-path:url(#SVGID_00000098214919579508454550000015600083143987536279_);fill:#008053;} .st37{clip-path:url(#SVGID_00000098214919579508454550000015600083143987536279_);fill:#E31E36;} .st38{clip-path:url(#SVGID_00000098214919579508454550000015600083143987536279_);} .st39{clip-path:url(#SVGID_00000098214919579508454550000015600083143987536279_);fill:#00886E;} .st40{clip-path:url(#SVGID_00000062904678000951288530000009522736814160568233_);fill:#FFFFFF;} .st41{clip-path:url(#SVGID_00000062904678000951288530000009522736814160568233_);fill:#008053;} .st42{clip-path:url(#SVGID_00000062904678000951288530000009522736814160568233_);fill:#E31E36;} .st43{clip-path:url(#SVGID_00000062904678000951288530000009522736814160568233_);} .st44{clip-path:url(#SVGID_00000062904678000951288530000009522736814160568233_);fill:#00886E;} .st45{clip-path:url(#SVGID_00000100357715846415963750000001201143387277164974_);fill:#FFFFFF;} .st46{clip-path:url(#SVGID_00000100357715846415963750000001201143387277164974_);} .st47{clip-path:url(#SVGID_00000106856887954475285480000011921969510812674192_);fill:#FFFFFF;} .st48{clip-path:url(#SVGID_00000106856887954475285480000011921969510812674192_);} .st49{fill:none;stroke:#D3D5D6;stroke-width:0.5;} </style> <rect y="0.2" class="st0" width="175.5" height="252.1"></rect> <g> <rect x="0.2" y="0.2" class="st0" width="175.4" height="251.9"></rect> <rect x="0.2" y="0.2" class="st0" width="175.4" height="251.9"></rect> <g> <defs> <rect id="SVGID_00000028314578420472887020000009855703077319219634_" x="0.2" y="0.2" width="175.4" height="251.9"></rect> </defs> <clipPath id="SVGID_00000121959824636596172660000011556311823769903765_"> <use xlink:href="#SVGID_00000028314578420472887020000009855703077319219634_" style="overflow:visible;"></use> </clipPath> <path style="clip-path:url(#SVGID_00000121959824636596172660000011556311823769903765_);" d="M16.4,166.1c0-1.8,0.4-2.4,1.8-2.4 c1.3,0,1.8,0.7,1.8,2.4c0,1.9-0.4,2.5-1.8,2.5C16.9,168.6,16.4,168,16.4,166.1 M19.4,166.1c0-1.5-0.2-1.9-1.2-1.9 c-0.9,0-1.2,0.4-1.2,1.9c0,1.7,0.2,2.1,1.2,2.1C19.2,168.2,19.4,167.8,19.4,166.1"></path> <polygon style="clip-path:url(#SVGID_00000121959824636596172660000011556311823769903765_);" points="21.3,163.7 23.8,163.7 23.8,164.3 21.8,164.3 21.8,165.8 23.6,165.8 23.6,166.3 21.8,166.3 21.8,168.5 21.3,168.5 "></polygon> <polygon style="clip-path:url(#SVGID_00000121959824636596172660000011556311823769903765_);" points="24.9,163.7 27.4,163.7 27.4,164.3 25.5,164.3 25.5,165.8 27.3,165.8 27.3,166.3 25.5,166.3 25.5,168.5 24.9,168.5 "></polygon> <rect x="28.6" y="163.7" style="clip-path:url(#SVGID_00000121959824636596172660000011556311823769903765_);" width="0.6" height="4.8"></rect> <path style="clip-path:url(#SVGID_00000121959824636596172660000011556311823769903765_);" d="M30.5,166.1c0-1.8,0.4-2.4,1.8-2.4 c1.2,0,1.5,0.6,1.6,1.8h-0.5c-0.1-1-0.3-1.3-1.1-1.3c-0.9,0-1.2,0.4-1.2,1.9c0,1.7,0.2,2.1,1.2,2.1c0.8,0,1-0.4,1.1-1.4h0.5 c-0.1,1.3-0.5,1.8-1.6,1.8C30.9,168.6,30.5,168,30.5,166.1"></path> <rect x="35.1" y="163.7" style="clip-path:url(#SVGID_00000121959824636596172660000011556311823769903765_);" width="0.6" height="4.8"></rect> <path style="clip-path:url(#SVGID_00000121959824636596172660000011556311823769903765_);" d="M38.2,163.7h0.6l1.5,4.8h-0.6 l-0.3-1.2h-1.8l-0.4,1.2h-0.5L38.2,163.7z M37.7,166.9h1.5l-0.8-2.5L37.7,166.9z"></path> <polygon style="clip-path:url(#SVGID_00000121959824636596172660000011556311823769903765_);" points="41.3,163.7 41.9,163.7 41.9,168.1 43.9,168.1 43.9,168.5 41.3,168.5 "></polygon> <path style="clip-path:url(#SVGID_00000121959824636596172660000011556311823769903765_);" d="M46.9,167.1c0.1,0.8,0.3,1.1,1,1.1 c0.7,0,1-0.3,1-0.9c0-0.6-0.3-0.7-0.9-0.9l-0.4-0.1c-0.7-0.2-1.2-0.5-1.2-1.4c0-0.8,0.5-1.3,1.5-1.3c1.1,0,1.5,0.6,1.5,1.6h-0.5 c-0.1-0.8-0.3-1.1-1-1.1c-0.6,0-0.9,0.3-0.9,0.8c0,0.6,0.4,0.7,0.9,0.9l0.4,0.1c0.8,0.2,1.2,0.5,1.2,1.4c0,0.8-0.5,1.3-1.5,1.3 c-1.1,0-1.5-0.5-1.6-1.5H46.9z"></path> <path style="clip-path:url(#SVGID_00000121959824636596172660000011556311823769903765_);" d="M51.8,163.7h0.6l1.5,4.8h-0.6 l-0.3-1.2h-1.8l-0.4,1.2h-0.5L51.8,163.7z M51.3,166.9h1.5l-0.8-2.5L51.3,166.9z"></path> <path style="clip-path:url(#SVGID_00000121959824636596172660000011556311823769903765_);" d="M55.2,167.1c0.1,0.8,0.3,1.1,1,1.1 c0.7,0,1-0.3,1-0.9c0-0.6-0.3-0.7-0.9-0.9l-0.4-0.1c-0.7-0.2-1.2-0.5-1.2-1.4c0-0.8,0.5-1.3,1.5-1.3c1.1,0,1.5,0.6,1.5,1.6h-0.5 c-0.1-0.8-0.3-1.1-1-1.1c-0.6,0-0.9,0.3-0.9,0.8c0,0.6,0.3,0.7,0.9,0.9l0.4,0.1c0.8,0.2,1.2,0.5,1.2,1.4c0,0.8-0.5,1.3-1.5,1.3 c-1.1,0-1.5-0.5-1.6-1.5H55.2z"></path> <polygon style="clip-path:url(#SVGID_00000121959824636596172660000011556311823769903765_);" points="59,163.7 61.6,163.7 61.6,164.3 59.5,164.3 59.5,165.8 61.4,165.8 61.4,166.3 59.5,166.3 59.5,168.1 61.6,168.1 61.6,168.5 59,168.5 "></polygon> <path style="clip-path:url(#SVGID_00000121959824636596172660000011556311823769903765_);" d="M64.7,163.7h1.5 c1,0,1.4,0.4,1.4,1.5c0,1.1-0.5,1.4-1.4,1.4h-0.9v1.9h-0.6V163.7z M65.2,164.3v1.9h0.9c0.6,0,0.8-0.2,0.8-1c0-0.8-0.2-1-0.8-1 H65.2z"></path> <path style="clip-path:url(#SVGID_00000121959824636596172660000011556311823769903765_);" d="M69.5,163.7h0.6l1.5,4.8h-0.6 l-0.3-1.2h-1.8l-0.4,1.2H68L69.5,163.7z M69,166.9h1.5l-0.8-2.5L69,166.9z"></path> <path style="clip-path:url(#SVGID_00000121959824636596172660000011556311823769903765_);" d="M72.7,163.7h1.5 c1,0,1.4,0.4,1.4,1.5c0,0.9-0.4,1.3-1,1.3l1.1,2h-0.6l-1.1-1.9h-0.8v1.9h-0.6V163.7z M73.3,164.3v1.9h0.9c0.6,0,0.8-0.2,0.8-1 c0-0.8-0.2-1-0.8-1H73.3z"></path> <polygon style="clip-path:url(#SVGID_00000121959824636596172660000011556311823769903765_);" points="76.4,163.7 79.7,163.7 79.7,164.3 78.3,164.3 78.3,168.5 77.8,168.5 77.8,164.3 76.4,164.3 "></polygon> <polygon style="clip-path:url(#SVGID_00000121959824636596172660000011556311823769903765_);" points="80.8,163.7 81.3,163.7 83.4,167.4 83.4,163.7 84,163.7 84,168.5 83.5,168.5 81.3,164.9 81.3,168.5 80.8,168.5 "></polygon> <polygon style="clip-path:url(#SVGID_00000121959824636596172660000011556311823769903765_);" points="85.5,163.7 88.1,163.7 88.1,164.3 86,164.3 86,165.8 87.9,165.8 87.9,166.3 86,166.3 86,168.1 88.1,168.1 88.1,168.5 85.5,168.5 "></polygon> <path style="clip-path:url(#SVGID_00000121959824636596172660000011556311823769903765_);" d="M89.3,163.7h1.5 c1,0,1.4,0.4,1.4,1.5c0,0.9-0.4,1.3-1,1.3l1.1,2h-0.6l-1.1-1.9h-0.8v1.9h-0.6V163.7z M89.9,164.3v1.9h0.9c0.6,0,0.8-0.2,0.8-1 c0-0.8-0.2-1-0.8-1H89.9z"></path> <rect x="16.1" y="159.9" style="clip-path:url(#SVGID_00000121959824636596172660000011556311823769903765_);" width="143.5" height="0.6"></rect> <polygon style="clip-path:url(#SVGID_00000121959824636596172660000011556311823769903765_);" points="16.1,37.1 16.1,81.5 16.1,83.6 16.1,107.7 87.9,148.9 159.6,107.7 159.6,83.6 159.6,81.5 159.6,37.1 "></polygon> <polyline style="clip-path:url(#SVGID_00000121959824636596172660000011556311823769903765_);" points="159.6,33.8 159.6,16.1 16.1,16.1 16.1,33.8 "></polyline> <rect x="60.4" y="79.7" style="clip-path:url(#SVGID_00000121959824636596172660000011556311823769903765_);fill:#008053;" width="25.6" height="2.3"></rect> <rect x="89.1" y="79.7" style="clip-path:url(#SVGID_00000121959824636596172660000011556311823769903765_);fill:#E31E36;" width="25.6" height="2.3"></rect> <polygon style="clip-path:url(#SVGID_00000121959824636596172660000011556311823769903765_);fill:#FFFFFF;" points="145.7,94.4 145.7,92.9 130.2,92.9 130.2,100.9 145.7,100.9 145.7,99.4 131.9,99.4 131.9,97.7 145.7,97.7 145.7,96.2 131.9,96.2 131.9,94.4 "></polygon> <polygon style="clip-path:url(#SVGID_00000121959824636596172660000011556311823769903765_);fill:#FFFFFF;" points="126.4,96.2 115.7,96.2 115.7,92.9 114,92.9 114,100.9 115.7,100.9 115.7,97.9 126.4,97.9 126.4,100.9 128.1,100.9 128.1,97.9 128.1,96.2 128.1,92.9 126.4,92.9 "></polygon> <path style="clip-path:url(#SVGID_00000121959824636596172660000011556311823769903765_);fill:#FFFFFF;" d="M97.5,94.7l0,4.4 c0,1,0.8,1.8,1.8,1.8l12.7,0v-1.8H99.5c-0.1,0-0.2-0.1-0.2-0.2v-4c0-0.1,0.1-0.2,0.3-0.2h12.4v-1.8H99.2 C98.3,92.9,97.5,93.7,97.5,94.7"></path> <path style="clip-path:url(#SVGID_00000121959824636596172660000011556311823769903765_);fill:#FFFFFF;" d="M93.6,96.2l-11.2,0 c-0.2,0-0.3-0.1-0.3-0.3v-1.2c0-0.2,0.1-0.3,0.3-0.3h12.7v-1.5h-13c-1,0-1.7,0.8-1.7,1.8v1.2c0,1,0.8,1.8,1.8,1.8l11.2,0 c0.2,0,0.3,0.1,0.3,0.3h0l0,1.2c0,0.2-0.1,0.3-0.3,0.3H80.6v1.5l13,0c1,0,1.8-0.8,1.8-1.8V98C95.4,97,94.6,96.2,93.6,96.2"></path> <path style="clip-path:url(#SVGID_00000121959824636596172660000011556311823769903765_);fill:#FFFFFF;" d="M76.6,98.2 c0.9,0,1.7-0.8,1.7-1.8l0-1.7c0-1-0.8-1.8-1.8-1.8v0l-13.3,0v8h1.8v-2.1h9.8c1,0,1.8,0.8,1.8,1.8v0.3h1.8v0 C78.4,99.7,77.7,98.7,76.6,98.2 M76.6,96.8L76.6,96.8c0,0.2-0.1,0.3-0.3,0.3H65.1v-2.4l11.2,0c0.2,0,0.3,0.1,0.3,0.3V96.8z"></path> <path style="clip-path:url(#SVGID_00000121959824636596172660000011556311823769903765_);fill:#FFFFFF;" d="M59.5,92.9L59.5,92.9 l-11.2,0c-1,0-1.8,0.8-1.8,1.8l0,4.4c0,1,0.8,1.8,1.8,1.8h11.2c1,0,1.8-0.8,1.8-1.8l0-4.4C61.2,93.7,60.4,92.9,59.5,92.9 M59.5,98.9c0,0.2-0.1,0.3-0.3,0.3H48.4c-0.1,0-0.2-0.1-0.2-0.2v-4c0-0.1,0.1-0.2,0.3-0.2l10.6,0c0.2,0,0.3,0.1,0.3,0.3V98.9z"></path> <path style="clip-path:url(#SVGID_00000121959824636596172660000011556311823769903765_);fill:#FFFFFF;" d="M42.6,92.9L42.6,92.9 l-13.2,0v8h1.8v-2.1h11.5c1,0,1.8-0.8,1.8-1.8l0-2.3C44.4,93.7,43.6,92.9,42.6,92.9 M42.6,96.8c0,0.2-0.1,0.3-0.3,0.3H31.2v-2.4 l11.2,0c0.2,0,0.3,0.1,0.3,0.3V96.8z"></path> <path style="clip-path:url(#SVGID_00000121959824636596172660000011556311823769903765_);fill:#FFFFFF;" d="M76.5,68.4 c-2.6,0.6-5.9,0.7-8.2-0.4c-2-0.9-3.3-3-3.5-5.1c-0.3-2.6,0.7-4.8,2.7-6.3c2.4-1.7,6.2-1.7,8.8-0.5v2.6c-2-0.9-4.9-1.4-6.8,0 c-1.4,1-1.8,2.7-1.4,4.3c0.3,1.3,1.4,2.5,2.6,2.9c0.9,0.3,2,0.4,2.9,0.2v-2.1l-1.3,0v-2.6h4.3L76.5,68.4L76.5,68.4z"></path> <polygon style="clip-path:url(#SVGID_00000121959824636596172660000011556311823769903765_);fill:#FFFFFF;" points="45.1,68.5 45.1,57.9 49.8,57.9 49.8,55.4 37,55.4 37,57.9 41.7,57.9 41.7,68.5 "></polygon> <path style="clip-path:url(#SVGID_00000121959824636596172660000011556311823769903765_);fill:#FFFFFF;" d="M58.3,55.5h-3.8 l-5.4,13.1h3.5l1-2.6h5.9l1.1,2.6h3.5L58.3,55.5z M54.6,63.7l1.9-4.9l2,4.9H54.6z"></path> <polygon style="clip-path:url(#SVGID_00000121959824636596172660000011556311823769903765_);fill:#FFFFFF;" points="89.4,61.1 82,61.1 82,55.5 80,55.5 80,68.6 82,68.6 82,62.9 89.4,62.9 89.4,68.6 91.4,68.6 91.4,55.5 89.4,55.5 "></polygon> <path style="clip-path:url(#SVGID_00000121959824636596172660000011556311823769903765_);fill:#FFFFFF;" d="M113.4,64.9 c-0.1,0.3-1,2.2-3.3,2.2c-2.3,0-2.7-1.8-2.7-2.9v-7h-2l0,6.7c0,4.5,3.4,4.9,4.5,4.9c1.7,0,2.9-0.7,3.5-1.4l0,1.1h2V57.2h-2 L113.4,64.9z"></path> <path style="clip-path:url(#SVGID_00000121959824636596172660000011556311823769903765_);fill:#FFFFFF;" d="M138.1,58.4 c-0.1-0.1-1.3-1.4-2.9-1.4c-1.4,0-2.8,1.3-3.6,2.3l0-2.1h-2v11.4h2l0-6.8c0.5-0.9,2-2.9,3.1-2.9c1,0,2.1,1.1,2.1,1.1L138.1,58.4z"></path> <path style="clip-path:url(#SVGID_00000121959824636596172660000011556311823769903765_);fill:#FFFFFF;" d="M95.3,61.1 c0.5-1.6,1.7-2.2,3.1-2.2c2.4,0,3.1,1.4,3.2,2.2H95.3z M98.4,57c-3.1,0-5.5,2.3-5.5,5.9c0,2.4,1.7,5.9,6.1,5.9 c2.8,0,4.5-1.5,4.6-1.6l0.1-0.1v-2.3l-0.6,0.6c0,0-1.7,1.6-3.9,1.6c-2.4,0-4.1-1.4-4.1-4.1v0h8.9v-0.4 C103.9,59.7,102.2,57,98.4,57"></path> <path style="clip-path:url(#SVGID_00000121959824636596172660000011556311823769903765_);fill:#FFFFFF;" d="M119.4,61.1 c0.5-1.6,1.7-2.2,3.1-2.2c2.4,0,3.1,1.4,3.2,2.2H119.4z M122.6,57c-3.1,0-5.5,2.3-5.5,5.9c0,2.4,1.7,5.9,6.1,5.9 c2.8,0,4.5-1.5,4.6-1.6l0.1-0.1v-2.3l-0.6,0.6c0,0-1.7,1.6-3.9,1.6c-2.4,0-4.1-1.4-4.1-4.1v0h8.9v-0.4 C128.1,59.7,126.4,57,122.6,57"></path> <path style="clip-path:url(#SVGID_00000121959824636596172660000011556311823769903765_);fill:#FFFFFF;" d="M126.6,28.9l0.2-5.2 l1.7,5.2h1l1.6-5.2l0.2,5.2h1.5l-0.4-7.9h-1.8l-1.6,5.3l-1.7-5.3h-1.8l-0.4,7.9H126.6z M120.7,22.6l1,3.5h-2L120.7,22.6z M117.5,28.9h1.4l0.4-1.5h2.7l0.4,1.5h1.6l-2.3-7.9h-1.9L117.5,28.9z M111.6,28.9h4.7v-1.2h-3.2v-2.1h2.9v-1.3h-2.9v-1.9h3.2V21 h-4.7V28.9z M104.6,22.4h2v6.5h1.5v-6.5h2V21h-5.6V22.4z M96.4,28.9h4.7v-1.2h-3.2v-2.1h2.9v-1.3h-2.9v-1.9h3.2V21h-4.7V28.9z M89.4,22.6l1,3.5h-2L89.4,22.6z M86.3,28.9h1.4l0.4-1.5h2.7l0.4,1.5h1.6L90.5,21h-1.9L86.3,28.9z M80.5,28.9H85v-1.2h-3V21h-1.5 V28.9z M72.8,26.4c0,1.8,0.8,2.7,2.8,2.7c2.1,0,2.8-0.9,2.8-2.7V21H77v5.4c0,1.1-0.4,1.4-1.3,1.4c-0.9,0-1.3-0.3-1.3-1.4V21h-1.5 V26.4z M64.8,28.9l0.2-5.2l1.7,5.2h1l1.6-5.2l0.2,5.2h1.5L70.7,21h-1.8l-1.6,5.3L65.6,21h-1.8l-0.4,7.9H64.8z M59.2,22.4 c0.8,0,1.1,0.2,1.1,1.2c0,1.2-0.3,1.3-1,1.3h-1.1v-2.5H59.2z M56.6,28.9h1.5v-2.7h0.9l1.4,2.7h1.7l-1.6-3c0.9-0.2,1.3-0.9,1.3-2.4 c0-2-0.8-2.5-2.4-2.5h-2.9V28.9z M51.9,27.8c-1.3,0-1.5-0.3-1.5-2.9c0-2.3,0.2-2.7,1.5-2.7c1.3,0,1.5,0.4,1.5,2.7 C53.4,27.5,53.2,27.8,51.9,27.8 M51.9,29c2.5,0,3.1-1,3.1-4.1c0-3.2-0.7-4.1-3.1-4.1c-2.3,0-3.1,0.8-3.1,4.1 C48.8,28,49.4,29,51.9,29 M43,28.9h1.5v-3.3h2.8v-1.3h-2.8v-1.9h3.1V21H43V28.9z"></path> <path style="clip-path:url(#SVGID_00000121959824636596172660000011556311823769903765_);fill:#00886E;" d="M73.5,177.6h-1.6 l-16.7,41.8h1.3H57h4.1l2.8-7.7h17l2.8,7.7h4.1h0.2h1.6L73.5,177.6z M79.1,206.6H65.8l6.9-17.2L79.1,206.6z"></path> <polygon style="clip-path:url(#SVGID_00000121959824636596172660000011556311823769903765_);fill:#00886E;" points="86.5,177.6 86.5,178.6 86.5,179.2 86.5,182.7 98.6,182.7 98.6,219.4 102.4,219.4 102.9,219.4 104.1,219.4 104.1,182.7 116.2,182.7 116.2,179.2 116.2,178.4 116.2,177.6 "></polygon> <polygon style="clip-path:url(#SVGID_00000121959824636596172660000011556311823769903765_);fill:#00886E;" points="30.1,234.1 27.6,229.1 25.9,229.1 25.9,235.9 27.2,235.9 27.2,231 29.7,235.9 31.4,235.9 31.4,229.1 30.1,229.1 "></polygon> <polygon style="clip-path:url(#SVGID_00000121959824636596172660000011556311823769903765_);fill:#00886E;" points="43,229.1 42.6,229.1 42.6,236 43,236 43.9,236 47.4,236 47.4,234.7 43.9,234.7 43.9,233.2 46.8,233.2 46.8,231.9 43.9,231.9 43.9,230.3 47.4,230.3 47.4,229.1 43.9,229.1 "></polygon> <polygon style="clip-path:url(#SVGID_00000121959824636596172660000011556311823769903765_);fill:#00886E;" points="58.5,230.3 60.5,230.3 60.5,236 61.8,236 61.8,230.3 63.8,230.3 63.8,229.1 58.5,229.1 "></polygon> <polygon style="clip-path:url(#SVGID_00000121959824636596172660000011556311823769903765_);fill:#00886E;" points="81.1,233.7 79.7,229.1 78.6,229.1 77.2,233.7 76.3,229.1 74.9,229.1 76.6,236 77.8,236 79.2,231.1 80.5,236 81.7,236 83.4,229.1 82,229.1 "></polygon> <path style="clip-path:url(#SVGID_00000121959824636596172660000011556311823769903765_);fill:#00886E;" d="M98.5,229.3 c-0.4-0.2-0.9-0.3-1.4-0.3c-0.5,0-1,0.1-1.4,0.3c-0.4,0.2-0.7,0.5-0.9,0.9c-0.2,0.4-0.3,0.8-0.3,1.3v1.9c0,0.5,0.1,0.9,0.3,1.3 c0.2,0.4,0.5,0.7,0.9,0.9c0.4,0.2,0.9,0.3,1.4,0.3c0.5,0,1-0.1,1.4-0.3c0.4-0.2,0.7-0.5,0.9-0.9c0.2-0.4,0.3-0.8,0.3-1.3v-1.9 c0-0.5-0.1-0.9-0.3-1.3C99.3,229.8,98.9,229.5,98.5,229.3 M98.4,233.5c0,0.2,0,0.5-0.2,0.6c-0.1,0.2-0.2,0.3-0.4,0.4 c-0.2,0.1-0.4,0.2-0.7,0.2c-0.2,0-0.5,0-0.7-0.2c-0.2-0.1-0.3-0.2-0.4-0.4c-0.1-0.2-0.2-0.4-0.2-0.6v-2c0-0.2,0-0.5,0.2-0.6 c0.1-0.2,0.2-0.3,0.4-0.4c0.2-0.1,0.4-0.2,0.7-0.2c0.2,0,0.4,0,0.7,0.2c0.2,0.1,0.3,0.2,0.4,0.4c0.1,0.2,0.2,0.4,0.2,0.6V233.5z"></path> <path style="clip-path:url(#SVGID_00000121959824636596172660000011556311823769903765_);fill:#00886E;" d="M115.1,232.9 c0.3-0.2,0.5-0.4,0.7-0.7c0.2-0.3,0.2-0.7,0.2-1.1c0-0.4-0.1-0.8-0.2-1.1c-0.2-0.3-0.4-0.5-0.7-0.7c-0.3-0.2-0.7-0.2-1-0.2h-1.8 h-0.8h-0.5v6.9h1.3v-2.8h0.8l1.6,2.8h1.6l-1.7-2.8C114.8,233.1,115,233,115.1,232.9 M112.3,230.3h1.7c0.1,0,0.3,0,0.4,0.1 c0.1,0.1,0.2,0.2,0.2,0.3c0.1,0.1,0.1,0.3,0.1,0.4c0,0.2,0,0.3-0.1,0.4c-0.1,0.1-0.1,0.2-0.2,0.3c-0.1,0.1-0.2,0.1-0.4,0.1h-1.7 V230.3z"></path> <polygon style="clip-path:url(#SVGID_00000121959824636596172660000011556311823769903765_);fill:#00886E;" points="132.9,229.1 131.2,229.1 128.9,232.5 128.9,229.1 127.5,229.1 127.5,236 128.9,236 128.9,234.5 129.9,233.1 131.6,236 133.2,236 130.8,231.9 "></polygon> <path style="clip-path:url(#SVGID_00000121959824636596172660000011556311823769903765_);fill:#00886E;" d="M149.5,232.8 c-0.2-0.3-0.4-0.5-0.8-0.6c-0.3-0.1-0.7-0.2-1.1-0.3c0,0,0,0-0.1,0c0,0,0,0-0.1,0h0h0c-0.3-0.1-0.6-0.1-0.7-0.2 c-0.2,0-0.3-0.1-0.4-0.2c-0.1-0.1-0.2-0.3-0.2-0.5c0-0.2,0.1-0.4,0.3-0.5c0.2-0.1,0.5-0.2,1-0.2c0.3,0,0.6,0,0.9,0.2 c0.3,0.1,0.6,0.2,0.9,0.4l0.6-1.1c-0.2-0.2-0.5-0.3-0.7-0.4c-0.2-0.1-0.5-0.2-0.8-0.2c-0.3-0.1-0.5-0.1-0.8-0.1 c-0.6,0-1,0.1-1.4,0.2c-0.4,0.2-0.7,0.4-0.9,0.7c-0.2,0.3-0.3,0.7-0.3,1.1c0,0.5,0.1,0.9,0.3,1.2c0.2,0.3,0.5,0.5,0.8,0.6 c0.3,0.1,0.7,0.2,1.2,0.3l0.1,0h0h0c0.3,0,0.5,0.1,0.7,0.1s0.3,0.1,0.4,0.2c0.1,0.1,0.2,0.2,0.2,0.4c0,0.3-0.1,0.5-0.4,0.6 c-0.2,0.1-0.6,0.2-1,0.2c-0.4,0-0.8-0.1-1.1-0.2c-0.4-0.1-0.7-0.3-1-0.5l-0.6,1.1c0.2,0.2,0.5,0.3,0.8,0.4 c0.3,0.1,0.6,0.2,0.9,0.3c0.3,0.1,0.5,0.1,0.5,0.1h0.5c0.6,0,1.1-0.1,1.5-0.2c0.4-0.2,0.7-0.4,0.9-0.7c0.2-0.3,0.3-0.7,0.3-1.1 C149.8,233.5,149.7,233.1,149.5,232.8"></path> <path style="clip-path:url(#SVGID_00000121959824636596172660000011556311823769903765_);fill:#00886E;" d="M138.4,176.5 c-11.8,0-21.5,9.4-21.5,21.5c0,12.1,9.4,21.3,21.2,21.3c11.8,0,21.5-9.4,21.5-21.5C159.6,185.9,150.2,176.5,138.4,176.5 M138.4,214c-8.9,0-15.7-6.8-15.7-16.1c0-8.9,6.7-15.9,15.5-15.9c8.9,0,15.7,6.8,15.7,16.1C153.8,207,147.1,214,138.4,214"></path> <path style="clip-path:url(#SVGID_00000121959824636596172660000011556311823769903765_);fill:#00886E;" d="M48.8,209.1 c-2.8,3-6.7,4.9-11.2,4.9c-8.9,0-15.7-6.8-15.7-16.1c0-8.9,6.7-15.9,15.5-15.9c4.6,0,8.6,1.8,11.5,4.9l3.9-4 c-3.8-3.9-9.2-6.3-15.2-6.3c-11.8,0-21.5,9.4-21.5,21.5c0,12.1,9.4,21.3,21.2,21.3c6,0,11.4-2.4,15.3-6.4L48.8,209.1z"></path> </g> <rect x="0.2" y="0.2" class="st15" width="175.4" height="251.9"></rect> </g> </svg> 