<?xml version="1.0" encoding="utf-8"?>
<!-- Generator: Adobe Illustrator 27.0.0, SVG Export Plug-In . SVG Version: 6.00 Build 0)  -->
<svg version="1.1" xmlns="http://www.w3.org/2000/svg" xmlns:xlink="http://www.w3.org/1999/xlink" x="0px" y="0px"
	 viewBox="0 0 228.8 129" style="enable-background:new 0 0 228.8 129;" xml:space="preserve">
<style type="text/css">
	.st0{clip-path:url(#XMLID_00000134237820064420541870000015057258319326128525_);}
	.st1{fill:#BB133E;}
	.st2{stroke:#FFFFFF;stroke-width:0.8435;}
	.st3{fill:#002664;}
	.st4{fill:#FFFFFF;}
	.st5{fill-rule:evenodd;clip-rule:evenodd;fill:#158864;fill-opacity:0;}
	.st6{fill-rule:evenodd;clip-rule:evenodd;fill:#158864;}
	.st7{fill-rule:evenodd;clip-rule:evenodd;fill:#FFFFFF;}
	.st8{fill:#0B151C;}
	.st9{fill:none;stroke:#158864;stroke-linecap:round;stroke-linejoin:round;stroke-miterlimit:10;}
	.st10{fill:none;stroke:#158864;stroke-linecap:round;stroke-miterlimit:10;}
	.st11{fill:#158864;}
	.st12{enable-background:new    ;}
	.st13{fill:#FFFFFF;stroke:#158864;stroke-linecap:round;stroke-miterlimit:10;}
	.st14{fill:none;stroke:#138864;stroke-width:0.75;stroke-linecap:round;stroke-linejoin:round;stroke-miterlimit:10;}
	
		.st15{fill:none;stroke:#138864;stroke-width:0.75;stroke-linecap:round;stroke-linejoin:round;stroke-miterlimit:10;stroke-dasharray:1,2;}
	.st16{fill:none;stroke:#158864;stroke-width:1.058;stroke-linecap:round;stroke-linejoin:round;stroke-miterlimit:10;}
	.st17{clip-path:url(#XMLID_00000049943109327255010370000002907619184152874634_);}
	.st18{fill:none;stroke:#158864;stroke-width:1.058;stroke-linecap:round;stroke-miterlimit:10;}
	.st19{fill:#158864;stroke:#158864;stroke-linecap:round;stroke-linejoin:round;stroke-miterlimit:10;}
	.st20{fill:#FFFFFF;stroke:#158864;stroke-linecap:round;stroke-linejoin:round;stroke-miterlimit:10;}
	.st21{fill:none;stroke:#158864;stroke-width:4;stroke-linecap:round;stroke-miterlimit:10;}
	.st22{clip-path:url(#SVGID_00000144309724665446330380000016591556480809380773_);fill:none;stroke:#158864;stroke-miterlimit:10;}
	.st23{fill:#222C33;}
	.st24{fill:none;stroke:#158864;stroke-linecap:round;stroke-linejoin:round;}
	.st25{fill:#158864;stroke:#158864;stroke-linecap:round;stroke-linejoin:round;}
	.st26{fill:#0B151C;stroke:#158864;stroke-linecap:round;stroke-linejoin:round;}
	.st27{fill:none;stroke:#158864;stroke-linecap:round;stroke-linejoin:round;stroke-miterlimit:10.0001;}
	.st28{fill:none;stroke:#158864;stroke-width:1.2;stroke-linecap:round;stroke-linejoin:round;stroke-miterlimit:10;}
	.st29{fill:#158864;stroke:#158864;stroke-linecap:round;stroke-miterlimit:10;}
	.st30{fill:none;stroke:#FFFFFF;stroke-linecap:round;stroke-miterlimit:10;}
	.st31{clip-path:url(#XMLID_00000090265423443181121340000017726018128843718056_);}
	.st32{fill:none;stroke:#158864;stroke-width:3;stroke-linecap:round;stroke-miterlimit:10;}
	.st33{fill:none;stroke:#158864;stroke-miterlimit:10;}
	.st34{fill:none;stroke:#158864;stroke-width:0.991;stroke-linecap:round;stroke-linejoin:round;stroke-miterlimit:10;}
	.st35{fill:none;stroke:#158864;stroke-width:0.9359;stroke-linecap:round;stroke-linejoin:round;stroke-miterlimit:10;}
	.st36{fill:none;stroke:#158864;stroke-width:1.3073;stroke-miterlimit:10;}
	.st37{fill:#FFFFFF;stroke:#158864;stroke-miterlimit:10;}
	.st38{fill:#FFFFFF;stroke:#158864;stroke-width:1.3073;stroke-linecap:round;stroke-linejoin:round;stroke-miterlimit:10;}
	.st39{fill:none;stroke:#158864;stroke-width:2.3863;stroke-linecap:round;stroke-linejoin:round;stroke-miterlimit:10;}
	.st40{fill:#FFFFFF;stroke:#158864;stroke-width:2.3863;stroke-linecap:round;stroke-linejoin:round;stroke-miterlimit:10;}
	.st41{fill:none;stroke:#158864;stroke-width:2.1073;stroke-linecap:round;stroke-linejoin:round;stroke-miterlimit:10;}
	.st42{fill:none;stroke:#158864;stroke-width:0.8761;stroke-linecap:round;stroke-linejoin:round;stroke-miterlimit:10;}
	.st43{fill:none;stroke:#158864;stroke-width:1.2291;stroke-linecap:round;stroke-linejoin:round;stroke-miterlimit:10;}
	.st44{fill:#158864;stroke:#158864;stroke-width:0.9504;stroke-linecap:round;stroke-linejoin:round;stroke-miterlimit:10;}
	.st45{fill:none;stroke:#158864;stroke-width:0.9783;stroke-linecap:round;stroke-linejoin:round;stroke-miterlimit:10;}
	.st46{fill:#FFFFFF;stroke:#158864;stroke-width:1.058;stroke-linecap:round;stroke-linejoin:round;stroke-miterlimit:10;}
	.st47{fill:#158864;stroke:#158864;stroke-width:1.058;stroke-linecap:round;stroke-linejoin:round;stroke-miterlimit:10;}
	.st48{fill:none;stroke:#FFFFFF;stroke-linecap:round;stroke-linejoin:round;stroke-miterlimit:10;}
	.st49{fill:none;stroke:#158864;stroke-width:1.0968;stroke-miterlimit:10;}
	.st50{fill:none;stroke:#158864;stroke-width:2.1888;stroke-miterlimit:10;}
	.st51{fill:none;stroke:#158864;stroke-width:0.5;stroke-miterlimit:10;}
	.st52{fill:none;stroke:#158864;stroke-width:1.7392;stroke-miterlimit:10;}
	.st53{clip-path:url(#SVGID_00000112632957092619137620000002123144360005066896_);}
	.st54{clip-path:url(#SVGID_00000027581901283452523200000010036517396567678096_);}
	.st55{clip-path:url(#SVGID_00000123416281832409493950000003997742042344108456_);}
	.st56{clip-path:url(#SVGID_00000097466370102025763670000011439787088860246915_);}
	.st57{fill:#158864;stroke:#158864;stroke-miterlimit:10;}
	.st58{clip-path:url(#SVGID_00000015314098036111498000000012104249539514001331_);}
	.st59{clip-path:url(#SVGID_00000000924608389613252730000008306757692189927859_);}
	.st60{clip-path:url(#SVGID_00000077319606999234140160000002368340153020828846_);}
	.st61{fill:none;stroke:#158864;stroke-width:0.8937;stroke-linecap:round;stroke-linejoin:round;stroke-miterlimit:10;}
	.st62{fill:#158864;stroke:#158864;stroke-width:0.8937;stroke-linecap:round;stroke-linejoin:round;stroke-miterlimit:10;}
	.st63{fill:none;stroke:#158864;stroke-width:1.1175;stroke-linecap:round;stroke-linejoin:round;stroke-miterlimit:10;}
	.st64{fill:#158864;stroke:#158864;stroke-width:1.1175;stroke-linecap:round;stroke-linejoin:round;stroke-miterlimit:10;}
	.st65{fill:none;stroke:#158864;stroke-width:0.882;stroke-linecap:round;stroke-miterlimit:10;}
	.st66{fill:none;stroke:#158864;stroke-width:0.811;stroke-linecap:round;stroke-miterlimit:10;}
	.st67{opacity:0.5;}
	.st68{fill-rule:evenodd;clip-rule:evenodd;fill:#D3D5D6;}
	.st69{fill:none;stroke:#222C33;stroke-width:0.5;stroke-miterlimit:10;stroke-dasharray:1,1;}
	.st70{display:none;}
	.st71{display:inline;}
	.st72{opacity:3.000000e-02;fill:#158864;}
	.st73{fill:none;stroke:#FFFFFF;stroke-width:0.75;stroke-miterlimit:10;}
	.st74{fill:#222C33;stroke:#FFFFFF;stroke-width:0.75;stroke-miterlimit:10;}
	.st75{fill:none;stroke:#FFFFFF;stroke-width:0.5;stroke-linecap:round;stroke-linejoin:round;stroke-miterlimit:10;}
	.st76{fill:none;stroke:#FFFFFF;stroke-width:0.5;stroke-miterlimit:10;}
	.st77{fill:#222C33;stroke:#FFFFFF;stroke-width:0.5;stroke-linecap:round;stroke-linejoin:round;stroke-miterlimit:10;}
	.st78{fill:#FF715B;}
	.st79{fill:#FDCA0B;}
	.st80{fill:#ED6B1D;}
	.st81{fill:none;stroke:#A7ABAD;stroke-width:0.5;stroke-miterlimit:10;}
	.st82{fill:none;stroke:#FFFFFF;stroke-width:0.75;stroke-linecap:round;stroke-linejoin:round;stroke-miterlimit:10;}
	.st83{fill:#222C33;stroke:#FFFFFF;stroke-width:0.5;stroke-miterlimit:10;}
	.st84{clip-path:url(#XMLID_00000116932114893006004680000006498531174356939159_);}
	.st85{clip-path:url(#SVGID_00000042734847843185566660000005559979387558148245_);}
	.st86{fill:#DE2910;}
	.st87{fill:#FFDE00;}
	.st88{clip-path:url(#XMLID_00000152951519430128880020000016157182475387671734_);}
	.st89{clip-path:url(#SVGID_00000145741391249982113700000016167930123854533535_);}
	.st90{clip-path:url(#XMLID_00000034054177012592283670000007485380650756764350_);}
	.st91{clip-path:url(#SVGID_00000155835169835754695650000000926840995218298275_);}
	.st92{clip-path:url(#XMLID_00000023965396295931351800000011903422435890185607_);}
	.st93{clip-path:url(#SVGID_00000122707177000694690770000016797962818846215091_);}
	.st94{clip-path:url(#XMLID_00000009557864312811176560000001823391543648236704_);}
	.st95{clip-path:url(#SVGID_00000110432555274964971260000016183440515283399061_);}
	.st96{fill:#158864;stroke:#FFFFFF;stroke-width:0.5;stroke-linecap:round;stroke-linejoin:round;stroke-miterlimit:10;}
	.st97{fill:none;stroke:#222C33;stroke-miterlimit:10;}
	.st98{fill:#222C33;stroke:#222C33;stroke-miterlimit:10;}
	.st99{fill:#F4F5F5;stroke:#222C33;stroke-miterlimit:10;}
	.st100{fill:#FF715B;stroke:#222C33;stroke-miterlimit:10;}
	.st101{fill:#158864;stroke:#FFFFFF;stroke-linecap:round;stroke-linejoin:round;stroke-miterlimit:10;}
	.st102{fill:#FDCA0B;stroke:#222C33;stroke-miterlimit:10;}
	.st103{opacity:0.75;fill:none;stroke:#A7ABAD;stroke-width:0.25;stroke-miterlimit:10;}
	.st104{fill:#C4C4C4;}
	.st105{fill:none;stroke:#C4C4C4;stroke-width:0.75;stroke-miterlimit:10;}
	.st106{fill:none;stroke:#158864;stroke-width:0.8304;stroke-miterlimit:10;}
	.st107{fill:#158864;stroke:#FFFFFF;stroke-width:0.7728;stroke-linecap:round;stroke-linejoin:round;stroke-miterlimit:10;}
</style>
<symbol  id="New_Symbol" viewBox="-8.9 -8.8 19 12">
	<g>
		<defs>
			<rect id="XMLID_00000133526552155048526820000016981714463332097702_" x="-8.9" y="-8.8" width="19" height="12"/>
		</defs>
		<use xlink:href="#XMLID_00000133526552155048526820000016981714463332097702_"  style="overflow:visible;fill:#158864;"/>
		<clipPath id="XMLID_00000130648221449470543210000006301035648748313019_">
			<use xlink:href="#XMLID_00000133526552155048526820000016981714463332097702_"  style="overflow:visible;"/>
		</clipPath>
		<g style="clip-path:url(#XMLID_00000130648221449470543210000006301035648748313019_);">
			<rect x="-8.9" y="-8.8" class="st1" width="19" height="12"/>
			<path class="st2" d="M-8.9,1.9h19 M-8.9,0h19 M-8.9-1.8h19 M-8.9-3.7h19 M-8.9-5.5h19 M-8.9-7.4h19"/>
			<rect x="-8.9" y="-3.2" class="st3" width="9.1" height="6.5"/>
			<g>
				<g id="u_00000059278840063135381170000002670301404769100732_">
					<g>
						<g id="s6_00000069373043394993242250000016745386058375100546_">
							<g>
								<path id="s_00000087411179397437888350000005290078932157912969_" class="st4" d="M-8,2.8l0.2-0.7l-0.6,0.4h0.7l-0.6-0.4
									L-8,2.8z"/>
							</g>
							<g>
								<path id="s_00000149371207985269047510000009018659084742318209_" class="st4" d="M-6.7,2.8l0.2-0.7l-0.6,0.4h0.7L-7,2.1
									L-6.7,2.8z"/>
							</g>
							<g>
								<path id="s_00000126290641861708726560000014276940858654613423_" class="st4" d="M-5.5,2.8l0.2-0.7l-0.6,0.4h0.7l-0.6-0.4
									L-5.5,2.8z"/>
							</g>
							<g>
								<path id="s_00000131344288155501552300000015412251346161515707_" class="st4" d="M-4.3,2.8l0.2-0.7l-0.6,0.4H-4l-0.6-0.4
									L-4.3,2.8z"/>
							</g>
							<g>
								<path id="s_00000013871303072233602920000008745589155423581061_" class="st4" d="M-3.1,2.8l0.2-0.7l-0.6,0.4h0.7l-0.6-0.4
									L-3.1,2.8z"/>
							</g>
							<g>
								<path id="s_00000099630721070968235740000014843710231924889477_" class="st4" d="M-1.9,2.8l0.2-0.7l-0.6,0.4h0.7l-0.6-0.4
									L-1.9,2.8z"/>
							</g>
							<g>
								<path id="s_00000066489797467650916570000007403162167286368901_" class="st4" d="M-0.6,2.8l0.2-0.7L-1,2.6h0.7l-0.6-0.4
									L-0.6,2.8z"/>
							</g>
						</g>
					</g>
					<g>
						<g id="s6_00000016782427172691299150000017505071428672168619_">
							<g>
								<path id="s_00000152951683404256113520000016751654739776463022_" class="st4" d="M-8,1.2l0.2-0.7l-0.6,0.4h0.7l-0.6-0.4
									L-8,1.2z"/>
							</g>
							<g>
								<path id="s_00000037652777772279927830000015836614655611855288_" class="st4" d="M-6.7,1.2l0.2-0.7l-0.6,0.4h0.7L-7,0.5
									L-6.7,1.2z"/>
							</g>
							<g>
								<path id="s_00000048472416182985560130000013459258992630798015_" class="st4" d="M-5.5,1.2l0.2-0.7l-0.6,0.4h0.7l-0.6-0.4
									L-5.5,1.2z"/>
							</g>
							<g>
								<path id="s_00000098909310432008287780000006045995441747987598_" class="st4" d="M-4.3,1.2l0.2-0.7l-0.6,0.4H-4l-0.6-0.4
									L-4.3,1.2z"/>
							</g>
							<g>
								<path id="s_00000129884227025445478800000011632962578708814527_" class="st4" d="M-3.1,1.2l0.2-0.7l-0.6,0.4h0.7l-0.6-0.4
									L-3.1,1.2z"/>
							</g>
							<g>
								<path id="s_00000084531032339218016390000011273387463375584659_" class="st4" d="M-1.9,1.2l0.2-0.7l-0.6,0.4h0.7l-0.6-0.4
									L-1.9,1.2z"/>
							</g>
							<g>
								<path id="s_00000085939105930574108470000017695917516836157840_" class="st4" d="M-0.6,1.2l0.2-0.7L-1,0.9h0.7l-0.6-0.4
									L-0.6,1.2z"/>
							</g>
						</g>
					</g>
					<g>
						<g id="s6_00000004520592526194844970000012537790150206798504_">
							<g>
								<path id="s_00000021100686259513907390000010518637383023419052_" class="st4" d="M-8-0.4l0.2-0.7l-0.6,0.4h0.7l-0.6-0.4
									L-8-0.4z"/>
							</g>
							<g>
								<path id="s_00000136372416213836961500000007749130035961734291_" class="st4" d="M-6.7-0.4l0.2-0.7l-0.6,0.4h0.7L-7-1.1
									L-6.7-0.4z"/>
							</g>
							<g>
								<path id="s_00000144301257854113303780000011075815554586001544_" class="st4" d="M-5.5-0.4l0.2-0.7l-0.6,0.4h0.7l-0.6-0.4
									L-5.5-0.4z"/>
							</g>
							<g>
								<path id="s_00000183232842878042599240000000454217873855118244_" class="st4" d="M-4.3-0.4l0.2-0.7l-0.6,0.4H-4l-0.6-0.4
									L-4.3-0.4z"/>
							</g>
							<g>
								<path id="s_00000004508906538387021980000012325836326501759908_" class="st4" d="M-3.1-0.4l0.2-0.7l-0.6,0.4h0.7l-0.6-0.4
									L-3.1-0.4z"/>
							</g>
							<g>
								<path id="s_00000016769024479760826380000013361393279995809684_" class="st4" d="M-1.9-0.4l0.2-0.7l-0.6,0.4h0.7l-0.6-0.4
									L-1.9-0.4z"/>
							</g>
							<g>
								<path id="s_00000057848492848884978300000003190298779585275827_" class="st4" d="M-0.6-0.4l0.2-0.7L-1-0.7h0.7l-0.6-0.4
									L-0.6-0.4z"/>
							</g>
						</g>
					</g>
					<g>
						<g id="s6_00000009554732340691468810000017732018012827297976_">
							<g>
								<path id="s_00000097465018113978177510000004949989579356334991_" class="st4" d="M-8-2l0.2-0.7l-0.6,0.4h0.7l-0.6-0.4L-8-2
									z"/>
							</g>
							<g>
								<path id="s_00000124860668657674552230000006314695046031163534_" class="st4" d="M-6.7-2l0.2-0.7l-0.6,0.4h0.7L-7-2.7
									L-6.7-2z"/>
							</g>
							<g>
								<path id="s_00000122700014052518666590000015015413629777502881_" class="st4" d="M-5.5-2l0.2-0.7l-0.6,0.4h0.7l-0.6-0.4
									L-5.5-2z"/>
							</g>
							<g>
								<path id="s_00000032611961477733883750000000891031633000179121_" class="st4" d="M-4.3-2l0.2-0.7l-0.6,0.4H-4l-0.6-0.4
									L-4.3-2z"/>
							</g>
							<g>
								<path id="s_00000065776842355972056890000009360060275495652535_" class="st4" d="M-3.1-2l0.2-0.7l-0.6,0.4h0.7l-0.6-0.4
									L-3.1-2z"/>
							</g>
							<g>
								<path id="s_00000156565496569449552940000010417525735855261627_" class="st4" d="M-1.9-2l0.2-0.7l-0.6,0.4h0.7l-0.6-0.4
									L-1.9-2z"/>
							</g>
							<g>
								<path id="s_00000083802035070540764930000016017462742452120497_" class="st4" d="M-0.6-2l0.2-0.7L-1-2.3h0.7l-0.6-0.4
									L-0.6-2z"/>
							</g>
						</g>
					</g>
				</g>
			</g>
		</g>
	</g>
</symbol>
<symbol  id="pop_4" viewBox="-3 -3.6 6 6.5">
	<g>
		<circle class="st5" cx="0" cy="-0.1" r="3"/>
		<path class="st6" d="M0,2.9c-1.7,0-3-1.3-3-3c0-1.7,1.5-2.6,2.4-3.3c0.4-0.3,0.9-0.3,1.3,0C1.5-2.7,3-1.8,3-0.1
			C3,1.5,1.7,2.9,0,2.9z"/>
		<circle class="st7" cx="0" cy="-0.1" r="1.8"/>
	</g>
</symbol>
<symbol  id="pop_6" viewBox="-4.2 -5 8.5 9.2">
	
		<use xlink:href="#pop_4"  width="6" height="6.5" id="XMLID_3_" x="-3" y="-3.6" transform="matrix(1.4159 0 0 1.4159 0 0.1636)" style="overflow:visible;"/>
</symbol>
<g id="Layer_4">
</g>
<g id="Layer_3">
</g>
<g id="Layer_5">
</g>
<g id="Layer_1">
</g>
<g id="Layer_15">
</g>
<g id="Layer_16">
</g>
<g id="Layer_2">
	<polyline class="st10" points="159,31.8 159,109 69.8,109 69.8,19.8 147,19.8 	"/>
	<rect x="17" y="67.9" class="st10" width="59.9" height="59.9"/>
	<rect x="147" y="1.8" class="st10" width="30" height="30"/>
	<rect x="177" y="31.8" class="st10" width="42" height="54.1"/>
	<g>
		<polyline class="st10" points="99.1,44.1 99.1,44.1 114.4,38.6 129.7,44.1 		"/>
		<path class="st10" d="M101.6,82.3c0.4,0.4,0.9,0.8,1.4,1.2l11.4,9.4l11.4-9.4c0.5-0.4,0.9-0.8,1.4-1.2"/>
		<path class="st10" d="M93.1,48.1v14.5c0,5,1.4,9.9,4,14.1"/>
		<path class="st10" d="M135.7,48.1v14.5c0,5-1.4,9.9-4,14.1"/>
		<line class="st10" x1="142.9" y1="35.9" x2="86" y2="92.9"/>
		<line class="st10" x1="90.6" y1="80" x2="98.8" y2="88.2"/>
		<line class="st10" x1="86" y1="35.9" x2="142.9" y2="92.9"/>
		<line class="st10" x1="138.3" y1="80" x2="130" y2="88.2"/>
	</g>
	<line class="st10" x1="73.9" y1="67.9" x2="69.9" y2="72"/>
	<line class="st10" x1="76.9" y1="69.3" x2="69.9" y2="76.3"/>
	<line class="st10" x1="76.9" y1="73.6" x2="69.9" y2="80.7"/>
	<line class="st10" x1="76.9" y1="78" x2="69.9" y2="85.1"/>
	<line class="st10" x1="76.9" y1="82.4" x2="69.9" y2="89.4"/>
	<line class="st10" x1="76.9" y1="86.7" x2="69.9" y2="93.8"/>
	<line class="st10" x1="76.9" y1="91.1" x2="69.9" y2="98.2"/>
	<line class="st10" x1="76.9" y1="95.5" x2="69.9" y2="102.5"/>
	<line class="st10" x1="76.9" y1="99.8" x2="69.9" y2="106.9"/>
	<line class="st10" x1="76.9" y1="104.2" x2="72.1" y2="109"/>
	<g>
		<g id="XMLID_00000168835870221698960810000014422632971064706970_">
			<g>
				<polygon class="st11" points="204.2,70.7 204.2,81.1 201.4,81.1 201.4,72.6 				"/>
				<polygon class="st11" points="194.5,70.7 194.5,81.1 191.7,81.1 191.7,72.6 				"/>
			</g>
			<g>
				<polyline class="st10" points="191.7,81.1 182,81.1 182,72.6 194.5,64.1 194.5,70.7 194.5,81.1 				"/>
				<polyline class="st10" points="201.4,81.1 194.5,81.1 191.7,81.1 191.7,72.6 194.5,70.7 197,69.1 204.2,64.1 204.2,70.7 
					204.2,81.1 				"/>
				<polygon class="st10" points="207,68.8 213.9,64.1 213.9,81.1 204.2,81.1 201.4,81.1 201.4,72.6 204.2,70.7 				"/>
				<polyline class="st10" points="197,69.1 198,50.8 206,50.8 207,68.8 				"/>
				<path class="st10" d="M201.8,42.1c0-1.5,0.6-3,1.7-4.2c1.9-1.9,4.9-1.9,6.7,0c1.5,1.5,1.5,3.9,0,5.4c-1.2,1.2-3.1,1.2-4.3,0
					c-0.9-1-0.9-2.5,0-3.5c0.8-0.8,2-0.8,2.8,0c0.6,0.6,0.6,1.6,0,2.2c-0.5,0.5-1.3,0.5-1.8,0"/>
				<polyline class="st10" points="201.8,41.4 201.8,42.1 201.8,49 				"/>
			</g>
		</g>
	</g>
	<rect x="32.5" y="30.6" class="st29" width="31.3" height="31.3"/>
	<rect x="163" y="113" class="st29" width="10.1" height="10.1"/>
	<g>
		<circle class="st30" cx="48.2" cy="46.3" r="11"/>
		<g>
			<circle class="st30" cx="48.2" cy="41.1" r="1.9"/>
			<path class="st30" d="M44.7,45.7c0.6-1.3,1.9-2.2,3.5-2.2c1.5,0,2.9,0.9,3.5,2.2"/>
		</g>
		<g>
			<line class="st30" x1="54.5" y1="52.3" x2="41.8" y2="52.3"/>
			<path class="st30" d="M43.3,52.3v-6c0-0.3,0.2-0.6,0.6-0.6h8.5c0.3,0,0.6,0.2,0.6,0.6v6"/>
		</g>
	</g>
	<polyline class="st30" points="164.5,118.4 166.7,120.6 171.6,115.6 	"/>
</g>
<g id="Layer_6">
	<g>
		<g id="XMLID_00000118395333895327295660000000022418007135206276_">
			<g>
				<rect x="49.9" y="108.7" class="st11" width="7.3" height="3.2"/>
				<path class="st11" d="M41.1,95c0,0.1,0.1,0.1,0.1,0.2l-6.8,2.9h0l-0.4-0.9l-0.2-0.5h0l6.8-2.9L41.1,95z"/>
				<circle class="st11" cx="33.5" cy="103.7" r="2.6"/>
				<path class="st11" d="M32.7,80.8c0.5,1,0,2.3-1,2.8c-1,0.5-2.3,0-2.8-1c-0.5-1.1,0-2.3,1-2.8C31,79.3,32.2,79.8,32.7,80.8z"/>
			</g>
			<g>
				<path class="st10" d="M40.6,98.8c-0.3,0.4-0.8,0.8-1.3,1.1c0,0,0,0-0.1,0c-0.6,0.3-1.2,0.4-1.8,0.3c-0.7-0.1-1.5-0.4-2-0.8
					c-0.4-0.3-0.7-0.7-1-1.2l0,0l-0.4-0.9l-0.2-0.5L33,95.2l-2.6-5.4l-3.1-6.6c-0.9-1.8-0.1-4,1.8-4.9c0.5-0.2,1-0.3,1.6-0.3
					c0.6,0,1.2,0.1,1.7,0.4c0.7,0.3,1.3,0.9,1.7,1.7l1.4,3l4.3,9.3l0.7,1.4l0.6,1.2c0,0.1,0.1,0.1,0.1,0.2c0.2,0.5,0.3,1.1,0.2,1.6
					C41.4,97.5,41.1,98.3,40.6,98.8"/>
				<path class="st10" d="M32.7,80.8c-0.5-1.1-1.7-1.5-2.8-1c-1.1,0.5-1.5,1.7-1,2.8c0.5,1,1.7,1.5,2.8,1
					C32.8,83.2,33.2,81.9,32.7,80.8z"/>
				<path class="st10" d="M39.2,99.9c1,1.3,1.6,2.8,1.6,4.6v12.1v3.8"/>
				<path class="st10" d="M26.1,120.4v-3.8v-12.1c0-2.4,1.1-4.5,2.9-5.8c1.2-1,2.8-1.5,4.5-1.5c0.2,0,0.3,0,0.5,0"/>
				<line class="st10" x1="64.5" y1="120.4" x2="65.3" y2="120.4"/>
				<polyline class="st10" points="22.6,120.4 26.1,120.4 27.3,120.4 29,120.4 30.8,120.4 32.5,120.4 34.2,120.4 35.9,120.4 
					37.6,120.4 39.4,120.4 40.8,120.4 49.9,120.4 				"/>
				<line class="st10" x1="22.6" y1="123.3" x2="65.3" y2="123.3"/>
				<circle class="st10" cx="33.5" cy="103.7" r="2.6"/>
				<path class="st10" d="M32.4,78.3l13.9-5.8c1.4-0.6,3,0.1,3.6,1.5c0.1,0.3,0.2,0.7,0.2,1s-0.1,0.7-0.2,1
					c-0.2,0.7-0.8,1.3-1.5,1.6l-0.2,0.1L35.6,83"/>
				<line class="st10" x1="46.6" y1="74.1" x2="35.7" y2="78.8"/>
				<line class="st10" x1="39.8" y1="92.3" x2="33" y2="95.2"/>
				<line class="st10" x1="40.5" y1="93.8" x2="33.7" y2="96.7"/>
				<line class="st10" x1="41.2" y1="95.2" x2="34.4" y2="98.1"/>
				<polyline class="st10" points="41.4,96.8 41.4,96.8 35.4,99.4 				"/>
				<polyline class="st10" points="40.6,98.8 40.6,98.8 37.4,100.2 37.4,100.2 				"/>
				<polyline class="st10" points="53.6,79.4 52.5,79.9 50.2,80.7 48.2,81.5 				"/>
				<line class="st10" x1="50" y1="76.1" x2="52.5" y2="79.9"/>
				<polyline class="st10" points="53.6,79.4 60,89.1 61,90.6 58.2,90.6 56.2,90.6 54.3,90.6 53.2,89.1 48.2,81.5 				"/>
				<line class="st10" x1="50.2" y1="80.7" x2="48.3" y2="77.8"/>
				<line class="st10" x1="56.2" y1="90.6" x2="56.2" y2="93.6"/>
				<line class="st10" x1="58.2" y1="90.6" x2="58.2" y2="93.6"/>
				<polyline class="st10" points="60.5,104.9 63.8,99.3 61.2,94.8 60.5,93.6 58.2,93.6 56.2,93.6 53.9,93.6 53.2,94.8 50.7,99.3 
					53.9,104.9 				"/>
				<line class="st10" x1="60" y1="89.1" x2="53.2" y2="89.1"/>
				<polyline class="st10" points="53.2,94.8 61.2,94.8 61.2,94.8 				"/>
				<path class="st10" d="M28.9,98.6c-2-2.9-1.3-6.8,1.6-8.8"/>
				<polyline class="st10" points="26.1,116.6 27.3,116.6 29,116.6 30.8,116.6 32.5,116.6 34.2,116.6 35.9,116.6 37.6,116.6 
					39.4,116.6 40.8,116.6 				"/>
				<line class="st10" x1="27.3" y1="116.6" x2="27.3" y2="120.4"/>
				<line class="st10" x1="29" y1="116.6" x2="29" y2="120.4"/>
				<line class="st10" x1="30.8" y1="116.6" x2="30.8" y2="120.4"/>
				<line class="st10" x1="32.5" y1="116.6" x2="32.5" y2="120.4"/>
				<line class="st10" x1="34.2" y1="116.6" x2="34.2" y2="120.4"/>
				<line class="st10" x1="35.9" y1="116.6" x2="35.9" y2="120.4"/>
				<line class="st10" x1="37.6" y1="116.6" x2="37.6" y2="120.4"/>
				<line class="st10" x1="39.4" y1="116.6" x2="39.4" y2="120.4"/>
				<polygon class="st10" points="64.5,120.4 49.9,120.4 49.9,112 49.9,108.7 57.2,108.7 64.5,108.7 64.5,112 				"/>
				<polyline class="st10" points="49.9,112 57.2,112 64.5,112 				"/>
				<line class="st10" x1="57.2" y1="108.7" x2="57.2" y2="112"/>
			</g>
		</g>
	</g>
	<g id="XMLID_00000171689134869038466830000016673508049441580445_">
		<g>
			<path class="st11" d="M170.5,19.2v4.9c0,0.5-1.2,0.9-3,1.2l0-0.1v-4.8C169.3,20.2,170.5,19.7,170.5,19.2z"/>
			<path class="st11" d="M170.5,19.1L170.5,19.1c0,0.6-1.2,1-3,1.3v-4.9c1.8-0.3,3-0.7,3-1.2V19.1z"/>
			<path class="st11" d="M170.5,14.3L170.5,14.3c0,0.6-1.2,1-3,1.3v-4.9c1.8-0.3,3-0.7,3-1.2V14.3z"/>
		</g>
		<g>
			<path class="st10" d="M153.5,19.2v4.9c0,0.9,3.8,1.6,8.5,1.6c2.1,0,4-0.1,5.5-0.4c1.8-0.3,3-0.7,3-1.2v-4.9"/>
			<path class="st10" d="M153.5,14.4v4.8v0.1c0,0.9,3.8,1.6,8.5,1.6c2.1,0,4-0.1,5.5-0.4c1.8-0.3,3-0.7,3-1.2v-0.1v-4.8"/>
			<path class="st10" d="M153.5,9.4L153.5,9.4v4.9v0.1c0,0.9,3.8,1.6,8.5,1.6c2.1,0,4-0.1,5.5-0.4c1.8-0.3,3-0.7,3-1.2v-0.1V9.5V9.4
				"/>
			<path class="st10" d="M170.5,9.5c0,0.5-1.2,0.9-3,1.2c-1.5,0.2-3.4,0.4-5.5,0.4c-4.7,0-8.5-0.7-8.5-1.6c0-0.9,3.8-1.6,8.5-1.6
				C166.7,7.9,170.5,8.6,170.5,9.5z"/>
			<polyline class="st10" points="167.4,10.7 167.4,10.7 167.4,15.6 167.4,20.5 167.4,25.2 			"/>
		</g>
	</g>
</g>
<g id="Layer_8">
</g>
<g id="Layer_14">
</g>
<g id="Layer_10">
</g>
<g id="Layer_11" class="st70">
</g>
<g id="Layer_17">
</g>
<g id="Layer_9">
</g>
<g id="Layer_7_00000135676333297724536660000013176285327006084740_">
</g>
<g id="Layer_12">
</g>
<g id="Layer_13">
</g>
</svg>
